AnekMalayalam-ExpandedThin.ufo
<glyph name="dollar" format="2">
  <advance width="1452"/>
  <unicode hex="0024"/>
  <outline>
    <component base="S"/>
    <contour>
      <point x="731" y="1545" type="line"/>
      <point x="695" y="1545" type="line"/>
      <point x="695" y="1278" type="line"/>
      <point x="731" y="1278" type="line"/>
    </contour>
    <contour>
      <point x="731" y="0" type="line"/>
      <point x="695" y="0" type="line"/>
      <point x="695" y="-270" type="line"/>
      <point x="731" y="-270" type="line"/>
    </contour>
  </outline>
</glyph>
<glyph name="P" format="2">
  <advance width="1511"/>
  <unicode hex="0050"/>
  <anchor x="756" y="0" name="bottom"/>
  <anchor x="756" y="1278" name="top"/>
  <outline>
    <contour>
      <point x="955" y="484" type="line" smooth="yes"/>
      <point x="1250" y="484"/>
      <point x="1387" y="640"/>
      <point x="1387" y="870" type="curve" smooth="yes"/>
      <point x="1387" y="893" type="line" smooth="yes"/>
      <point x="1387" y="1123"/>
      <point x="1250" y="1278"/>
      <point x="955" y="1278" type="curve" smooth="yes"/>
      <point x="255" y="1278" type="line"/>
      <point x="255" y="1244" type="line"/>
      <point x="953" y="1244" type="line" smooth="yes"/>
      <point x="1228" y="1244"/>
      <point x="1347" y="1105"/>
      <point x="1347" y="891" type="curve" smooth="yes"/>
      <point x="1347" y="871" type="line" smooth="yes"/>
      <point x="1347" y="657"/>
      <point x="1228" y="518"/>
      <point x="953" y="518" type="curve" smooth="yes"/>
      <point x="266" y="518" type="line"/>
      <point x="266" y="484" type="line"/>
    </contour>
    <contour>
      <point x="276" y="0" type="line"/>
      <point x="276" y="492" type="line"/>
      <point x="276" y="508" type="line"/>
      <point x="276" y="1278" type="line"/>
      <point x="236" y="1278" type="line"/>
      <point x="236" y="0" type="line"/>
    </contour>
  </outline>
</glyph>
<glyph name="Q" format="2">
  <advance width="1655"/>
  <unicode hex="0051"/>
  <anchor x="828" y="0" name="bottom"/>
  <anchor x="828" y="1278" name="top"/>
  <outline>
    <contour>
      <point x="1629" y="9" type="line"/>
      <point x="908" y="11" type="line"/>
      <point x="915" y="4" type="line"/>
      <point x="1227" y="21"/>
      <point x="1511" y="218"/>
      <point x="1511" y="629" type="curve" smooth="yes"/>
      <point x="1511" y="650" type="line" smooth="yes"/>
      <point x="1511" y="1066"/>
      <point x="1267" y="1299"/>
      <point x="826" y="1299" type="curve" smooth="yes"/>
      <point x="386" y="1299"/>
      <point x="142" y="1066"/>
      <point x="142" y="650" type="curve" smooth="yes"/>
      <point x="142" y="632" type="line" smooth="yes"/>
      <point x="142" y="220"/>
      <point x="397" y="-11"/>
      <point x="869" y="-18" type="curve" smooth="yes"/>
      <point x="1629" y="-30" type="line"/>
    </contour>
    <contour>
      <point x="869" y="16" type="line" smooth="yes"/>
      <point x="440" y="16"/>
      <point x="183" y="242"/>
      <point x="183" y="629" type="curve" smooth="yes"/>
      <point x="183" y="650" type="line" smooth="yes"/>
      <point x="183" y="1044"/>
      <point x="409" y="1262"/>
      <point x="826" y="1262" type="curve" smooth="yes"/>
      <point x="1244" y="1262"/>
      <point x="1470" y="1044"/>
      <point x="1470" y="650" type="curve" smooth="yes"/>
      <point x="1470" y="629" type="line" smooth="yes"/>
      <point x="1470" y="210"/>
      <point x="1180" y="46"/>
      <point x="887" y="16" type="curve"/>
    </contour>
  </outline>
</glyph>
<glyph name="V" format="2">
  <advance width="1516"/>
  <unicode hex="0056"/>
  <anchor x="758" y="0" name="bottom"/>
  <anchor x="758" y="1278" name="top"/>
  <outline>
    <contour>
      <point x="800" y="0" type="line"/>
      <point x="1434" y="1278" type="line"/>
      <point x="1392" y="1278" type="line"/>
      <point x="773" y="32" type="line"/>
      <point x="743" y="32" type="line"/>
      <point x="124" y="1278" type="line"/>
      <point x="82" y="1278" type="line"/>
      <point x="716" y="0" type="line"/>
    </contour>
  </outline>
</glyph>
<glyph name="bar" format="2">
  <advance width="572"/>
  <unicode hex="007C"/>
  <outline>
    <contour>
      <point x="304" y="1415" type="line"/>
      <point x="268" y="1415" type="line"/>
      <point x="268" y="-465" type="line"/>
      <point x="304" y="-465" type="line"/>
    </contour>
  </outline>
</glyph>
<glyph name="guillemetright" format="2">
  <advance width="1320"/>
  <unicode hex="00BB"/>
  <outline>
    <contour>
      <point x="85" y="857" type="line"/>
      <point x="142" y="857" type="line"/>
      <point x="604" y="498" type="line"/>
      <point x="604" y="450" type="line"/>
      <point x="142" y="91" type="line"/>
      <point x="85" y="91" type="line"/>
      <point x="572" y="474" type="line"/>
    </contour>
    <contour>
      <point x="686" y="857" type="line"/>
      <point x="743" y="857" type="line"/>
      <point x="1205" y="498" type="line"/>
      <point x="1205" y="450" type="line"/>
      <point x="743" y="91" type="line"/>
      <point x="686" y="91" type="line"/>
      <point x="1173" y="474" type="line"/>
    </contour>
  </outline>
</glyph>
<glyph name="Thorn" format="2">
  <advance width="1511"/>
  <unicode hex="00DE"/>
  <anchor x="756" y="0" name="bottom"/>
  <anchor x="756" y="1278" name="top"/>
  <outline>
    <contour>
      <point x="955" y="245" type="line" smooth="yes"/>
      <point x="1250" y="245"/>
      <point x="1387" y="401"/>
      <point x="1387" y="631" type="curve" smooth="yes"/>
      <point x="1387" y="654" type="line" smooth="yes"/>
      <point x="1387" y="884"/>
      <point x="1250" y="1039"/>
      <point x="955" y="1039" type="curve" smooth="yes"/>
      <point x="255" y="1039" type="line"/>
      <point x="255" y="1005" type="line"/>
      <point x="953" y="1005" type="line" smooth="yes"/>
      <point x="1228" y="1005"/>
      <point x="1347" y="866"/>
      <point x="1347" y="652" type="curve" smooth="yes"/>
      <point x="1347" y="632" type="line" smooth="yes"/>
      <point x="1347" y="418"/>
      <point x="1228" y="279"/>
      <point x="953" y="279" type="curve" smooth="yes"/>
      <point x="266" y="279" type="line"/>
      <point x="266" y="245" type="line"/>
    </contour>
    <contour>
      <point x="276" y="0" type="line"/>
      <point x="276" y="254" type="line"/>
      <point x="276" y="271" type="line"/>
      <point x="276" y="1014" type="line"/>
      <point x="276" y="1029" type="line"/>
      <point x="276" y="1278" type="line"/>
      <point x="236" y="1278" type="line"/>
      <point x="236" y="0" type="line"/>
    </contour>
  </outline>
</glyph>
<glyph name="acutecomb" format="2">
  <advance width="556"/>
  <unicode hex="0301"/>
  <anchor x="114" y="952" name="_top"/>
  <anchor x="114" y="1321" name="top"/>
  <outline>
    <contour>
      <point x="100" y="1116" type="line"/>
      <point x="100" y="1114" type="line"/>
      <point x="144" y="1114" type="line"/>
      <point x="456" y="1385" type="line"/>
      <point x="456" y="1388" type="line"/>
      <point x="402" y="1388" type="line"/>
    </contour>
  </outline>
</glyph>
<glyph name="circumflexcomb" format="2">
  <advance width="824"/>
  <unicode hex="0302"/>
  <anchor x="412" y="952" name="_top"/>
  <anchor x="412" y="1321" name="top"/>
  <outline>
    <contour>
      <point x="100" y="1116" type="line"/>
      <point x="100" y="1114" type="line"/>
      <point x="145" y="1114" type="line"/>
      <point x="409" y="1356" type="line"/>
      <point x="415" y="1356" type="line"/>
      <point x="679" y="1114" type="line"/>
      <point x="724" y="1114" type="line"/>
      <point x="724" y="1116" type="line"/>
      <point x="436" y="1388" type="line"/>
      <point x="388" y="1388" type="line"/>
    </contour>
  </outline>
</glyph>
<glyph name="tildecomb" format="2">
  <advance width="790"/>
  <unicode hex="0303"/>
  <anchor x="395" y="952" name="_top"/>
  <anchor x="395" y="1311" name="top"/>
  <outline>
    <contour>
      <point x="562" y="1147" type="curve" smooth="yes"/>
      <point x="649" y="1147"/>
      <point x="690" y="1196"/>
      <point x="690" y="1302" type="curve" smooth="yes"/>
      <point x="690" y="1336" type="line"/>
      <point x="658" y="1336" type="line"/>
      <point x="658" y="1306" type="line" smooth="yes"/>
      <point x="658" y="1221"/>
      <point x="628" y="1181"/>
      <point x="562" y="1181" type="curve" smooth="yes"/>
      <point x="453" y="1181"/>
      <point x="353" y="1326"/>
      <point x="228" y="1326" type="curve" smooth="yes"/>
      <point x="141" y="1326"/>
      <point x="100" y="1276"/>
      <point x="100" y="1169" type="curve" smooth="yes"/>
      <point x="100" y="1137" type="line"/>
      <point x="132" y="1137" type="line"/>
      <point x="132" y="1167" type="line" smooth="yes"/>
      <point x="132" y="1252"/>
      <point x="162" y="1292"/>
      <point x="228" y="1292" type="curve" smooth="yes"/>
      <point x="335" y="1292"/>
      <point x="435" y="1147"/>
    </contour>
  </outline>
</glyph>
<glyph name="Chandrabindu.mlm" format="2">
  <unicode hex="0D01"/>
  <outline>
    <contour>
      <point x="-734" y="1392" type="curve" smooth="yes"/>
      <point x="-959" y="1392"/>
      <point x="-1105" y="1500"/>
      <point x="-1105" y="1702" type="curve" smooth="yes"/>
      <point x="-1105" y="1718" type="line"/>
      <point x="-1140" y="1718" type="line"/>
      <point x="-1140" y="1700" type="line" smooth="yes"/>
      <point x="-1140" y="1485"/>
      <point x="-989" y="1359"/>
      <point x="-734" y="1359" type="curve" smooth="yes"/>
      <point x="-479" y="1359"/>
      <point x="-327" y="1485"/>
      <point x="-327" y="1700" type="curve" smooth="yes"/>
      <point x="-327" y="1718" type="line"/>
      <point x="-363" y="1718" type="line"/>
      <point x="-363" y="1702" type="line" smooth="yes"/>
      <point x="-363" y="1500"/>
      <point x="-509" y="1392"/>
    </contour>
    <contour>
      <point x="-790" y="1725" type="line" smooth="yes"/>
      <point x="-790" y="1688"/>
      <point x="-770" y="1665"/>
      <point x="-730" y="1665" type="curve" smooth="yes"/>
      <point x="-690" y="1665"/>
      <point x="-669" y="1688"/>
      <point x="-669" y="1725" type="curve" smooth="yes"/>
      <point x="-669" y="1728" type="line" smooth="yes"/>
      <point x="-669" y="1767"/>
      <point x="-690" y="1790"/>
      <point x="-730" y="1790" type="curve" smooth="yes"/>
      <point x="-770" y="1790"/>
      <point x="-790" y="1767"/>
      <point x="-790" y="1728" type="curve" smooth="yes"/>
    </contour>
  </outline>
</glyph>
<glyph name="uni0D04" format="2">
  <advance width="1535"/>
  <unicode hex="0D04"/>
  <outline>
    <contour>
      <point x="767" y="982" type="curve" smooth="yes"/>
      <point x="751" y="982"/>
      <point x="741" y="971"/>
      <point x="741" y="943" type="curve" smooth="yes"/>
      <point x="741" y="627" type="line" smooth="yes"/>
      <point x="741" y="601"/>
      <point x="751" y="590"/>
      <point x="767" y="590" type="curve" smooth="yes"/>
      <point x="783" y="590"/>
      <point x="794" y="601"/>
      <point x="794" y="627" type="curve" smooth="yes"/>
      <point x="794" y="943" type="line" smooth="yes"/>
      <point x="794" y="971"/>
      <point x="783" y="982"/>
    </contour>
    <contour>
      <point x="767" y="144" type="curve" smooth="yes"/>
      <point x="1163" y="144"/>
      <point x="1359" y="349"/>
      <point x="1359" y="734" type="curve" smooth="yes"/>
      <point x="1359" y="831" type="line"/>
      <point x="1322" y="831" type="line"/>
      <point x="1322" y="734" type="line" smooth="yes"/>
      <point x="1322" y="368"/>
      <point x="1133" y="180"/>
      <point x="767" y="180" type="curve" smooth="yes"/>
      <point x="401" y="180"/>
      <point x="213" y="368"/>
      <point x="213" y="734" type="curve" smooth="yes"/>
      <point x="213" y="831" type="line"/>
      <point x="176" y="831" type="line"/>
      <point x="176" y="734" type="line" smooth="yes"/>
      <point x="176" y="349"/>
      <point x="371" y="144"/>
    </contour>
  </outline>
</glyph>
<glyph name="vowelA.mlm" format="2">
  <advance width="3656"/>
  <unicode hex="0D05"/>
  <outline>
    <contour>
      <point x="2161" y="7" type="line"/>
      <point x="2198" y="7" type="line"/>
      <point x="2198" y="612" type="line"/>
      <point x="2161" y="612" type="line"/>
    </contour>
    <contour>
      <point x="2178" y="755" type="line"/>
      <point x="2123" y="1035"/>
      <point x="1897" y="1153"/>
      <point x="1568" y="1153" type="curve" smooth="yes"/>
      <point x="1445" y="1153"/>
      <point x="1339" y="1142"/>
      <point x="1239" y="1114" type="curve"/>
      <point x="1280" y="1095" type="line"/>
      <point x="1370" y="1113"/>
      <point x="1461" y="1118"/>
      <point x="1568" y="1118" type="curve" smooth="yes"/>
      <point x="1962" y="1118"/>
      <point x="2161" y="937"/>
      <point x="2161" y="619" type="curve" smooth="yes"/>
      <point x="2161" y="568" type="line"/>
      <point x="2182" y="568" type="line"/>
    </contour>
    <contour>
      <point x="213" y="524" type="line" smooth="yes"/>
      <point x="213" y="918"/>
      <point x="452" y="1118"/>
      <point x="945" y="1118" type="curve" smooth="yes"/>
      <point x="1017" y="1118"/>
      <point x="1114" y="1113"/>
      <point x="1211" y="1095" type="curve"/>
      <point x="1216" y="1093"/>
      <point x="1235" y="1089"/>
      <point x="1239" y="1089" type="curve"/>
      <point x="1434" y="1049"/>
      <point x="1624" y="961"/>
      <point x="1624" y="778" type="curve" smooth="yes"/>
      <point x="1624" y="771" type="line" smooth="yes"/>
      <point x="1624" y="627"/>
      <point x="1514" y="557"/>
      <point x="1301" y="553" type="curve" smooth="yes"/>
      <point x="1194" y="551" type="line"/>
      <point x="1194" y="519" type="line"/>
      <point x="1302" y="517" type="line" smooth="yes"/>
      <point x="1531" y="513"/>
      <point x="1649" y="439"/>
      <point x="1649" y="289" type="curve" smooth="yes"/>
      <point x="1649" y="278" type="line" smooth="yes"/>
      <point x="1649" y="113"/>
      <point x="1526" y="9"/>
      <point x="1281" y="9" type="curve" smooth="yes"/>
      <point x="973" y="9"/>
      <point x="817" y="176"/>
      <point x="817" y="491" type="curve" smooth="yes"/>
      <point x="817" y="509" type="line" smooth="yes"/>
      <point x="817" y="775"/>
      <point x="975.953" y="1010.02"/>
      <point x="1266" y="1089" type="curve"/>
      <point x="1221" y="1107" type="line"/>
      <point x="934" y="1026"/>
      <point x="778" y="778"/>
      <point x="778" y="509" type="curve" smooth="yes"/>
      <point x="778" y="491" type="line" smooth="yes"/>
      <point x="778" y="153"/>
      <point x="948" y="-26"/>
      <point x="1281" y="-26" type="curve" smooth="yes"/>
      <point x="1552" y="-26"/>
      <point x="1688" y="88"/>
      <point x="1688" y="278" type="curve" smooth="yes"/>
      <point x="1688" y="289" type="line" smooth="yes"/>
      <point x="1688" y="428"/>
      <point x="1595" y="516"/>
      <point x="1415" y="535" type="curve"/>
      <point x="1415" y="537" type="line"/>
      <point x="1577" y="560"/>
      <point x="1663" y="639"/>
      <point x="1663" y="771" type="curve" smooth="yes"/>
      <point x="1663" y="778" type="line" smooth="yes"/>
      <point x="1663" y="961"/>
      <point x="1492" y="1060"/>
      <point x="1304" y="1109" type="curve"/>
      <point x="1274" y="1116" type="line" smooth="yes"/>
      <point x="1156" y="1144"/>
      <point x="1035" y="1153"/>
      <point x="945" y="1153" type="curve" smooth="yes"/>
      <point x="429" y="1153"/>
      <point x="174" y="941"/>
      <point x="174" y="524" type="curve" smooth="yes"/>
      <point x="174" y="507" type="line" smooth="yes"/>
      <point x="174" y="308"/>
      <point x="243" y="137"/>
      <point x="354" y="0" type="curve"/>
      <point x="405" y="0" type="line"/>
      <point x="285" y="137"/>
      <point x="213" y="308"/>
      <point x="213" y="507" type="curve" smooth="yes"/>
    </contour>
    <contour>
      <point x="2793" y="1153" type="curve" smooth="yes"/>
      <point x="2464" y="1153"/>
      <point x="2236" y="1035"/>
      <point x="2180" y="755" type="curve"/>
      <point x="2171" y="755" type="line"/>
      <point x="2173" y="549" type="line"/>
      <point x="2198" y="549" type="line"/>
      <point x="2198" y="621" type="line" smooth="yes"/>
      <point x="2198" y="938"/>
      <point x="2397" y="1118"/>
      <point x="2793" y="1118" type="curve" smooth="yes"/>
      <point x="3210.36" y="1118"/>
      <point x="3419.04" y="910.963"/>
      <point x="3444" y="560" type="curve"/>
      <point x="3444" y="560" type="line"/>
      <point x="3435" y="560" type="line"/>
      <point x="3445" y="532" type="line"/>
      <point x="3445" y="493" type="line" smooth="yes"/>
      <point x="3445" y="173"/>
      <point x="3321" y="3"/>
      <point x="3055" y="3" type="curve" smooth="yes"/>
      <point x="2825" y="3"/>
      <point x="2683" y="123"/>
      <point x="2683" y="342" type="curve" smooth="yes"/>
      <point x="2683" y="353" type="line" smooth="yes"/>
      <point x="2683" y="566"/>
      <point x="2809" y="684"/>
      <point x="3052" y="684" type="curve" smooth="yes"/>
      <point x="3227" y="684"/>
      <point x="3352" y="626"/>
      <point x="3445" y="523" type="curve"/>
      <point x="3452" y="551" type="line"/>
      <point x="3369" y="649"/>
      <point x="3238" y="719"/>
      <point x="3052" y="719" type="curve" smooth="yes"/>
      <point x="2784" y="719"/>
      <point x="2644" y="589"/>
      <point x="2644" y="353" type="curve" smooth="yes"/>
      <point x="2644" y="342" type="line" smooth="yes"/>
      <point x="2644" y="103"/>
      <point x="2800" y="-32"/>
      <point x="3055" y="-32" type="curve" smooth="yes"/>
      <point x="3343" y="-32"/>
      <point x="3483" y="151"/>
      <point x="3483" y="484" type="curve" smooth="yes"/>
      <point x="3483" y="500" type="line" smooth="yes"/>
      <point x="3483" y="917"/>
      <point x="3252" y="1153"/>
    </contour>
  </outline>
</glyph>
<glyph name="vowelAa.mlm" format="2">
  <advance width="4131"/>
  <unicode hex="0D06"/>
  <outline>
    <contour>
      <point x="3416" y="796" type="line"/>
      <point x="3737" y="752"/>
      <point x="3933" y="576"/>
      <point x="3933" y="255" type="curve" smooth="yes"/>
      <point x="3933" y="245" type="line" smooth="yes"/>
      <point x="3933" y="-127"/>
      <point x="3694" y="-333"/>
      <point x="3251" y="-333" type="curve" smooth="yes"/>
      <point x="3061" y="-333"/>
      <point x="2901" y="-308"/>
      <point x="2765" y="-257" type="curve"/>
      <point x="2779" y="-297" type="line"/>
      <point x="2916" y="-345"/>
      <point x="3068" y="-368"/>
      <point x="3251" y="-368" type="curve" smooth="yes"/>
      <point x="3716" y="-368"/>
      <point x="3972" y="-148"/>
      <point x="3972" y="245" type="curve" smooth="yes"/>
      <point x="3972" y="257" type="line" smooth="yes"/>
      <point x="3972" y="585"/>
      <point x="3765" y="788"/>
      <point x="3402" y="832" type="curve"/>
    </contour>
    <contour>
      <point x="2793" y="1118" type="curve" smooth="yes"/>
      <point x="3078" y="1118"/>
      <point x="3280" y="1011"/>
      <point x="3370" y="822" type="curve"/>
      <point x="3378" y="806" type="line"/>
      <point x="3415" y="720"/>
      <point x="3435" y="618"/>
      <point x="3435" y="507" type="curve" smooth="yes"/>
      <point x="3435" y="491" type="line" smooth="yes"/>
      <point x="3435" y="209"/>
      <point x="3301" y="65"/>
      <point x="3054" y="65" type="curve" smooth="yes"/>
      <point x="2811" y="65"/>
      <point x="2679" y="183"/>
      <point x="2679" y="394" type="curve" smooth="yes"/>
      <point x="2679" y="405" type="line" smooth="yes"/>
      <point x="2679" y="664"/>
      <point x="2870" y="806"/>
      <point x="3247" y="806" type="curve" smooth="yes"/>
      <point x="3300" y="806"/>
      <point x="3351" y="802"/>
      <point x="3399" y="797" type="curve"/>
      <point x="3379" y="834" type="line"/>
      <point x="3337" y="839"/>
      <point x="3293" y="841"/>
      <point x="3247" y="841" type="curve" smooth="yes"/>
      <point x="2846" y="841"/>
      <point x="2640" y="687"/>
      <point x="2640" y="405" type="curve" smooth="yes"/>
      <point x="2640" y="394" type="line" smooth="yes"/>
      <point x="2640" y="162"/>
      <point x="2786" y="30"/>
      <point x="3054" y="30" type="curve" smooth="yes"/>
      <point x="3329" y="30"/>
      <point x="3474" y="191"/>
      <point x="3474" y="489" type="curve" smooth="yes"/>
      <point x="3474" y="505" type="line" smooth="yes"/>
      <point x="3474" y="613"/>
      <point x="3456" y="713"/>
      <point x="3421" y="801" type="curve"/>
      <point x="3414" y="817" type="line" smooth="yes"/>
      <point x="3321" y="1027"/>
      <point x="3122" y="1153"/>
      <point x="2793" y="1153" type="curve" smooth="yes"/>
      <point x="2463" y="1153"/>
      <point x="2236" y="1035"/>
      <point x="2181" y="755" type="curve"/>
      <point x="2172" y="755" type="line"/>
      <point x="2174" y="549" type="line"/>
      <point x="2198" y="549" type="line"/>
      <point x="2198" y="621" type="line" smooth="yes"/>
      <point x="2198" y="938"/>
      <point x="2398" y="1118"/>
    </contour>
    <contour>
      <point x="2161" y="7" type="line"/>
      <point x="2198" y="7" type="line"/>
      <point x="2198" y="612" type="line"/>
      <point x="2161" y="612" type="line"/>
    </contour>
    <contour>
      <point x="2178" y="755" type="line"/>
      <point x="2123" y="1035"/>
      <point x="1897" y="1153"/>
      <point x="1568" y="1153" type="curve" smooth="yes"/>
      <point x="1445" y="1153"/>
      <point x="1339" y="1142"/>
      <point x="1239" y="1114" type="curve"/>
      <point x="1280" y="1095" type="line"/>
      <point x="1370" y="1113"/>
      <point x="1461" y="1118"/>
      <point x="1568" y="1118" type="curve" smooth="yes"/>
      <point x="1962" y="1118"/>
      <point x="2161" y="937"/>
      <point x="2161" y="619" type="curve" smooth="yes"/>
      <point x="2161" y="568" type="line"/>
      <point x="2182" y="568" type="line"/>
    </contour>
    <contour>
      <point x="213" y="524" type="line" smooth="yes"/>
      <point x="213" y="918"/>
      <point x="452" y="1118"/>
      <point x="945" y="1118" type="curve" smooth="yes"/>
      <point x="1017" y="1118"/>
      <point x="1114" y="1113"/>
      <point x="1211" y="1095" type="curve"/>
      <point x="1216" y="1093"/>
      <point x="1235" y="1089"/>
      <point x="1239" y="1089" type="curve"/>
      <point x="1434" y="1049"/>
      <point x="1624" y="961"/>
      <point x="1624" y="778" type="curve" smooth="yes"/>
      <point x="1624" y="771" type="line" smooth="yes"/>
      <point x="1624" y="627"/>
      <point x="1514" y="557"/>
      <point x="1301" y="553" type="curve" smooth="yes"/>
      <point x="1194" y="551" type="line"/>
      <point x="1194" y="519" type="line"/>
      <point x="1302" y="517" type="line" smooth="yes"/>
      <point x="1531" y="513"/>
      <point x="1649" y="439"/>
      <point x="1649" y="289" type="curve" smooth="yes"/>
      <point x="1649" y="278" type="line" smooth="yes"/>
      <point x="1649" y="113"/>
      <point x="1526" y="9"/>
      <point x="1281" y="9" type="curve" smooth="yes"/>
      <point x="973" y="9"/>
      <point x="817" y="176"/>
      <point x="817" y="491" type="curve" smooth="yes"/>
      <point x="817" y="509" type="line" smooth="yes"/>
      <point x="817" y="775"/>
      <point x="975.953" y="1010.02"/>
      <point x="1266" y="1089" type="curve"/>
      <point x="1221" y="1107" type="line"/>
      <point x="934" y="1026"/>
      <point x="778" y="778"/>
      <point x="778" y="509" type="curve" smooth="yes"/>
      <point x="778" y="491" type="line" smooth="yes"/>
      <point x="778" y="153"/>
      <point x="948" y="-26"/>
      <point x="1281" y="-26" type="curve" smooth="yes"/>
      <point x="1552" y="-26"/>
      <point x="1688" y="88"/>
      <point x="1688" y="278" type="curve" smooth="yes"/>
      <point x="1688" y="289" type="line" smooth="yes"/>
      <point x="1688" y="428"/>
      <point x="1595" y="516"/>
      <point x="1415" y="535" type="curve"/>
      <point x="1415" y="537" type="line"/>
      <point x="1577" y="560"/>
      <point x="1663" y="639"/>
      <point x="1663" y="771" type="curve" smooth="yes"/>
      <point x="1663" y="778" type="line" smooth="yes"/>
      <point x="1663" y="961"/>
      <point x="1492" y="1060"/>
      <point x="1304" y="1109" type="curve"/>
      <point x="1274" y="1116" type="line" smooth="yes"/>
      <point x="1156" y="1144"/>
      <point x="1035" y="1153"/>
      <point x="945" y="1153" type="curve" smooth="yes"/>
      <point x="429" y="1153"/>
      <point x="174" y="941"/>
      <point x="174" y="524" type="curve" smooth="yes"/>
      <point x="174" y="507" type="line" smooth="yes"/>
      <point x="174" y="308"/>
      <point x="243" y="137"/>
      <point x="354" y="0" type="curve"/>
      <point x="405" y="0" type="line"/>
      <point x="285" y="137"/>
      <point x="213" y="308"/>
      <point x="213" y="507" type="curve" smooth="yes"/>
    </contour>
  </outline>
</glyph>
<glyph name="vowelI.mlm" format="2">
  <advance width="2432"/>
  <unicode hex="0D07"/>
  <outline>
    <contour>
      <point x="784" y="1153" type="curve" smooth="yes"/>
      <point x="373.044" y="1153"/>
      <point x="174" y="986.654"/>
      <point x="174" y="650" type="curve" smooth="yes"/>
      <point x="174" y="637" type="line" smooth="yes"/>
      <point x="174" y="384"/>
      <point x="309.576" y="249"/>
      <point x="570" y="249" type="curve" smooth="yes"/>
      <point x="799" y="249"/>
      <point x="929" y="355"/>
      <point x="929" y="549" type="curve" smooth="yes"/>
      <point x="929" y="560" type="line" smooth="yes"/>
      <point x="929" y="747"/>
      <point x="799" y="852"/>
      <point x="572" y="852" type="curve" smooth="yes"/>
      <point x="385.969" y="852"/>
      <point x="239.663" y="760.198"/>
      <point x="198" y="623" type="curve"/>
      <point x="212" y="607" type="line"/>
      <point x="264.258" y="735.221"/>
      <point x="392.968" y="817"/>
      <point x="572" y="817" type="curve" smooth="yes"/>
      <point x="774" y="817"/>
      <point x="890" y="724"/>
      <point x="890" y="560" type="curve" smooth="yes"/>
      <point x="890" y="549" type="line" smooth="yes"/>
      <point x="890" y="378"/>
      <point x="774" y="284"/>
      <point x="570" y="284" type="curve" smooth="yes"/>
      <point x="334.576" y="284"/>
      <point x="212" y="407"/>
      <point x="212" y="637" type="curve"/>
      <point x="212" y="639" type="line"/>
      <point x="219" y="657.921" type="line"/>
      <point x="212" y="657.921" type="line"/>
      <point x="212.045" y="657.804" type="line"/>
      <point x="211.702" y="960.274"/>
      <point x="400.461" y="1118"/>
      <point x="784" y="1118" type="curve" smooth="yes"/>
      <point x="1140" y="1118"/>
      <point x="1320" y="963"/>
      <point x="1320" y="690" type="curve" smooth="yes"/>
      <point x="1320" y="299" type="line"/>
      <point x="1357" y="299" type="line"/>
      <point x="1357" y="709" type="line" smooth="yes"/>
      <point x="1357" y="984"/>
      <point x="1490" y="1118"/>
      <point x="1770" y="1118" type="curve" smooth="yes"/>
      <point x="2064" y="1118"/>
      <point x="2215" y="961"/>
      <point x="2215" y="632" type="curve" smooth="yes"/>
      <point x="2215" y="614" type="line" smooth="yes"/>
      <point x="2215" y="239"/>
      <point x="2029" y="51"/>
      <point x="1668" y="51" type="curve" smooth="yes"/>
      <point x="443" y="51" type="line" smooth="yes"/>
      <point x="267" y="51"/>
      <point x="174" y="-26"/>
      <point x="174" y="-181" type="curve" smooth="yes"/>
      <point x="174" y="-338"/>
      <point x="267" y="-415"/>
      <point x="443" y="-415" type="curve" smooth="yes"/>
      <point x="2235" y="-415" type="line"/>
      <point x="2247" y="-382" type="line"/>
      <point x="443" y="-382" type="line" smooth="yes"/>
      <point x="294" y="-382"/>
      <point x="213" y="-317"/>
      <point x="213" y="-181" type="curve" smooth="yes"/>
      <point x="213" y="-47"/>
      <point x="294" y="18"/>
      <point x="443" y="18" type="curve" smooth="yes"/>
      <point x="1670" y="18" type="line" smooth="yes"/>
      <point x="2059" y="18"/>
      <point x="2254" y="220"/>
      <point x="2254" y="614" type="curve" smooth="yes"/>
      <point x="2254" y="632" type="line" smooth="yes"/>
      <point x="2254" y="980"/>
      <point x="2094" y="1153"/>
      <point x="1772" y="1153" type="curve" smooth="yes"/>
      <point x="1512" y="1153"/>
      <point x="1368" y="1047"/>
      <point x="1336" y="820" type="curve"/>
      <point x="1334" y="820" type="line"/>
      <point x="1286" y="1036"/>
      <point x="1097" y="1153"/>
    </contour>
  </outline>
</glyph>
<glyph name="vowelE.mlm" format="2">
  <advance width="3287"/>
  <unicode hex="0D0F"/>
  <outline>
    <contour>
      <point x="630" y="741" type="curve" smooth="yes"/>
      <point x="319" y="741"/>
      <point x="167" y="604"/>
      <point x="167" y="345" type="curve" smooth="yes"/>
      <point x="167" y="331" type="line" smooth="yes"/>
      <point x="167" y="203"/>
      <point x="217" y="84"/>
      <point x="310" y="0" type="curve"/>
      <point x="363" y="0" type="line"/>
      <point x="263" y="86"/>
      <point x="206" y="203"/>
      <point x="206" y="331" type="curve" smooth="yes"/>
      <point x="206" y="345" type="line" smooth="yes"/>
      <point x="206" y="583"/>
      <point x="349" y="706"/>
      <point x="630" y="706" type="curve" smooth="yes"/>
      <point x="911" y="706"/>
      <point x="1054" y="583"/>
      <point x="1054" y="345" type="curve" smooth="yes"/>
      <point x="1054" y="331" type="line" smooth="yes"/>
      <point x="1054" y="206"/>
      <point x="995" y="89"/>
      <point x="891" y="5" type="curve"/>
      <point x="891" y="0" type="line"/>
      <point x="933" y="0" type="line"/>
      <point x="1038" y="84"/>
      <point x="1093" y="203"/>
      <point x="1093" y="331" type="curve" smooth="yes"/>
      <point x="1093" y="345" type="line" smooth="yes"/>
      <point x="1093" y="604"/>
      <point x="941" y="741"/>
    </contour>
    <contour>
      <point x="2371" y="1158" type="curve" smooth="yes"/>
      <point x="1836" y="1158"/>
      <point x="1563" y="879"/>
      <point x="1563" y="294" type="curve" smooth="yes"/>
      <point x="1563" y="280" type="line" smooth="yes"/>
      <point x="1563" y="-219"/>
      <point x="1711" y="-459"/>
      <point x="2019" y="-459" type="curve" smooth="yes"/>
      <point x="2251" y="-459"/>
      <point x="2364" y="-334"/>
      <point x="2364" y="-74" type="curve" smooth="yes"/>
      <point x="2364" y="959" type="line"/>
      <point x="2327" y="959" type="line"/>
      <point x="2327" y="16" type="line"/>
      <point x="2327" y="9" type="line"/>
      <point x="2327" y="-74" type="line" smooth="yes"/>
      <point x="2327" y="-312"/>
      <point x="2227" y="-425"/>
      <point x="2019" y="-425" type="curve" smooth="yes"/>
      <point x="1756" y="-425"/>
      <point x="1656" y="-218"/>
      <point x="1620" y="5" type="curve"/>
      <point x="1619" y="15" type="line"/>
      <point x="1617" y="25" type="line"/>
      <point x="1604" y="113"/>
      <point x="1601" y="202"/>
      <point x="1601" y="282" type="curve" smooth="yes" name="n14"/>
      <point x="1601" y="294" type="line" smooth="yes"/>
      <point x="1601" y="857"/>
      <point x="1861" y="1123"/>
      <point x="2371" y="1123" type="curve" smooth="yes"/>
      <point x="2811" y="1123"/>
      <point x="3041" y="959"/>
      <point x="3041" y="616" type="curve" smooth="yes"/>
      <point x="3041" y="609" type="line" smooth="yes"/>
      <point x="3041" y="407"/>
      <point x="2930" y="294"/>
      <point x="2714" y="290" type="curve" smooth="yes"/>
      <point x="2624" y="289" type="line"/>
      <point x="2624" y="256" type="line"/>
      <point x="2716" y="255" type="line" smooth="yes"/>
      <point x="2955" y="252"/>
      <point x="3078" y="147"/>
      <point x="3078" y="-55" type="curve" smooth="yes"/>
      <point x="3078" y="-65" type="line" smooth="yes"/>
      <point x="3078" y="-282"/>
      <point x="2957" y="-394"/>
      <point x="2719" y="-394" type="curve" smooth="yes"/>
      <point x="2672" y="-394"/>
      <point x="2617" y="-391"/>
      <point x="2559" y="-381" type="curve"/>
      <point x="2574" y="-418" type="line"/>
      <point x="2623" y="-426"/>
      <point x="2671" y="-429"/>
      <point x="2716" y="-429" type="curve" smooth="yes"/>
      <point x="2982" y="-429"/>
      <point x="3117" y="-307"/>
      <point x="3117" y="-65" type="curve" smooth="yes"/>
      <point x="3117" y="-55" type="line" smooth="yes"/>
      <point x="3117" y="130"/>
      <point x="3016" y="247"/>
      <point x="2821" y="273" type="curve"/>
      <point x="2821" y="275" type="line"/>
      <point x="2992" y="307"/>
      <point x="3080" y="414"/>
      <point x="3080" y="609" type="curve" smooth="yes"/>
      <point x="3080" y="616" type="line" smooth="yes"/>
      <point x="3080" y="982"/>
      <point x="2839" y="1158"/>
    </contour>
    <contour>
      <point x="947" y="32" type="line"/>
      <point x="889" y="0" type="line"/>
      <point x="1599" y="0" type="line"/>
      <point x="1611" y="0" type="line"/>
      <point x="2337" y="0" type="line"/>
      <point x="2339" y="32" type="line"/>
    </contour>
  </outline>
</glyph>
<glyph name="Ga.mlm" format="2">
  <advance width="2184"/>
  <unicode hex="0D17"/>
  <outline>
    <contour>
      <point x="1512" y="1153" type="curve" smooth="yes"/>
      <point x="1222" y="1153"/>
      <point x="1068" y="1002"/>
      <point x="1068" y="706" type="curve" smooth="yes"/>
      <point x="1068" y="599"/>
      <point x="1068" y="529"/>
      <point x="1068" y="422" type="curve" smooth="yes"/>
      <point x="1068" y="145"/>
      <point x="927" y="3"/>
      <point x="665" y="3" type="curve" smooth="yes"/>
      <point x="365" y="3"/>
      <point x="215" y="170"/>
      <point x="215" y="509" type="curve" smooth="yes"/>
      <point x="215" y="535" type="line" smooth="yes"/>
      <point x="215" y="781"/>
      <point x="313" y="968"/>
      <point x="484" y="1118" type="curve"/>
      <point x="431" y="1118" type="line"/>
      <point x="267" y="970"/>
      <point x="176" y="778"/>
      <point x="176" y="535" type="curve" smooth="yes"/>
      <point x="176" y="509" type="line" smooth="yes"/>
      <point x="176" y="152"/>
      <point x="337" y="-32"/>
      <point x="665" y="-32" type="curve" smooth="yes"/>
      <point x="950" y="-32"/>
      <point x="1105" y="123"/>
      <point x="1105" y="417" type="curve" smooth="yes"/>
      <point x="1105" y="524"/>
      <point x="1105" y="593"/>
      <point x="1105" y="700" type="curve" smooth="yes"/>
      <point x="1105" y="976"/>
      <point x="1246" y="1118"/>
      <point x="1512" y="1118" type="curve" smooth="yes"/>
      <point x="1817" y="1118"/>
      <point x="1969" y="950"/>
      <point x="1969" y="605" type="curve" smooth="yes"/>
      <point x="1969" y="579" type="line" smooth="yes"/>
      <point x="1969" y="333"/>
      <point x="1874" y="150"/>
      <point x="1707" y="0" type="curve"/>
      <point x="1761" y="0" type="line"/>
      <point x="1919" y="148"/>
      <point x="2008" y="336"/>
      <point x="2008" y="579" type="curve" smooth="yes"/>
      <point x="2008" y="605" type="line" smooth="yes"/>
      <point x="2008" y="969"/>
      <point x="1845" y="1153"/>
    </contour>
  </outline>
</glyph>
<glyph name="Nga.mlm" format="2">
  <advance width="2815"/>
  <unicode hex="0D19"/>
  <outline>
    <contour>
      <point x="1452" y="7" type="line"/>
      <point x="1489" y="7" type="line"/>
      <point x="1489" y="612" type="line"/>
      <point x="1452" y="612" type="line"/>
    </contour>
    <contour>
      <point x="848" y="1153" type="curve" smooth="yes"/>
      <point x="400.343" y="1153"/>
      <point x="174" y="926"/>
      <point x="174" y="465" type="curve" smooth="yes"/>
      <point x="174" y="444" type="line" smooth="yes"/>
      <point x="174" y="136"/>
      <point x="325" y="-32"/>
      <point x="609" y="-32" type="curve" smooth="yes"/>
      <point x="863" y="-32"/>
      <point x="1007" y="98"/>
      <point x="1007" y="327" type="curve" smooth="yes"/>
      <point x="1007" y="337" type="line" smooth="yes"/>
      <point x="1007" y="561"/>
      <point x="863" y="688"/>
      <point x="611" y="688" type="curve" smooth="yes"/>
      <point x="405" y="688"/>
      <point x="247" y="583"/>
      <point x="198" y="430" type="curve"/>
      <point x="212" y="414" type="line"/>
      <point x="274" y="559"/>
      <point x="412" y="653"/>
      <point x="611" y="653" type="curve" smooth="yes"/>
      <point x="838" y="653"/>
      <point x="968" y="538"/>
      <point x="968" y="337" type="curve" smooth="yes"/>
      <point x="968" y="327" type="line" smooth="yes"/>
      <point x="968" y="119"/>
      <point x="838" y="3"/>
      <point x="609" y="3" type="curve" smooth="yes"/>
      <point x="351" y="3"/>
      <point x="212" y="158"/>
      <point x="212" y="444" type="curve"/>
      <point x="212" y="445" type="line"/>
      <point x="219" y="466" type="line"/>
      <point x="212" y="466" type="line"/>
      <point x="212" y="466" type="line"/>
      <point x="212" y="904"/>
      <point x="426.348" y="1118"/>
      <point x="848" y="1118" type="curve" smooth="yes"/>
      <point x="1248" y="1118"/>
      <point x="1452" y="945"/>
      <point x="1452" y="639" type="curve" smooth="yes"/>
      <point x="1452" y="549" type="line"/>
      <point x="1466" y="549" type="line"/>
      <point x="1466" y="788" type="line"/>
      <point x="1401" y="1045"/>
      <point x="1162" y="1153"/>
    </contour>
    <contour>
      <point x="2051" y="1153" type="curve" smooth="yes"/>
      <point x="1718" y="1153"/>
      <point x="1519" y="1036"/>
      <point x="1468" y="788" type="curve"/>
      <point x="1458" y="788" type="line"/>
      <point x="1458" y="468" type="line"/>
      <point x="1489" y="468" type="line"/>
      <point x="1489" y="664" type="line" smooth="yes"/>
      <point x="1489" y="967"/>
      <point x="1674" y="1118"/>
      <point x="2049" y="1118" type="curve" smooth="yes"/>
      <point x="2395" y="1118"/>
      <point x="2571" y="1015"/>
      <point x="2571" y="820" type="curve" smooth="yes"/>
      <point x="2571" y="813" type="line" smooth="yes"/>
      <point x="2571" y="656"/>
      <point x="2454" y="577"/>
      <point x="2230" y="577" type="curve" smooth="yes"/>
      <point x="1964" y="577" type="line"/>
      <point x="1964" y="544" type="line"/>
      <point x="2234" y="544" type="line" smooth="yes"/>
      <point x="2477" y="544"/>
      <point x="2603" y="459"/>
      <point x="2603" y="294" type="curve" smooth="yes"/>
      <point x="2603" y="283" type="line" smooth="yes"/>
      <point x="2603" y="103"/>
      <point x="2475" y="12"/>
      <point x="2218" y="12" type="curve" smooth="yes"/>
      <point x="2112" y="12"/>
      <point x="1981" y="28"/>
      <point x="1868" y="67" type="curve"/>
      <point x="1875" y="30" type="line"/>
      <point x="1984" y="-7"/>
      <point x="2112" y="-23"/>
      <point x="2221" y="-23" type="curve" smooth="yes"/>
      <point x="2501" y="-23"/>
      <point x="2642" y="79"/>
      <point x="2642" y="283" type="curve" smooth="yes"/>
      <point x="2642" y="294" type="line" smooth="yes"/>
      <point x="2642" y="445"/>
      <point x="2543" y="539"/>
      <point x="2353" y="560" type="curve"/>
      <point x="2353" y="563" type="line"/>
      <point x="2522" y="586"/>
      <point x="2610" y="672"/>
      <point x="2610" y="813" type="curve" smooth="yes"/>
      <point x="2610" y="820" type="line" smooth="yes"/>
      <point x="2610" y="1040"/>
      <point x="2419" y="1153"/>
    </contour>
  </outline>
</glyph>
<glyph name="Ca.mlm" format="2">
  <advance width="2148"/>
  <unicode hex="0D1A"/>
  <outline>
    <contour>
      <point x="65" y="33" type="line"/>
      <point x="78" y="0" type="line"/>
      <point x="1880" y="0" type="line"/>
      <point x="1880" y="33" type="line"/>
    </contour>
    <contour>
      <point x="838" y="28" type="curve"/>
      <point x="886" y="12" type="line"/>
      <point x="1112" y="78"/>
      <point x="1246" y="239"/>
      <point x="1246" y="445" type="curve" smooth="yes"/>
      <point x="1246" y="468" type="line" smooth="yes"/>
      <point x="1246" y="726"/>
      <point x="1093" y="857"/>
      <point x="801" y="857" type="curve" smooth="yes"/>
      <point x="514" y="857"/>
      <point x="366" y="738"/>
      <point x="366" y="507" type="curve" smooth="yes"/>
      <point x="366" y="498" type="line" smooth="yes"/>
      <point x="366" y="430"/>
      <point x="385" y="367"/>
      <point x="414" y="322" type="curve"/>
      <point x="456" y="322" type="line"/>
      <point x="425" y="370"/>
      <point x="405" y="430"/>
      <point x="405" y="498" type="curve" smooth="yes"/>
      <point x="405" y="507" type="line" smooth="yes"/>
      <point x="405" y="715"/>
      <point x="537" y="822"/>
      <point x="801" y="822" type="curve" smooth="yes"/>
      <point x="1068" y="822"/>
      <point x="1207" y="703"/>
      <point x="1207" y="468" type="curve" smooth="yes"/>
      <point x="1207" y="445" type="line" smooth="yes" name="n15"/>
      <point x="1207" y="244"/>
      <point x="1068" y="92"/>
    </contour>
    <contour>
      <point x="1876" y="1123" type="line" name="n31"/>
      <point x="1876" y="0" type="line"/>
      <point x="1913" y="0" type="line" name="n33"/>
      <point x="1913" y="1123" type="line" name="n32"/>
    </contour>
  </outline>
</glyph>
<glyph name="Cha.mlm" format="2">
  <advance width="3344"/>
  <unicode hex="0D1B"/>
  <outline>
    <contour>
      <point x="65" y="33" type="line"/>
      <point x="78" y="0" type="line"/>
      <point x="1880" y="0" type="line"/>
      <point x="1880" y="33" type="line"/>
    </contour>
    <contour>
      <point x="838" y="28" type="curve"/>
      <point x="886" y="12" type="line"/>
      <point x="1112" y="78"/>
      <point x="1246" y="239"/>
      <point x="1246" y="445" type="curve" smooth="yes"/>
      <point x="1246" y="468" type="line" smooth="yes"/>
      <point x="1246" y="726"/>
      <point x="1093" y="857"/>
      <point x="801" y="857" type="curve" smooth="yes"/>
      <point x="514" y="857"/>
      <point x="366" y="738"/>
      <point x="366" y="507" type="curve" smooth="yes"/>
      <point x="366" y="498" type="line" smooth="yes"/>
      <point x="366" y="430"/>
      <point x="385" y="367"/>
      <point x="414" y="322" type="curve"/>
      <point x="456" y="322" type="line"/>
      <point x="425" y="370"/>
      <point x="405" y="430"/>
      <point x="405" y="498" type="curve" smooth="yes"/>
      <point x="405" y="507" type="line" smooth="yes"/>
      <point x="405" y="715"/>
      <point x="537" y="822"/>
      <point x="801" y="822" type="curve" smooth="yes"/>
      <point x="1068" y="822"/>
      <point x="1207" y="703"/>
      <point x="1207" y="468" type="curve" smooth="yes"/>
      <point x="1207" y="445" type="line" smooth="yes" name="n15"/>
      <point x="1207" y="244"/>
      <point x="1068" y="92"/>
    </contour>
    <contour>
      <point x="1879" y="33" type="line"/>
      <point x="1691" y="33" type="line"/>
      <point x="1691" y="0" type="line"/>
      <point x="1937" y="0" type="line"/>
    </contour>
    <contour>
      <point x="1712" y="496" type="line" smooth="yes"/>
      <point x="1712" y="302"/>
      <point x="1780" y="132"/>
      <point x="1893" y="0" type="curve"/>
      <point x="1937" y="0" type="line"/>
      <point x="1937" y="5" type="line"/>
      <point x="1822" y="135"/>
      <point x="1751" y="304"/>
      <point x="1751" y="496" type="curve" smooth="yes"/>
      <point x="1751" y="510" type="line" smooth="yes"/>
      <point x="1751" y="915"/>
      <point x="1979" y="1123"/>
      <point x="2447" y="1123" type="curve" smooth="yes"/>
      <point x="2886.16" y="1123"/>
      <point x="3105.73" y="914.85"/>
      <point x="3132" y="562" type="curve"/>
      <point x="3132" y="562" type="line"/>
      <point x="3123" y="562" type="line"/>
      <point x="3133" y="534" type="line"/>
      <point x="3133" y="495" type="line" smooth="yes"/>
      <point x="3133" y="173.694"/>
      <point x="3008.05" y="3"/>
      <point x="2740" y="3" type="curve" smooth="yes"/>
      <point x="2507.53" y="3"/>
      <point x="2364" y="124.062"/>
      <point x="2364" y="345" type="curve" smooth="yes"/>
      <point x="2364" y="356" type="line" smooth="yes"/>
      <point x="2364" y="572.861"/>
      <point x="2491.37" y="693"/>
      <point x="2737" y="693" type="curve" smooth="yes"/>
      <point x="2913.34" y="693"/>
      <point x="3039.29" y="632.478"/>
      <point x="3133" y="525" type="curve"/>
      <point x="3140" y="553" type="line"/>
      <point x="3056.38" y="655.083"/>
      <point x="2924.4" y="728"/>
      <point x="2737" y="728" type="curve" smooth="yes"/>
      <point x="2466.37" y="728"/>
      <point x="2325" y="595.869"/>
      <point x="2325" y="356" type="curve" smooth="yes"/>
      <point x="2325" y="345" type="line" smooth="yes"/>
      <point x="2325" y="104.083"/>
      <point x="2482.52" y="-32"/>
      <point x="2740" y="-32" type="curve" smooth="yes"/>
      <point x="3030.02" y="-32"/>
      <point x="3171" y="151.709"/>
      <point x="3171" y="486" type="curve" smooth="yes"/>
      <point x="3171" y="502" type="line" smooth="yes"/>
      <point x="3171" y="920.916"/>
      <point x="2928.62" y="1158"/>
      <point x="2447" y="1158" type="curve" smooth="yes"/>
      <point x="1952" y="1158"/>
      <point x="1712" y="938"/>
      <point x="1712" y="510" type="curve" smooth="yes"/>
    </contour>
  </outline>
</glyph>
<glyph name="Nya.mlm" format="2">
  <advance width="3626"/>
  <unicode hex="0D1E"/>
  <outline>
    <contour>
      <point x="844" y="1153" type="curve" smooth="yes"/>
      <point x="399" y="1153"/>
      <point x="174" y="926"/>
      <point x="174" y="465" type="curve" smooth="yes"/>
      <point x="174" y="444" type="line" smooth="yes"/>
      <point x="174" y="136"/>
      <point x="325" y="-32"/>
      <point x="609" y="-32" type="curve" smooth="yes"/>
      <point x="863" y="-32"/>
      <point x="1007" y="98"/>
      <point x="1007" y="327" type="curve" smooth="yes"/>
      <point x="1007" y="337" type="line" smooth="yes"/>
      <point x="1007" y="561"/>
      <point x="863" y="688"/>
      <point x="611" y="688" type="curve" smooth="yes"/>
      <point x="405" y="688"/>
      <point x="247" y="583"/>
      <point x="198" y="430" type="curve"/>
      <point x="212" y="414" type="line"/>
      <point x="274" y="559"/>
      <point x="412" y="653"/>
      <point x="611" y="653" type="curve" smooth="yes"/>
      <point x="838" y="653"/>
      <point x="968" y="538"/>
      <point x="968" y="337" type="curve" smooth="yes"/>
      <point x="968" y="327" type="line" smooth="yes"/>
      <point x="968" y="119"/>
      <point x="838" y="3"/>
      <point x="609" y="3" type="curve" smooth="yes"/>
      <point x="351" y="3"/>
      <point x="212" y="158"/>
      <point x="212" y="444" type="curve"/>
      <point x="212" y="445" type="line"/>
      <point x="219" y="466" type="line"/>
      <point x="212" y="466" type="line"/>
      <point x="212" y="466" type="line"/>
      <point x="212" y="904"/>
      <point x="425" y="1118"/>
      <point x="844" y="1118" type="curve" smooth="yes"/>
      <point x="1249" y="1118"/>
      <point x="1452" y="938"/>
      <point x="1452" y="621" type="curve" smooth="yes"/>
      <point x="1452" y="549" type="line"/>
      <point x="1466" y="549" type="line"/>
      <point x="1469" y="755" type="line"/>
      <point x="1411" y="1035"/>
      <point x="1180" y="1153"/>
    </contour>
    <contour>
      <point x="1452" y="7" type="line"/>
      <point x="1489" y="7" type="line"/>
      <point x="1489" y="612" type="line"/>
      <point x="1452" y="612" type="line"/>
    </contour>
    <contour>
      <point x="2063" y="1153" type="curve" smooth="yes"/>
      <point x="1746" y="1153"/>
      <point x="1526" y="1035"/>
      <point x="1471" y="755" type="curve"/>
      <point x="1462" y="755" type="line"/>
      <point x="1464" y="549" type="line"/>
      <point x="1489" y="549" type="line"/>
      <point x="1489" y="621" type="line" smooth="yes"/>
      <point x="1489" y="938"/>
      <point x="1683" y="1118"/>
      <point x="2063" y="1118" type="curve" smooth="yes"/>
      <point x="2177.48" y="1118"/>
      <point x="2285.88" y="1098"/>
      <point x="2373" y="1063" type="curve"/>
      <point x="2375" y="1063"/>
      <point x="2395" y="1056"/>
      <point x="2397" y="1056" type="curve"/>
      <point x="2638" y="950"/>
      <point x="2776" y="736"/>
      <point x="2776" y="470" type="curve" smooth="yes"/>
      <point x="2776" y="452" type="line" smooth="yes"/>
      <point x="2776" y="155"/>
      <point x="2647" y="3"/>
      <point x="2401" y="3" type="curve" smooth="yes"/>
      <point x="2155" y="3"/>
      <point x="2026" y="155"/>
      <point x="2026" y="452" type="curve" smooth="yes"/>
      <point x="2026" y="470" type="line" smooth="yes"/>
      <point x="2026" y="736"/>
      <point x="2164" y="950"/>
      <point x="2405" y="1056" type="curve"/>
      <point x="2407" y="1056"/>
      <point x="2427" y="1063"/>
      <point x="2429" y="1063" type="curve"/>
      <point x="2521" y="1098"/>
      <point x="2631" y="1118"/>
      <point x="2749" y="1118" type="curve" smooth="yes"/>
      <point x="3194" y="1118"/>
      <point x="3413" y="918"/>
      <point x="3413" y="524" type="curve" smooth="yes"/>
      <point x="3413" y="507" type="line" smooth="yes"/>
      <point x="3413" y="308"/>
      <point x="3341" y="137"/>
      <point x="3221" y="0" type="curve"/>
      <point x="3272" y="0" type="line"/>
      <point x="3383" y="137"/>
      <point x="3452" y="308"/>
      <point x="3452" y="507" type="curve" smooth="yes"/>
      <point x="3452" y="524" type="line" smooth="yes"/>
      <point x="3452" y="941"/>
      <point x="3219" y="1153"/>
      <point x="2749" y="1153" type="curve" smooth="yes"/>
      <point x="2615" y="1153"/>
      <point x="2491" y="1128"/>
      <point x="2387" y="1082" type="curve"/>
      <point x="2364" y="1074" type="line"/>
      <point x="2123" y="963"/>
      <point x="1987" y="745"/>
      <point x="1987" y="470" type="curve" smooth="yes"/>
      <point x="1987" y="452" type="line" smooth="yes"/>
      <point x="1987" y="132"/>
      <point x="2128" y="-32"/>
      <point x="2401" y="-32" type="curve" smooth="yes"/>
      <point x="2674" y="-32"/>
      <point x="2815" y="132"/>
      <point x="2815" y="452" type="curve" smooth="yes"/>
      <point x="2815" y="470" type="line" smooth="yes"/>
      <point x="2815" y="745"/>
      <point x="2679" y="963"/>
      <point x="2438" y="1074" type="curve"/>
      <point x="2415" y="1082" type="line"/>
      <point x="2314.86" y="1128"/>
      <point x="2192.47" y="1153"/>
    </contour>
  </outline>
</glyph>
<glyph name="Tta.mlm" format="2">
  <advance width="1448"/>
  <unicode hex="0D1F"/>
  <outline>
    <contour>
      <point x="748" y="-32" type="curve" smooth="yes"/>
      <point x="1111" y="-32"/>
      <point x="1294" y="72"/>
      <point x="1294" y="280" type="curve" smooth="yes"/>
      <point x="1294" y="285" type="line" smooth="yes"/>
      <point x="1294" y="491"/>
      <point x="1161" y="563"/>
      <point x="732" y="586" type="curve" smooth="yes"/>
      <point x="332" y="607"/>
      <point x="208" y="671"/>
      <point x="208" y="836" type="curve" smooth="yes"/>
      <point x="208" y="843" type="line" smooth="yes"/>
      <point x="208" y="1030"/>
      <point x="369" y="1120"/>
      <point x="695" y="1120" type="curve" smooth="yes"/>
      <point x="934" y="1120"/>
      <point x="1103" y="1072"/>
      <point x="1253" y="989" type="curve"/>
      <point x="1250" y="1030" type="line"/>
      <point x="1118" y="1107"/>
      <point x="941" y="1155"/>
      <point x="695" y="1155" type="curve" smooth="yes"/>
      <point x="341" y="1155"/>
      <point x="169" y="1052"/>
      <point x="169" y="843" type="curve" smooth="yes"/>
      <point x="169" y="836" type="line" smooth="yes"/>
      <point x="169" y="642"/>
      <point x="302" y="572"/>
      <point x="730" y="551" type="curve" smooth="yes"/>
      <point x="1133" y="532"/>
      <point x="1255" y="465"/>
      <point x="1255" y="285" type="curve" smooth="yes"/>
      <point x="1255" y="278" type="line" smooth="yes"/>
      <point x="1255" y="95"/>
      <point x="1084" y="3"/>
      <point x="748" y="3" type="curve" smooth="yes"/>
      <point x="495" y="3"/>
      <point x="301" y="78"/>
      <point x="146" y="187" type="curve"/>
      <point x="150" y="141" type="line"/>
      <point x="286" y="42"/>
      <point x="488" y="-32"/>
    </contour>
  </outline>
</glyph>
<glyph name="Ttha.mlm" format="2">
  <advance width="1645"/>
  <unicode hex="0D20"/>
  <outline>
    <contour>
      <point x="822" y="0" type="curve" smooth="yes"/>
      <point x="419" y="0"/>
      <point x="206" y="192"/>
      <point x="206" y="553" type="curve" smooth="yes"/>
      <point x="206" y="570" type="line" smooth="yes"/>
      <point x="206" y="931"/>
      <point x="419" y="1123"/>
      <point x="822" y="1123" type="curve" smooth="yes"/>
      <point x="1225" y="1123"/>
      <point x="1439" y="931"/>
      <point x="1439" y="570" type="curve" smooth="yes"/>
      <point x="1439" y="553" type="line" smooth="yes"/>
      <point x="1439" y="192"/>
      <point x="1225" y="0"/>
    </contour>
    <contour>
      <point x="822" y="-35" type="curve" smooth="yes"/>
      <point x="1251" y="-35"/>
      <point x="1478" y="168"/>
      <point x="1478" y="553" type="curve" smooth="yes"/>
      <point x="1478" y="570" type="line" smooth="yes"/>
      <point x="1478" y="955"/>
      <point x="1251" y="1158"/>
      <point x="822" y="1158" type="curve" smooth="yes"/>
      <point x="393" y="1158"/>
      <point x="167" y="955"/>
      <point x="167" y="570" type="curve" smooth="yes"/>
      <point x="167" y="553" type="line" smooth="yes"/>
      <point x="167" y="168"/>
      <point x="393" y="-35"/>
    </contour>
  </outline>
</glyph>
<glyph name="Dda.mlm" format="2">
  <advance width="3045"/>
  <unicode hex="0D21"/>
  <outline>
    <contour>
      <point x="1948" y="495" type="line"/>
      <point x="1948" y="1111" type="line"/>
      <point x="1911" y="1111" type="line"/>
      <point x="1911" y="495" type="line"/>
    </contour>
    <contour>
      <point x="1519" y="-32" type="curve" smooth="yes"/>
      <point x="1753" y="-32"/>
      <point x="1896" y="85"/>
      <point x="1929" y="310" type="curve"/>
      <point x="1941" y="310" type="line"/>
      <point x="1941" y="649" type="line"/>
      <point x="1911" y="649" type="line"/>
      <point x="1911" y="459" type="line" smooth="yes"/>
      <point x="1911" y="156"/>
      <point x="1779" y="3"/>
      <point x="1519" y="3" type="curve" smooth="yes"/>
      <point x="1257" y="3"/>
      <point x="1116" y="143"/>
      <point x="1116" y="428" type="curve" smooth="yes"/>
      <point x="1116" y="537"/>
      <point x="1116" y="602"/>
      <point x="1116" y="711" type="curve" smooth="yes"/>
      <point x="1116" y="1003"/>
      <point x="962" y="1153"/>
      <point x="670" y="1153" type="curve" smooth="yes"/>
      <point x="338" y="1153"/>
      <point x="176" y="969"/>
      <point x="176" y="605" type="curve" smooth="yes"/>
      <point x="176" y="579" type="line" smooth="yes"/>
      <point x="176" y="336"/>
      <point x="264" y="148"/>
      <point x="422" y="0" type="curve"/>
      <point x="477" y="0" type="line"/>
      <point x="310" y="150"/>
      <point x="215" y="333"/>
      <point x="215" y="579" type="curve" smooth="yes"/>
      <point x="215" y="605" type="line" smooth="yes"/>
      <point x="215" y="950"/>
      <point x="367" y="1118"/>
      <point x="670" y="1118" type="curve" smooth="yes"/>
      <point x="938" y="1118"/>
      <point x="1079" y="981"/>
      <point x="1079" y="706" type="curve" smooth="yes"/>
      <point x="1079" y="597"/>
      <point x="1079" y="531"/>
      <point x="1079" y="422" type="curve" smooth="yes"/>
      <point x="1079" y="119"/>
      <point x="1234" y="-32"/>
    </contour>
    <contour>
      <point x="1931" y="310" type="line"/>
      <point x="1971" y="85"/>
      <point x="2120" y="-32"/>
      <point x="2373" y="-32" type="curve" smooth="yes"/>
      <point x="2704" y="-32"/>
      <point x="2869" y="158"/>
      <point x="2869" y="526" type="curve" smooth="yes"/>
      <point x="2869" y="542" type="line" smooth="yes"/>
      <point x="2869" y="780"/>
      <point x="2780" y="968"/>
      <point x="2634" y="1118" type="curve"/>
      <point x="2583" y="1118" type="line"/>
      <point x="2736" y="968"/>
      <point x="2830" y="780"/>
      <point x="2830" y="542" type="curve" smooth="yes"/>
      <point x="2830" y="526" type="line" smooth="yes"/>
      <point x="2830" y="180"/>
      <point x="2677" y="3"/>
      <point x="2371" y="3" type="curve" smooth="yes"/>
      <point x="2089" y="3"/>
      <point x="1948" y="155"/>
      <point x="1948" y="459" type="curve" smooth="yes"/>
      <point x="1948" y="637" type="line"/>
      <point x="1931" y="637" type="line"/>
    </contour>
  </outline>
</glyph>
<glyph name="Nna.mlm" format="2">
  <advance width="3469"/>
  <unicode hex="0D23"/>
  <outline>
    <contour>
      <point x="1452" y="7" type="line"/>
      <point x="1489" y="7" type="line"/>
      <point x="1489" y="612" type="line"/>
      <point x="1452" y="612" type="line"/>
    </contour>
    <contour>
      <point x="848" y="1153" type="curve" smooth="yes"/>
      <point x="400.343" y="1153"/>
      <point x="174" y="926"/>
      <point x="174" y="465" type="curve" smooth="yes"/>
      <point x="174" y="444" type="line" smooth="yes"/>
      <point x="174" y="136"/>
      <point x="325" y="-32"/>
      <point x="609" y="-32" type="curve" smooth="yes"/>
      <point x="863" y="-32"/>
      <point x="1007" y="98"/>
      <point x="1007" y="327" type="curve" smooth="yes"/>
      <point x="1007" y="337" type="line" smooth="yes"/>
      <point x="1007" y="561"/>
      <point x="863" y="688"/>
      <point x="611" y="688" type="curve" smooth="yes"/>
      <point x="405" y="688"/>
      <point x="247" y="583"/>
      <point x="198" y="430" type="curve"/>
      <point x="212" y="414" type="line"/>
      <point x="274" y="559"/>
      <point x="412" y="653"/>
      <point x="611" y="653" type="curve" smooth="yes"/>
      <point x="838" y="653"/>
      <point x="968" y="538"/>
      <point x="968" y="337" type="curve" smooth="yes"/>
      <point x="968" y="327" type="line" smooth="yes"/>
      <point x="968" y="119"/>
      <point x="838" y="3"/>
      <point x="609" y="3" type="curve" smooth="yes"/>
      <point x="351" y="3"/>
      <point x="212" y="158"/>
      <point x="212" y="444" type="curve"/>
      <point x="212" y="445" type="line"/>
      <point x="219" y="466" type="line"/>
      <point x="212" y="466" type="line"/>
      <point x="212" y="466" type="line"/>
      <point x="212" y="904"/>
      <point x="426.348" y="1118"/>
      <point x="848" y="1118" type="curve" smooth="yes"/>
      <point x="1248" y="1118"/>
      <point x="1452" y="945"/>
      <point x="1452" y="639" type="curve" smooth="yes"/>
      <point x="1452" y="549" type="line"/>
      <point x="1466" y="549" type="line"/>
      <point x="1466" y="788" type="line"/>
      <point x="1401" y="1045"/>
      <point x="1162" y="1153"/>
    </contour>
    <contour>
      <point x="2316" y="621" type="line"/>
      <point x="2316" y="7" type="line"/>
      <point x="2353" y="7" type="line"/>
      <point x="2353" y="621" type="line"/>
    </contour>
    <contour>
      <point x="2334" y="806" type="line"/>
      <point x="2299" y="1035"/>
      <point x="2153" y="1153"/>
      <point x="1903" y="1153" type="curve" smooth="yes"/>
      <point x="1653" y="1153"/>
      <point x="1508" y="1036"/>
      <point x="1468" y="788" type="curve"/>
      <point x="1458" y="788" type="line"/>
      <point x="1458" y="468" type="line"/>
      <point x="1489" y="468" type="line"/>
      <point x="1489" y="656" type="line" smooth="yes"/>
      <point x="1489" y="962"/>
      <point x="1627" y="1118"/>
      <point x="1903" y="1118" type="curve" smooth="yes"/>
      <point x="2179" y="1118"/>
      <point x="2316" y="962"/>
      <point x="2316" y="656" type="curve" smooth="yes"/>
      <point x="2316" y="480" type="line"/>
      <point x="2334" y="480" type="line"/>
    </contour>
    <contour>
      <point x="2353" y="468" type="line"/>
      <point x="2353" y="656" type="line" smooth="yes"/>
      <point x="2353" y="962"/>
      <point x="2496" y="1118"/>
      <point x="2779" y="1118" type="curve" smooth="yes"/>
      <point x="3097" y="1118"/>
      <point x="3254" y="936"/>
      <point x="3254" y="584" type="curve" smooth="yes"/>
      <point x="3254" y="568" type="line" smooth="yes"/>
      <point x="3254" y="332"/>
      <point x="3163" y="144"/>
      <point x="3013" y="0" type="curve"/>
      <point x="3068" y="0" type="line"/>
      <point x="3207" y="146"/>
      <point x="3293" y="329"/>
      <point x="3293" y="568" type="curve" smooth="yes"/>
      <point x="3293" y="584" type="line" smooth="yes"/>
      <point x="3293" y="959"/>
      <point x="3123" y="1153"/>
      <point x="2781" y="1153" type="curve" smooth="yes"/>
      <point x="2528" y="1153"/>
      <point x="2378" y="1033"/>
      <point x="2336" y="806" type="curve"/>
      <point x="2323" y="806" type="line"/>
      <point x="2323" y="468" type="line"/>
    </contour>
  </outline>
</glyph>
<glyph name="Ta.mlm" format="2">
  <advance width="2450"/>
  <unicode hex="0D24"/>
  <outline>
    <contour>
      <point x="1225" y="-32" type="curve" smooth="yes"/>
      <point x="1498" y="-32"/>
      <point x="1639" y="132"/>
      <point x="1639" y="452" type="curve" smooth="yes"/>
      <point x="1639" y="470" type="line" smooth="yes"/>
      <point x="1639" y="745"/>
      <point x="1503" y="963"/>
      <point x="1262" y="1074" type="curve"/>
      <point x="1239" y="1082" type="line"/>
      <point x="1133" y="1128"/>
      <point x="1009" y="1153"/>
      <point x="873" y="1153" type="curve" smooth="yes"/>
      <point x="405" y="1153"/>
      <point x="174" y="941"/>
      <point x="174" y="524" type="curve" smooth="yes"/>
      <point x="174" y="507" type="line" smooth="yes"/>
      <point x="174" y="308"/>
      <point x="243" y="137"/>
      <point x="354" y="0" type="curve"/>
      <point x="405" y="0" type="line"/>
      <point x="285" y="137"/>
      <point x="213" y="308"/>
      <point x="213" y="507" type="curve" smooth="yes"/>
      <point x="213" y="524" type="line" smooth="yes"/>
      <point x="213" y="918"/>
      <point x="429" y="1118"/>
      <point x="873" y="1118" type="curve" smooth="yes"/>
      <point x="993" y="1118"/>
      <point x="1104" y="1098"/>
      <point x="1197" y="1063" type="curve"/>
      <point x="1221" y="1056" type="line"/>
      <point x="1462" y="950"/>
      <point x="1600" y="736"/>
      <point x="1600" y="470" type="curve" smooth="yes"/>
      <point x="1600" y="452" type="line" smooth="yes"/>
      <point x="1600" y="155"/>
      <point x="1471" y="3"/>
      <point x="1225" y="3" type="curve" smooth="yes"/>
      <point x="979" y="3"/>
      <point x="850" y="155"/>
      <point x="850" y="452" type="curve" smooth="yes"/>
      <point x="850" y="470" type="line" smooth="yes"/>
      <point x="850" y="736"/>
      <point x="987" y="950"/>
      <point x="1228" y="1056" type="curve"/>
      <point x="1253" y="1063" type="line"/>
      <point x="1345" y="1098"/>
      <point x="1455" y="1118"/>
      <point x="1573" y="1118" type="curve" smooth="yes"/>
      <point x="2018" y="1118"/>
      <point x="2237" y="918"/>
      <point x="2237" y="524" type="curve" smooth="yes"/>
      <point x="2237" y="507" type="line" smooth="yes"/>
      <point x="2237" y="308"/>
      <point x="2165" y="137"/>
      <point x="2045" y="0" type="curve"/>
      <point x="2096" y="0" type="line"/>
      <point x="2207" y="137"/>
      <point x="2276" y="308"/>
      <point x="2276" y="507" type="curve" smooth="yes"/>
      <point x="2276" y="524" type="line" smooth="yes"/>
      <point x="2276" y="941"/>
      <point x="2043" y="1153"/>
      <point x="1573" y="1153" type="curve" smooth="yes"/>
      <point x="1439" y="1153"/>
      <point x="1315" y="1128"/>
      <point x="1211" y="1082" type="curve"/>
      <point x="1188" y="1074" type="line"/>
      <point x="947" y="963"/>
      <point x="811" y="745"/>
      <point x="811" y="470" type="curve" smooth="yes"/>
      <point x="811" y="452" type="line" smooth="yes"/>
      <point x="811" y="132"/>
      <point x="952" y="-32"/>
    </contour>
  </outline>
</glyph>
<glyph name="Da.mlm" format="2">
  <advance width="1681"/>
  <unicode hex="0D26"/>
  <outline>
    <contour>
      <point x="1476" y="820" type="line" smooth="yes"/>
      <point x="1476" y="1044"/>
      <point x="1283" y="1158"/>
      <point x="908" y="1158" type="curve" smooth="yes"/>
      <point x="420" y="1158"/>
      <point x="179" y="946"/>
      <point x="179" y="532" type="curve" smooth="yes"/>
      <point x="179" y="509" type="line" smooth="yes"/>
      <point x="179" y="310"/>
      <point x="237" y="137"/>
      <point x="325" y="0" type="curve"/>
      <point x="373" y="0" type="line"/>
      <point x="278" y="137"/>
      <point x="218" y="310"/>
      <point x="218" y="509" type="curve" smooth="yes"/>
      <point x="218" y="532" type="line" smooth="yes"/>
      <point x="218" y="923"/>
      <point x="443" y="1123"/>
      <point x="908" y="1123" type="curve" smooth="yes"/>
      <point x="1260" y="1123"/>
      <point x="1437" y="1019"/>
      <point x="1437" y="820" type="curve" smooth="yes"/>
      <point x="1437" y="813" type="line" smooth="yes"/>
      <point x="1437" y="656"/>
      <point x="1321" y="577"/>
      <point x="1096" y="577" type="curve" smooth="yes"/>
      <point x="820" y="577" type="line"/>
      <point x="820" y="544" type="line"/>
      <point x="1099" y="544" type="line" smooth="yes"/>
      <point x="1342" y="544"/>
      <point x="1469" y="459"/>
      <point x="1469" y="294" type="curve" smooth="yes"/>
      <point x="1469" y="283" type="line" smooth="yes"/>
      <point x="1469" y="103"/>
      <point x="1339" y="12"/>
      <point x="1082" y="12" type="curve" smooth="yes"/>
      <point x="976" y="12"/>
      <point x="846" y="28"/>
      <point x="733" y="67" type="curve"/>
      <point x="740" y="30" type="line"/>
      <point x="849" y="-7"/>
      <point x="976" y="-23"/>
      <point x="1085" y="-23" type="curve" smooth="yes"/>
      <point x="1365" y="-23"/>
      <point x="1508" y="79"/>
      <point x="1508" y="283" type="curve" smooth="yes"/>
      <point x="1508" y="294" type="line" smooth="yes"/>
      <point x="1508" y="445"/>
      <point x="1409" y="539"/>
      <point x="1219" y="560" type="curve"/>
      <point x="1219" y="563" type="line"/>
      <point x="1388" y="586"/>
      <point x="1476" y="672"/>
      <point x="1476" y="813" type="curve" smooth="yes"/>
    </contour>
  </outline>
</glyph>
<glyph name="Dha.mlm" format="2">
  <advance width="2265"/>
  <unicode hex="0D27"/>
  <outline>
    <contour>
      <point x="1151" y="495" type="line"/>
      <point x="1151" y="1111" type="line"/>
      <point x="1114" y="1111" type="line"/>
      <point x="1114" y="495" type="line"/>
    </contour>
    <contour>
      <point x="1114" y="649" type="line"/>
      <point x="1114" y="459" type="line" smooth="yes"/>
      <point x="1114" y="156"/>
      <point x="970" y="3"/>
      <point x="681" y="3" type="curve" smooth="yes"/>
      <point x="370" y="3"/>
      <point x="215" y="181"/>
      <point x="215" y="526" type="curve" smooth="yes"/>
      <point x="215" y="542" type="line" smooth="yes"/>
      <point x="215" y="780"/>
      <point x="308" y="968"/>
      <point x="461" y="1118" type="curve"/>
      <point x="410" y="1118" type="line"/>
      <point x="262" y="968"/>
      <point x="176" y="780"/>
      <point x="176" y="542" type="curve" smooth="yes"/>
      <point x="176" y="526" type="line" smooth="yes"/>
      <point x="176" y="158"/>
      <point x="344" y="-32"/>
      <point x="679" y="-32" type="curve" smooth="yes"/>
      <point x="939" y="-32"/>
      <point x="1091" y="85"/>
      <point x="1131" y="310" type="curve"/>
      <point x="1144" y="310" type="line"/>
      <point x="1144" y="649" type="line"/>
    </contour>
    <contour>
      <point x="1133" y="310" type="line"/>
      <point x="1173" y="85"/>
      <point x="1326" y="-32"/>
      <point x="1586" y="-32" type="curve" smooth="yes"/>
      <point x="1921" y="-32"/>
      <point x="2089" y="158"/>
      <point x="2089" y="526" type="curve" smooth="yes"/>
      <point x="2089" y="542" type="line" smooth="yes"/>
      <point x="2089" y="780"/>
      <point x="2001" y="968"/>
      <point x="1855" y="1118" type="curve"/>
      <point x="1804" y="1118" type="line"/>
      <point x="1957" y="968"/>
      <point x="2050" y="780"/>
      <point x="2050" y="542" type="curve" smooth="yes"/>
      <point x="2050" y="526" type="line" smooth="yes"/>
      <point x="2050" y="181"/>
      <point x="1895" y="3"/>
      <point x="1584" y="3" type="curve" smooth="yes"/>
      <point x="1295" y="3"/>
      <point x="1151" y="156"/>
      <point x="1151" y="459" type="curve" smooth="yes"/>
      <point x="1151" y="637" type="line"/>
      <point x="1133" y="637" type="line"/>
    </contour>
  </outline>
</glyph>
<glyph name="Na.mlm" format="2">
  <advance width="2289"/>
  <unicode hex="0D28"/>
  <outline>
    <contour>
      <point x="1126" y="621" type="line"/>
      <point x="1126" y="7" type="line"/>
      <point x="1163" y="7" type="line"/>
      <point x="1163" y="621" type="line"/>
    </contour>
    <contour>
      <point x="176" y="584" type="curve" smooth="yes"/>
      <point x="176" y="568" type="line" smooth="yes"/>
      <point x="176" y="329"/>
      <point x="262" y="146"/>
      <point x="401" y="0" type="curve"/>
      <point x="456" y="0" type="line"/>
      <point x="306" y="144"/>
      <point x="215" y="332"/>
      <point x="215" y="568" type="curve" smooth="yes"/>
      <point x="215" y="584" type="line" smooth="yes"/>
      <point x="215" y="936"/>
      <point x="372" y="1118"/>
      <point x="695" y="1118" type="curve" smooth="yes"/>
      <point x="982" y="1118"/>
      <point x="1126" y="962"/>
      <point x="1126" y="656" type="curve" smooth="yes"/>
      <point x="1126" y="480" type="line"/>
      <point x="1144" y="480" type="line"/>
      <point x="1144" y="799" type="line"/>
      <point x="1104" y="1031"/>
      <point x="952" y="1153"/>
      <point x="693" y="1153" type="curve" smooth="yes"/>
      <point x="346" y="1153"/>
      <point x="176" y="959"/>
    </contour>
    <contour>
      <point x="1163" y="468" type="line"/>
      <point x="1163" y="656" type="line" smooth="yes"/>
      <point x="1163" y="962"/>
      <point x="1307" y="1118"/>
      <point x="1594" y="1118" type="curve" smooth="yes"/>
      <point x="1915" y="1118"/>
      <point x="2074" y="936"/>
      <point x="2074" y="584" type="curve" smooth="yes"/>
      <point x="2074" y="568" type="line" smooth="yes"/>
      <point x="2074" y="332"/>
      <point x="1983" y="144"/>
      <point x="1833" y="0" type="curve"/>
      <point x="1888" y="0" type="line"/>
      <point x="2027" y="146"/>
      <point x="2113" y="329"/>
      <point x="2113" y="568" type="curve" smooth="yes"/>
      <point x="2113" y="584" type="line" smooth="yes"/>
      <point x="2113" y="959"/>
      <point x="1942" y="1153"/>
      <point x="1596" y="1153" type="curve" smooth="yes"/>
      <point x="1337" y="1153"/>
      <point x="1186" y="1031"/>
      <point x="1146" y="799" type="curve"/>
      <point x="1133" y="799" type="line"/>
      <point x="1133" y="468" type="line"/>
    </contour>
  </outline>
</glyph>
<glyph name="Nnna.mlm" format="2">
  <advance width="2636"/>
  <unicode hex="0D29"/>
  <outline>
    <contour>
      <point x="1452" y="7" type="line"/>
      <point x="1489" y="7" type="line"/>
      <point x="1489" y="612" type="line"/>
      <point x="1452" y="612" type="line"/>
    </contour>
    <contour>
      <point x="848" y="1153" type="curve" smooth="yes"/>
      <point x="400.343" y="1153"/>
      <point x="174" y="926"/>
      <point x="174" y="465" type="curve" smooth="yes"/>
      <point x="174" y="444" type="line" smooth="yes"/>
      <point x="174" y="136"/>
      <point x="325" y="-32"/>
      <point x="609" y="-32" type="curve" smooth="yes"/>
      <point x="863" y="-32"/>
      <point x="1007" y="98"/>
      <point x="1007" y="327" type="curve" smooth="yes"/>
      <point x="1007" y="337" type="line" smooth="yes"/>
      <point x="1007" y="561"/>
      <point x="863" y="688"/>
      <point x="611" y="688" type="curve" smooth="yes"/>
      <point x="405" y="688"/>
      <point x="247" y="583"/>
      <point x="198" y="430" type="curve"/>
      <point x="212" y="414" type="line"/>
      <point x="274" y="559"/>
      <point x="412" y="653"/>
      <point x="611" y="653" type="curve" smooth="yes"/>
      <point x="838" y="653"/>
      <point x="968" y="538"/>
      <point x="968" y="337" type="curve" smooth="yes"/>
      <point x="968" y="327" type="line" smooth="yes"/>
      <point x="968" y="119"/>
      <point x="838" y="3"/>
      <point x="609" y="3" type="curve" smooth="yes"/>
      <point x="351" y="3"/>
      <point x="212" y="158"/>
      <point x="212" y="444" type="curve"/>
      <point x="212" y="445" type="line"/>
      <point x="219" y="466" type="line"/>
      <point x="212" y="466" type="line"/>
      <point x="212" y="466" type="line"/>
      <point x="212" y="904"/>
      <point x="426.348" y="1118"/>
      <point x="848" y="1118" type="curve" smooth="yes"/>
      <point x="1248" y="1118"/>
      <point x="1452" y="945"/>
      <point x="1452" y="639" type="curve" smooth="yes"/>
      <point x="1452" y="549" type="line"/>
      <point x="1466" y="549" type="line"/>
      <point x="1466" y="788" type="line"/>
      <point x="1401" y="1045"/>
      <point x="1162" y="1153"/>
    </contour>
    <contour>
      <point x="1930" y="1118" type="curve" smooth="yes"/>
      <point x="2256" y="1118"/>
      <point x="2421" y="936"/>
      <point x="2421" y="584" type="curve" smooth="yes"/>
      <point x="2421" y="568" type="line" smooth="yes"/>
      <point x="2421" y="332"/>
      <point x="2328" y="144"/>
      <point x="2171" y="0" type="curve"/>
      <point x="2226" y="0" type="line"/>
      <point x="2372" y="146"/>
      <point x="2460" y="329"/>
      <point x="2460" y="568" type="curve" smooth="yes"/>
      <point x="2460" y="584" type="line" smooth="yes"/>
      <point x="2460" y="959"/>
      <point x="2283" y="1153"/>
      <point x="1932" y="1153" type="curve" smooth="yes"/>
      <point x="1668" y="1153"/>
      <point x="1511" y="1034"/>
      <point x="1467" y="788" type="curve"/>
      <point x="1457" y="788" type="line"/>
      <point x="1457" y="468" type="line"/>
      <point x="1489" y="468" type="line"/>
      <point x="1489" y="656" type="line" smooth="yes"/>
      <point x="1489" y="962"/>
      <point x="1638" y="1118"/>
    </contour>
  </outline>
</glyph>
<glyph name="Ba.mlm" format="2">
  <advance width="3359"/>
  <unicode hex="0D2C"/>
  <outline>
    <contour>
      <point x="1452" y="7" type="line"/>
      <point x="1489" y="7" type="line"/>
      <point x="1489" y="612" type="line"/>
      <point x="1452" y="612" type="line"/>
    </contour>
    <contour>
      <point x="848" y="1153" type="curve" smooth="yes"/>
      <point x="400.343" y="1153"/>
      <point x="174" y="926"/>
      <point x="174" y="465" type="curve" smooth="yes"/>
      <point x="174" y="444" type="line" smooth="yes"/>
      <point x="174" y="136"/>
      <point x="325" y="-32"/>
      <point x="609" y="-32" type="curve" smooth="yes"/>
      <point x="863" y="-32"/>
      <point x="1007" y="98"/>
      <point x="1007" y="327" type="curve" smooth="yes"/>
      <point x="1007" y="337" type="line" smooth="yes"/>
      <point x="1007" y="561"/>
      <point x="863" y="688"/>
      <point x="611" y="688" type="curve" smooth="yes"/>
      <point x="405" y="688"/>
      <point x="247" y="583"/>
      <point x="198" y="430" type="curve"/>
      <point x="212" y="414" type="line"/>
      <point x="274" y="559"/>
      <point x="412" y="653"/>
      <point x="611" y="653" type="curve" smooth="yes"/>
      <point x="838" y="653"/>
      <point x="968" y="538"/>
      <point x="968" y="337" type="curve" smooth="yes"/>
      <point x="968" y="327" type="line" smooth="yes"/>
      <point x="968" y="119"/>
      <point x="838" y="3"/>
      <point x="609" y="3" type="curve" smooth="yes"/>
      <point x="351" y="3"/>
      <point x="212" y="158"/>
      <point x="212" y="444" type="curve"/>
      <point x="212" y="445" type="line"/>
      <point x="219" y="466" type="line"/>
      <point x="212" y="466" type="line"/>
      <point x="212" y="466" type="line"/>
      <point x="212" y="904"/>
      <point x="426.348" y="1118"/>
      <point x="848" y="1118" type="curve" smooth="yes"/>
      <point x="1248" y="1118"/>
      <point x="1452" y="945"/>
      <point x="1452" y="639" type="curve" smooth="yes"/>
      <point x="1452" y="549" type="line"/>
      <point x="1466" y="549" type="line"/>
      <point x="1466" y="788" type="line"/>
      <point x="1401" y="1045"/>
      <point x="1162" y="1153"/>
    </contour>
    <contour>
      <point x="1931" y="1118" type="curve" smooth="yes"/>
      <point x="2257" y="1118"/>
      <point x="2422" y="939"/>
      <point x="2422" y="591" type="curve" smooth="yes"/>
      <point x="2422" y="576" type="line" smooth="yes"/>
      <point x="2422" y="340"/>
      <point x="2332" y="153"/>
      <point x="2172" y="5" type="curve"/>
      <point x="2172" y="0" type="line"/>
      <point x="2218" y="0" type="line"/>
      <point x="2375" y="150"/>
      <point x="2461" y="333"/>
      <point x="2461" y="576" type="curve" smooth="yes"/>
      <point x="2461" y="591" type="line" smooth="yes"/>
      <point x="2461" y="962"/>
      <point x="2284" y="1153"/>
      <point x="1933" y="1153" type="curve" smooth="yes"/>
      <point x="1669" y="1153"/>
      <point x="1514" y="1036"/>
      <point x="1468" y="788" type="curve"/>
      <point x="1458" y="788" type="line"/>
      <point x="1458" y="468" type="line"/>
      <point x="1489" y="468" type="line"/>
      <point x="1489" y="656" type="line" smooth="yes"/>
      <point x="1489" y="962"/>
      <point x="1637" y="1118"/>
    </contour>
    <contour>
      <point x="3087" y="1123" type="line"/>
      <point x="3087" y="0" type="line"/>
      <point x="3124" y="0" type="line"/>
      <point x="3124" y="1123" type="line"/>
    </contour>
    <contour>
      <point x="2230" y="33" type="line"/>
      <point x="2172" y="0" type="line"/>
      <point x="3094" y="0" type="line"/>
      <point x="3094" y="33" type="line"/>
    </contour>
  </outline>
</glyph>
<glyph name="Ya.mlm" format="2">
  <advance width="2517"/>
  <unicode hex="0D2F"/>
  <outline>
    <contour>
      <point x="1297" y="67" type="curve"/>
      <point x="1278" y="58" type="line"/>
      <point x="1178" y="18"/>
      <point x="1061" y="0"/>
      <point x="929" y="0" type="curve" smooth="yes"/>
      <point x="464" y="0"/>
      <point x="215" y="220"/>
      <point x="215" y="660" type="curve" smooth="yes"/>
      <point x="215" y="685" type="line" smooth="yes"/>
      <point x="215" y="965"/>
      <point x="339" y="1118"/>
      <point x="568" y="1118" type="curve" smooth="yes"/>
      <point x="767" y="1118"/>
      <point x="857" y="1008"/>
      <point x="899" y="760" type="curve" smooth="yes"/>
      <point x="922" y="625" type="line" smooth="yes"/>
      <point x="970" y="342"/>
      <point x="1081" y="150"/>
      <point x="1280" y="48" type="curve" smooth="yes"/>
      <point x="1297" y="39" type="line"/>
      <point x="1408" y="-10"/>
      <point x="1542" y="-35"/>
      <point x="1697" y="-35" type="curve" smooth="yes"/>
      <point x="2130" y="-35"/>
      <point x="2344" y="167"/>
      <point x="2344" y="568" type="curve" smooth="yes"/>
      <point x="2344" y="591" type="line" smooth="yes"/>
      <point x="2344" y="811"/>
      <point x="2265" y="982"/>
      <point x="2126" y="1118" type="curve"/>
      <point x="2075" y="1118" type="line"/>
      <point x="2219" y="981"/>
      <point x="2305" y="815"/>
      <point x="2305" y="591" type="curve" smooth="yes"/>
      <point x="2305" y="568" type="line" smooth="yes"/>
      <point x="2305" y="190"/>
      <point x="2105" y="0"/>
      <point x="1697" y="0" type="curve" smooth="yes"/>
      <point x="1560" y="0"/>
      <point x="1440" y="20"/>
      <point x="1338" y="60" type="curve"/>
      <point x="1322" y="67" type="line"/>
      <point x="1120" y="162"/>
      <point x="1007" y="350"/>
      <point x="959" y="632" type="curve" smooth="yes"/>
      <point x="936" y="767" type="line"/>
      <point x="931" y="802"/>
      <point x="924" y="836"/>
      <point x="917" y="866" type="curve"/>
      <point x="913" y="878" type="line"/>
      <point x="864" y="1063"/>
      <point x="764" y="1153"/>
      <point x="567" y="1153" type="curve" smooth="yes"/>
      <point x="314" y="1153"/>
      <point x="176" y="988"/>
      <point x="176" y="685" type="curve" smooth="yes"/>
      <point x="176" y="660" type="line" smooth="yes"/>
      <point x="176" y="197"/>
      <point x="440" y="-35"/>
      <point x="929" y="-35" type="curve" smooth="yes"/>
      <point x="1075" y="-35"/>
      <point x="1205" y="-10"/>
      <point x="1316" y="39" type="curve" smooth="yes"/>
      <point x="1332" y="46" type="line" smooth="yes"/>
      <point x="1438" y="94"/>
      <point x="1522" y="164"/>
      <point x="1589" y="252" type="curve" smooth="yes"/>
      <point x="1677" y="372"/>
      <point x="1730" y="525"/>
      <point x="1730" y="713" type="curve" smooth="yes"/>
      <point x="1730" y="1002"/>
      <point x="1579" y="1153"/>
      <point x="1320" y="1153" type="curve" smooth="yes"/>
      <point x="1110" y="1153"/>
      <point x="975" y="1056"/>
      <point x="905" y="903" type="curve"/>
      <point x="889" y="903" type="line"/>
      <point x="919" y="852" type="line"/>
      <point x="981" y="1014"/>
      <point x="1111" y="1118"/>
      <point x="1320" y="1118" type="curve" smooth="yes"/>
      <point x="1554" y="1118"/>
      <point x="1691" y="979"/>
      <point x="1691" y="713" type="curve" smooth="yes"/>
      <point x="1691" y="537"/>
      <point x="1645" y="393"/>
      <point x="1566" y="280" type="curve" smooth="yes"/>
      <point x="1499" y="187"/>
      <point x="1410" y="115"/>
    </contour>
  </outline>
</glyph>
<glyph name="Ra.mlm" format="2">
  <advance width="1807"/>
  <unicode hex="0D30"/>
  <outline>
    <contour>
      <point x="910" y="1123" type="curve" smooth="yes"/>
      <point x="1348.52" y="1123"/>
      <point x="1567.96" y="914.85"/>
      <point x="1594.19" y="562" type="curve"/>
      <point x="1594.19" y="562" type="line"/>
      <point x="1585.19" y="562" type="line"/>
      <point x="1595.19" y="534" type="line"/>
      <point x="1595.19" y="495" type="line" smooth="yes"/>
      <point x="1595.19" y="173.694"/>
      <point x="1470.23" y="3"/>
      <point x="1202.19" y="3" type="curve" smooth="yes"/>
      <point x="969.714" y="3"/>
      <point x="826.187" y="124.062"/>
      <point x="826.187" y="345" type="curve" smooth="yes"/>
      <point x="826.187" y="356" type="line" smooth="yes"/>
      <point x="826.187" y="572.861"/>
      <point x="953.553" y="693"/>
      <point x="1199.19" y="693" type="curve" smooth="yes"/>
      <point x="1375.52" y="693"/>
      <point x="1501.48" y="632.478"/>
      <point x="1595.19" y="525" type="curve"/>
      <point x="1602.19" y="553" type="line"/>
      <point x="1518.56" y="655.083"/>
      <point x="1386.58" y="728"/>
      <point x="1199.19" y="728" type="curve" smooth="yes"/>
      <point x="928.56" y="728"/>
      <point x="787.187" y="595.869"/>
      <point x="787.187" y="356" type="curve" smooth="yes"/>
      <point x="787.187" y="345" type="line" smooth="yes"/>
      <point x="787.187" y="104.083"/>
      <point x="944.706" y="-32"/>
      <point x="1202.19" y="-32" type="curve" smooth="yes"/>
      <point x="1492.21" y="-32"/>
      <point x="1633.19" y="151.709"/>
      <point x="1633.19" y="486" type="curve" smooth="yes"/>
      <point x="1633.19" y="502" type="line" smooth="yes"/>
      <point x="1633.19" y="920.916"/>
      <point x="1390.95" y="1158"/>
      <point x="910" y="1158" type="curve" smooth="yes"/>
      <point x="415" y="1158"/>
      <point x="174" y="938"/>
      <point x="174" y="510" type="curve" smooth="yes"/>
      <point x="174" y="496" type="line" smooth="yes"/>
      <point x="174" y="304"/>
      <point x="243" y="132"/>
      <point x="352" y="0" type="curve"/>
      <point x="403" y="0" type="line"/>
      <point x="285" y="132"/>
      <point x="213" y="304"/>
      <point x="213" y="496" type="curve" smooth="yes"/>
      <point x="213" y="510" type="line" smooth="yes"/>
      <point x="213" y="915"/>
      <point x="441" y="1123"/>
    </contour>
  </outline>
</glyph>
<glyph name="Rra.mlm" format="2">
  <advance width="1654"/>
  <unicode hex="0D31"/>
  <outline>
    <contour>
      <point x="827" y="1123" type="curve" smooth="yes"/>
      <point x="1229" y="1123"/>
      <point x="1439" y="927"/>
      <point x="1439" y="561" type="curve" smooth="yes"/>
      <point x="1439" y="546" type="line" smooth="yes"/>
      <point x="1439" y="321"/>
      <point x="1348" y="137"/>
      <point x="1198" y="0" type="curve"/>
      <point x="1253" y="0" type="line"/>
      <point x="1392" y="139"/>
      <point x="1478" y="317"/>
      <point x="1478" y="546" type="curve" smooth="yes"/>
      <point x="1478" y="561" type="line" smooth="yes"/>
      <point x="1478" y="952"/>
      <point x="1255" y="1158"/>
      <point x="827" y="1158" type="curve" smooth="yes"/>
      <point x="399" y="1158"/>
      <point x="176" y="952"/>
      <point x="176" y="561" type="curve" smooth="yes"/>
      <point x="176" y="546" type="line" smooth="yes"/>
      <point x="176" y="317"/>
      <point x="262" y="139"/>
      <point x="401" y="0" type="curve"/>
      <point x="456" y="0" type="line"/>
      <point x="306" y="137"/>
      <point x="215" y="321"/>
      <point x="215" y="546" type="curve" smooth="yes"/>
      <point x="215" y="561" type="line" smooth="yes"/>
      <point x="215" y="927"/>
      <point x="425" y="1123"/>
    </contour>
  </outline>
</glyph>
<glyph name="La.mlm" format="2">
  <advance width="2113"/>
  <unicode hex="0D32"/>
  <outline>
    <contour>
      <point x="1237" y="494" type="line"/>
      <point x="254" y="494" type="line"/>
      <point x="254" y="652" type="line" smooth="yes"/>
      <point x="254" y="959"/>
      <point x="426" y="1120"/>
      <point x="748" y="1120" type="curve" smooth="yes"/>
      <point x="1070" y="1120"/>
      <point x="1237" y="959"/>
      <point x="1237" y="652" type="curve" smooth="yes"/>
    </contour>
    <contour>
      <point x="217" y="0" type="line"/>
      <point x="1878" y="0" type="line"/>
      <point x="1878" y="1123" type="line"/>
      <point x="1841" y="1123" type="line"/>
      <point x="1841" y="33" type="line"/>
      <point x="254" y="33" type="line"/>
      <point x="254" y="461" type="line"/>
      <point x="1274" y="461" type="line"/>
      <point x="1274" y="652" type="line" smooth="yes"/>
      <point x="1274" y="983"/>
      <point x="1095" y="1155"/>
      <point x="748" y="1155" type="curve" smooth="yes"/>
      <point x="401" y="1155"/>
      <point x="217" y="983"/>
      <point x="217" y="652" type="curve" smooth="yes"/>
    </contour>
  </outline>
</glyph>
<glyph name="Ssa.mlm" format="2">
  <advance width="2887"/>
  <unicode hex="0D37"/>
  <outline>
    <contour>
      <point x="630" y="741" type="curve" smooth="yes"/>
      <point x="319" y="741"/>
      <point x="167" y="604"/>
      <point x="167" y="345" type="curve" smooth="yes"/>
      <point x="167" y="331" type="line" smooth="yes"/>
      <point x="167" y="203"/>
      <point x="217" y="84"/>
      <point x="310" y="0" type="curve"/>
      <point x="363" y="0" type="line"/>
      <point x="263" y="86"/>
      <point x="206" y="203"/>
      <point x="206" y="331" type="curve" smooth="yes"/>
      <point x="206" y="345" type="line" smooth="yes"/>
      <point x="206" y="583"/>
      <point x="349" y="706"/>
      <point x="630" y="706" type="curve" smooth="yes"/>
      <point x="911" y="706"/>
      <point x="1054" y="583"/>
      <point x="1054" y="345" type="curve" smooth="yes"/>
      <point x="1054" y="331" type="line" smooth="yes"/>
      <point x="1054" y="206"/>
      <point x="995" y="89"/>
      <point x="891" y="5" type="curve"/>
      <point x="891" y="0" type="line"/>
      <point x="933" y="0" type="line"/>
      <point x="1038" y="84"/>
      <point x="1093" y="203"/>
      <point x="1093" y="331" type="curve" smooth="yes"/>
      <point x="1093" y="345" type="line" smooth="yes"/>
      <point x="1093" y="604"/>
      <point x="941" y="741"/>
    </contour>
    <contour>
      <point x="926" y="0" type="line"/>
      <point x="2652" y="0" type="line"/>
      <point x="2652" y="1123" type="line"/>
      <point x="2615" y="1123" type="line"/>
      <point x="2615" y="32" type="line"/>
      <point x="952" y="32" type="line"/>
    </contour>
    <contour>
      <point x="2090" y="806" type="line" smooth="yes"/>
      <point x="2090" y="687"/>
      <point x="2046" y="580"/>
      <point x="1973" y="460" type="curve"/>
      <point x="1971" y="457"/>
      <point x="1970" y="455"/>
      <point x="1968" y="452" type="curve"/>
      <point x="1705" y="18" type="line"/>
      <point x="1742" y="11" type="line"/>
      <point x="2005" y="446" type="line"/>
      <point x="2008" y="450"/>
      <point x="2010" y="455"/>
      <point x="2013" y="459" type="curve"/>
      <point x="2083" y="577"/>
      <point x="2128" y="684"/>
      <point x="2128" y="806" type="curve" smooth="yes"/>
      <point x="2128" y="813" type="line" smooth="yes"/>
      <point x="2128" y="1035"/>
      <point x="1989" y="1153"/>
      <point x="1716" y="1153" type="curve" smooth="yes"/>
      <point x="1443" y="1153"/>
      <point x="1302" y="1028"/>
      <point x="1302" y="796" type="curve" smooth="yes"/>
      <point x="1302" y="790" type="line" smooth="yes"/>
      <point x="1302" y="552"/>
      <point x="1490" y="430"/>
      <point x="1851" y="430" type="curve" smooth="yes"/>
      <point x="1878" y="430" type="line" smooth="yes"/>
      <point x="1908" y="430"/>
      <point x="1937" y="432"/>
      <point x="1969" y="434" type="curve" smooth="yes"/>
      <point x="2214" y="448"/>
      <point x="2448" y="516"/>
      <point x="2622" y="616" type="curve"/>
      <point x="2626" y="655" type="line"/>
      <point x="2455" y="555"/>
      <point x="2221" y="486"/>
      <point x="1987" y="468" type="curve"/>
      <point x="1952" y="464"/>
      <point x="1915" y="465"/>
      <point x="1880" y="465" type="curve" smooth="yes"/>
      <point x="1853" y="465" type="line" smooth="yes"/>
      <point x="1516" y="465"/>
      <point x="1340" y="577"/>
      <point x="1340" y="790" type="curve" smooth="yes"/>
      <point x="1340" y="796" type="line" smooth="yes"/>
      <point x="1340" y="1006"/>
      <point x="1467" y="1119"/>
      <point x="1716" y="1119" type="curve" smooth="yes"/>
      <point x="1965" y="1119"/>
      <point x="2090" y="1011"/>
      <point x="2090" y="813" type="curve" smooth="yes"/>
    </contour>
  </outline>
</glyph>
<glyph name="Sa.mlm" format="2">
  <advance width="3067"/>
  <unicode hex="0D38"/>
  <outline>
    <contour>
      <point x="176" y="584" type="curve" smooth="yes"/>
      <point x="176" y="568" type="line" smooth="yes"/>
      <point x="176" y="329"/>
      <point x="262" y="146"/>
      <point x="401" y="0" type="curve"/>
      <point x="456" y="0" type="line"/>
      <point x="306" y="144"/>
      <point x="215" y="332"/>
      <point x="215" y="568" type="curve" smooth="yes"/>
      <point x="215" y="584" type="line" smooth="yes"/>
      <point x="215" y="936"/>
      <point x="372" y="1118"/>
      <point x="690" y="1118" type="curve" smooth="yes"/>
      <point x="973" y="1118"/>
      <point x="1116" y="962"/>
      <point x="1116" y="656" type="curve" smooth="yes"/>
      <point x="1116" y="480" type="line"/>
      <point x="1133" y="480" type="line"/>
      <point x="1133" y="806" type="line"/>
      <point x="1091" y="1033"/>
      <point x="941" y="1153"/>
      <point x="688" y="1153" type="curve" smooth="yes"/>
      <point x="346" y="1153"/>
      <point x="176" y="959"/>
    </contour>
    <contour>
      <point x="1116" y="623" type="line"/>
      <point x="1116" y="7" type="line"/>
      <point x="1153" y="7" type="line"/>
      <point x="1153" y="623" type="line"/>
    </contour>
    <contour>
      <point x="1559" y="1118" type="curve" smooth="yes"/>
      <point x="1825" y="1118"/>
      <point x="1973" y="956"/>
      <point x="1973" y="676" type="curve" smooth="yes"/>
      <point x="1973" y="579"/>
      <point x="1973" y="526"/>
      <point x="1973" y="429" type="curve" smooth="yes"/>
      <point x="1973" y="132"/>
      <point x="2131" y="-32"/>
      <point x="2427" y="-32" type="curve" smooth="yes"/>
      <point x="2739" y="-32"/>
      <point x="2891" y="150"/>
      <point x="2891" y="509" type="curve" smooth="yes"/>
      <point x="2891" y="535" type="line" smooth="yes"/>
      <point x="2891" y="778"/>
      <point x="2800" y="970"/>
      <point x="2636" y="1118" type="curve"/>
      <point x="2583" y="1118" type="line"/>
      <point x="2754" y="968"/>
      <point x="2852" y="781"/>
      <point x="2852" y="535" type="curve" smooth="yes"/>
      <point x="2852" y="509" type="line" smooth="yes"/>
      <point x="2852" y="169"/>
      <point x="2711" y="3"/>
      <point x="2427" y="3" type="curve" smooth="yes"/>
      <point x="2154" y="3"/>
      <point x="2010" y="150"/>
      <point x="2010" y="435" type="curve" smooth="yes"/>
      <point x="2010" y="532"/>
      <point x="2010" y="584"/>
      <point x="2010" y="681" type="curve" smooth="yes"/>
      <point x="2010" y="980"/>
      <point x="1855" y="1153"/>
      <point x="1561" y="1153" type="curve" smooth="yes"/>
      <point x="1315" y="1153"/>
      <point x="1172" y="1031"/>
      <point x="1135" y="806" type="curve"/>
      <point x="1123" y="806" type="line"/>
      <point x="1123" y="468" type="line"/>
      <point x="1153" y="468" type="line"/>
      <point x="1153" y="656" type="line" smooth="yes"/>
      <point x="1153" y="962"/>
      <point x="1288" y="1118"/>
    </contour>
  </outline>
</glyph>
<glyph name="Ha.mlm" format="2">
  <advance width="2935"/>
  <unicode hex="0D39"/>
  <outline>
    <contour>
      <point x="630" y="741" type="curve" smooth="yes"/>
      <point x="319" y="741"/>
      <point x="167" y="604"/>
      <point x="167" y="345" type="curve" smooth="yes"/>
      <point x="167" y="331" type="line" smooth="yes"/>
      <point x="167" y="203"/>
      <point x="217" y="84"/>
      <point x="310" y="0" type="curve"/>
      <point x="363" y="0" type="line"/>
      <point x="263" y="86"/>
      <point x="206" y="203"/>
      <point x="206" y="331" type="curve" smooth="yes"/>
      <point x="206" y="345" type="line" smooth="yes"/>
      <point x="206" y="583"/>
      <point x="349" y="706"/>
      <point x="630" y="706" type="curve" smooth="yes"/>
      <point x="911" y="706"/>
      <point x="1054" y="583"/>
      <point x="1054" y="345" type="curve" smooth="yes"/>
      <point x="1054" y="331" type="line" smooth="yes"/>
      <point x="1054" y="206"/>
      <point x="995" y="89"/>
      <point x="891" y="5" type="curve"/>
      <point x="891" y="0" type="line"/>
      <point x="933" y="0" type="line"/>
      <point x="1038" y="84"/>
      <point x="1093" y="203"/>
      <point x="1093" y="331" type="curve" smooth="yes"/>
      <point x="1093" y="345" type="line" smooth="yes"/>
      <point x="1093" y="604"/>
      <point x="941" y="741"/>
    </contour>
    <contour>
      <point x="935" y="33" type="line"/>
      <point x="891" y="0" type="line"/>
      <point x="1814" y="0" type="line"/>
      <point x="1762" y="33" type="line"/>
    </contour>
    <contour>
      <point x="2147" y="1123" type="curve" smooth="yes"/>
      <point x="2524" y="1123"/>
      <point x="2720" y="927"/>
      <point x="2720" y="561" type="curve" smooth="yes"/>
      <point x="2720" y="546" type="line" smooth="yes"/>
      <point x="2720" y="321"/>
      <point x="2629" y="137"/>
      <point x="2483" y="0" type="curve"/>
      <point x="2537" y="0" type="line"/>
      <point x="2673" y="139"/>
      <point x="2759" y="317"/>
      <point x="2759" y="546" type="curve" smooth="yes"/>
      <point x="2759" y="561" type="line" smooth="yes"/>
      <point x="2759" y="952"/>
      <point x="2551" y="1158"/>
      <point x="2147" y="1158" type="curve" smooth="yes"/>
      <point x="1743" y="1158"/>
      <point x="1535" y="952"/>
      <point x="1535" y="561" type="curve" smooth="yes"/>
      <point x="1535" y="546" type="line" smooth="yes"/>
      <point x="1535" y="317"/>
      <point x="1624" y="139"/>
      <point x="1765" y="0" type="curve"/>
      <point x="1814" y="0" type="line"/>
      <point x="1814" y="5" type="line"/>
      <point x="1666" y="142"/>
      <point x="1574" y="324"/>
      <point x="1574" y="546" type="curve" smooth="yes"/>
      <point x="1574" y="561" type="line" smooth="yes"/>
      <point x="1574" y="927"/>
      <point x="1770" y="1123"/>
    </contour>
  </outline>
</glyph>
<glyph name="Ttta.mlm" format="2">
  <advance width="1857"/>
  <unicode hex="0D3A"/>
  <outline>
    <contour>
      <point x="235" y="1123" type="line" name="n32"/>
      <point x="235" y="0" type="line" name="n33"/>
      <point x="272" y="0" type="line"/>
      <point x="272" y="1123" type="line" name="n31"/>
    </contour>
    <contour>
      <point x="1804" y="33" type="line"/>
      <point x="269" y="33" type="line"/>
      <point x="269" y="0" type="line"/>
      <point x="1792" y="0" type="line"/>
    </contour>
    <contour>
      <point x="1059" y="12" type="line" name="n31"/>
      <point x="1024" y="12" type="line" name="n32"/>
      <point x="1024" y="-428" type="line" name="n33"/>
      <point x="1059" y="-428" type="line"/>
    </contour>
  </outline>
</glyph>
<glyph name="matraRu.mlm" format="2">
  <advance width="658"/>
  <unicode hex="0D43"/>
  <outline>
    <contour>
      <point x="220" y="-581" type="curve" smooth="yes" name="n03"/>
      <point x="445" y="-581"/>
      <point x="570" y="-467"/>
      <point x="570" y="-253" type="curve" smooth="yes"/>
      <point x="570" y="-241" type="line" smooth="yes"/>
      <point x="570" y="88"/>
      <point x="324" y="321"/>
      <point x="324" y="711" type="curve" smooth="yes"/>
      <point x="324" y="876"/>
      <point x="352" y="988"/>
      <point x="394" y="1123" type="curve"/>
      <point x="358" y="1123" type="line"/>
      <point x="311" y="988"/>
      <point x="285" y="876"/>
      <point x="285" y="711" type="curve" smooth="yes"/>
      <point x="285" y="354"/>
      <point x="483" y="125"/>
      <point x="523" y="-141" type="curve"/>
      <point x="525" y="-157" type="line" smooth="yes"/>
      <point x="528" y="-184"/>
      <point x="531" y="-213"/>
      <point x="531" y="-241" type="curve" smooth="yes"/>
      <point x="531" y="-253" type="line" smooth="yes"/>
      <point x="531" y="-441"/>
      <point x="420" y="-546"/>
      <point x="220" y="-546" type="curve" smooth="yes"/>
      <point x="20" y="-546"/>
      <point x="-91" y="-454"/>
      <point x="-91" y="-292" type="curve" smooth="yes"/>
      <point x="-91" y="-282" type="line" smooth="yes"/>
      <point x="-91" y="-122"/>
      <point x="17" y="-35"/>
      <point x="211" y="-35" type="curve" smooth="yes"/>
      <point x="349" y="-35"/>
      <point x="464" y="-86"/>
      <point x="538" y="-185" type="curve"/>
      <point x="541" y="-123" type="line"/>
      <point x="520" y="-123" type="line"/>
      <point x="458" y="-51"/>
      <point x="347" y="0"/>
      <point x="211" y="0" type="curve" smooth="yes" name="n03"/>
      <point x="-11" y="0"/>
      <point x="-130" y="-101"/>
      <point x="-130" y="-282" type="curve" smooth="yes"/>
      <point x="-130" y="-292" type="line" smooth="yes"/>
      <point x="-130" y="-478"/>
      <point x="-5" y="-581"/>
    </contour>
  </outline>
</glyph>
<glyph name="chilluM.mlm" format="2">
  <advance width="1772"/>
  <unicode hex="0D54"/>
  <outline>
    <contour>
      <point x="237" y="33" type="line"/>
      <point x="235" y="0" type="line"/>
      <point x="1546" y="0" type="line"/>
      <point x="1546" y="33" type="line"/>
    </contour>
    <contour>
      <point x="1555" y="519" type="line" smooth="yes"/>
      <point x="1555" y="876"/>
      <point x="1382" y="1006"/>
      <point x="1382" y="1302" type="curve" smooth="yes"/>
      <point x="1382" y="1395"/>
      <point x="1401.29" y="1487"/>
      <point x="1464" y="1582" type="curve"/>
      <point x="1426" y="1582" type="line"/>
      <point x="1370" y="1496"/>
      <point x="1345" y="1399"/>
      <point x="1345" y="1304" type="curve" smooth="yes"/>
      <point x="1345" y="1163"/>
      <point x="1386" y="1049"/>
      <point x="1435" y="942" type="curve"/>
      <point x="1432" y="940" type="line"/>
      <point x="1325" y="1090"/>
      <point x="1134" y="1158"/>
      <point x="886" y="1158" type="curve" smooth="yes"/>
      <point x="444" y="1158"/>
      <point x="217" y="943"/>
      <point x="217" y="519" type="curve" smooth="yes"/>
      <point x="217" y="0" type="line"/>
      <point x="254" y="0" type="line"/>
      <point x="254" y="519" type="line" smooth="yes"/>
      <point x="254" y="920"/>
      <point x="465" y="1123"/>
      <point x="886" y="1123" type="curve" smooth="yes"/>
      <point x="1305" y="1123"/>
      <point x="1518" y="922"/>
      <point x="1518" y="519" type="curve" smooth="yes"/>
      <point x="1518" y="0" type="line"/>
      <point x="1555" y="0" type="line"/>
    </contour>
    <contour>
      <point x="1011" y="652" type="line" smooth="yes"/>
      <point x="1011" y="924.191"/>
      <point x="871.346" y="1077"/>
      <point x="625" y="1077" type="curve" smooth="yes"/>
      <point x="576.085" y="1077"/>
      <point x="522.915" y="1068.33"/>
      <point x="474" y="1051" type="curve"/>
      <point x="464" y="1021" type="line"/>
      <point x="516.778" y="1038.33"/>
      <point x="567.444" y="1047"/>
      <point x="616" y="1047" type="curve" smooth="yes"/>
      <point x="842.467" y="1047"/>
      <point x="972" y="905.181"/>
      <point x="972" y="652" type="curve" smooth="yes"/>
      <point x="972" y="645" type="line" smooth="yes" name="n15"/>
      <point x="972" y="343.218"/>
      <point x="764.6" y="121.015"/>
      <point x="454" y="28" type="curve"/>
      <point x="498" y="14" type="line"/>
      <point x="805.6" y="104.881"/>
      <point x="1011" y="338.278"/>
      <point x="1011" y="645" type="curve" smooth="yes"/>
    </contour>
  </outline>
</glyph>
<glyph name="chilluY.mlm" format="2">
  <advance width="2476"/>
  <unicode hex="0D55"/>
  <outline>
    <contour>
      <point x="922" y="625" type="line" smooth="yes"/>
      <point x="970" y="342"/>
      <point x="1081" y="150"/>
      <point x="1280" y="48" type="curve" smooth="yes"/>
      <point x="1297" y="39" type="line"/>
      <point x="1408" y="-10"/>
      <point x="1542" y="-35"/>
      <point x="1697" y="-35" type="curve" smooth="yes"/>
      <point x="2105" y="-35"/>
      <point x="2309" y="153"/>
      <point x="2309" y="480" type="curve" smooth="yes"/>
      <point x="2309" y="797"/>
      <point x="2117" y="952"/>
      <point x="2117" y="1239" type="curve" smooth="yes"/>
      <point x="2117" y="1355"/>
      <point x="2154" y="1455"/>
      <point x="2253" y="1582" type="curve"/>
      <point x="2212" y="1582" type="line"/>
      <point x="2119" y="1475"/>
      <point x="2079" y="1359"/>
      <point x="2079" y="1239" type="curve" smooth="yes"/>
      <point x="2079" y="950"/>
      <point x="2270" y="792"/>
      <point x="2270" y="480" type="curve" smooth="yes"/>
      <point x="2270" y="176"/>
      <point x="2081" y="-2"/>
      <point x="1697" y="-2" type="curve" smooth="yes"/>
      <point x="1560" y="-2"/>
      <point x="1440" y="20"/>
      <point x="1338" y="60" type="curve"/>
      <point x="1322" y="67" type="line"/>
      <point x="1120" y="162"/>
      <point x="1007" y="350"/>
      <point x="959" y="632" type="curve" smooth="yes"/>
      <point x="936" y="767" type="line" smooth="yes"/>
      <point x="930" y="802"/>
      <point x="924" y="836"/>
      <point x="917" y="866" type="curve"/>
      <point x="913" y="878" type="line"/>
      <point x="864" y="1063"/>
      <point x="764" y="1153"/>
      <point x="567" y="1153" type="curve" smooth="yes"/>
      <point x="314" y="1153"/>
      <point x="176" y="988"/>
      <point x="176" y="685" type="curve" smooth="yes"/>
      <point x="176" y="660" type="line" smooth="yes"/>
      <point x="176" y="197"/>
      <point x="440" y="-35"/>
      <point x="929" y="-35" type="curve" smooth="yes"/>
      <point x="1075" y="-35"/>
      <point x="1205" y="-10"/>
      <point x="1316" y="39" type="curve" smooth="yes"/>
      <point x="1332" y="46" type="line" smooth="yes"/>
      <point x="1438" y="94"/>
      <point x="1522" y="164"/>
      <point x="1589" y="252" type="curve" smooth="yes"/>
      <point x="1677" y="372"/>
      <point x="1730" y="525"/>
      <point x="1730" y="713" type="curve" smooth="yes"/>
      <point x="1730" y="1002"/>
      <point x="1579" y="1153"/>
      <point x="1320" y="1153" type="curve" smooth="yes"/>
      <point x="1110" y="1153"/>
      <point x="975" y="1056"/>
      <point x="905" y="903" type="curve"/>
      <point x="889" y="903" type="line"/>
      <point x="919" y="852" type="line"/>
      <point x="981" y="1014"/>
      <point x="1111" y="1118"/>
      <point x="1320" y="1118" type="curve" smooth="yes"/>
      <point x="1554" y="1118"/>
      <point x="1691" y="979"/>
      <point x="1691" y="713" type="curve" smooth="yes"/>
      <point x="1691" y="537"/>
      <point x="1645" y="393"/>
      <point x="1566" y="280" type="curve" smooth="yes"/>
      <point x="1499" y="187"/>
      <point x="1410" y="115"/>
      <point x="1297" y="67" type="curve"/>
      <point x="1278" y="58" type="line"/>
      <point x="1178" y="18"/>
      <point x="1061" y="-2"/>
      <point x="929" y="-2" type="curve" smooth="yes"/>
      <point x="464" y="-2"/>
      <point x="215" y="220"/>
      <point x="215" y="660" type="curve" smooth="yes"/>
      <point x="215" y="685" type="line" smooth="yes"/>
      <point x="215" y="965"/>
      <point x="339" y="1118"/>
      <point x="568" y="1118" type="curve" smooth="yes"/>
      <point x="767" y="1118"/>
      <point x="857" y="1008"/>
      <point x="899" y="760" type="curve" smooth="yes"/>
    </contour>
  </outline>
</glyph>
<glyph name="lengthAu.mlm" format="2">
  <advance width="1833"/>
  <unicode hex="0D57"/>
  <outline>
    <contour>
      <point x="949" y="12" type="curve" smooth="yes"/>
      <point x="833" y="12"/>
      <point x="688" y="32"/>
      <point x="567" y="81" type="curve"/>
      <point x="580" y="39" type="line"/>
      <point x="700" y="-5"/>
      <point x="829" y="-23"/>
      <point x="949" y="-23" type="curve" smooth="yes"/>
      <point x="1424" y="-23"/>
      <point x="1664" y="210"/>
      <point x="1664" y="669" type="curve" smooth="yes"/>
      <point x="1664" y="695" type="line" smooth="yes"/>
      <point x="1664" y="994"/>
      <point x="1529" y="1153"/>
      <point x="1254" y="1153" type="curve" smooth="yes"/>
      <point x="1057" y="1153"/>
      <point x="943" y="1062"/>
      <point x="910" y="884" type="curve"/>
      <point x="909" y="884" type="line"/>
      <point x="876" y="1062"/>
      <point x="754" y="1153"/>
      <point x="543" y="1153" type="curve" smooth="yes"/>
      <point x="284" y="1153"/>
      <point x="152" y="999"/>
      <point x="152" y="774" type="curve" smooth="yes"/>
      <point x="152" y="759" type="line" smooth="yes"/>
      <point x="152" y="645"/>
      <point x="182" y="548"/>
      <point x="221" y="479" type="curve"/>
      <point x="268" y="479" type="line"/>
      <point x="226" y="546"/>
      <point x="191" y="646"/>
      <point x="191" y="759" type="curve" smooth="yes"/>
      <point x="191" y="774" type="line" smooth="yes"/>
      <point x="191" y="976"/>
      <point x="310" y="1118"/>
      <point x="544" y="1118" type="curve" smooth="yes"/>
      <point x="773" y="1118"/>
      <point x="891" y="990"/>
      <point x="891" y="744" type="curve" smooth="yes"/>
      <point x="891" y="496" type="line"/>
      <point x="928" y="496" type="line"/>
      <point x="928" y="744" type="line" smooth="yes"/>
      <point x="928" y="990"/>
      <point x="1036" y="1118"/>
      <point x="1252" y="1118" type="curve" smooth="yes"/>
      <point x="1502" y="1118"/>
      <point x="1625" y="971"/>
      <point x="1625" y="695" type="curve" smooth="yes"/>
      <point x="1625" y="669" type="line" smooth="yes"/>
      <point x="1625" y="231"/>
      <point x="1393" y="12"/>
    </contour>
  </outline>
</glyph>
<glyph name="oneonehundredandsixtieth.mlm" format="2">
  <advance width="3099"/>
  <unicode hex="0D58"/>
  <outline>
    <contour>
      <point x="1098" y="495" type="line"/>
      <point x="1135" y="495" type="line"/>
      <point x="1135" y="1111" type="line"/>
      <point x="1098" y="1111" type="line"/>
    </contour>
    <contour>
      <point x="1116" y="310" type="curve"/>
      <point x="1116" y="637" type="line"/>
      <point x="1098" y="637" type="line"/>
      <point x="1098" y="459" type="line" smooth="yes"/>
      <point x="1098" y="156"/>
      <point x="961" y="3"/>
      <point x="685" y="3" type="curve" smooth="yes"/>
      <point x="371" y="3"/>
      <point x="215" y="181"/>
      <point x="215" y="526" type="curve" smooth="yes"/>
      <point x="215" y="542" type="line" smooth="yes"/>
      <point x="215" y="780"/>
      <point x="308" y="968"/>
      <point x="461" y="1118" type="curve"/>
      <point x="410" y="1118" type="line"/>
      <point x="264" y="968"/>
      <point x="176" y="780"/>
      <point x="176" y="542" type="curve" smooth="yes"/>
      <point x="176" y="526" type="line" smooth="yes"/>
      <point x="176" y="158"/>
      <point x="344" y="-32"/>
      <point x="683" y="-32" type="curve" smooth="yes"/>
      <point x="931" y="-32"/>
      <point x="1076" y="85"/>
    </contour>
    <contour>
      <point x="1540" y="-32" type="curve" smooth="yes"/>
      <point x="1781" y="-32"/>
      <point x="1927" y="85"/>
      <point x="1962" y="310" type="curve"/>
      <point x="1975" y="310" type="line"/>
      <point x="1975" y="649" type="line"/>
      <point x="1945" y="649" type="line"/>
      <point x="1945" y="459" type="line" smooth="yes"/>
      <point x="1945" y="156"/>
      <point x="1809" y="3"/>
      <point x="1540" y="3" type="curve" smooth="yes"/>
      <point x="1271" y="3"/>
      <point x="1135" y="156"/>
      <point x="1135" y="459" type="curve" smooth="yes"/>
      <point x="1135" y="649" type="line"/>
      <point x="1105" y="649" type="line"/>
      <point x="1105" y="310" type="line"/>
      <point x="1118" y="310" type="line"/>
      <point x="1151" y="85"/>
      <point x="1299" y="-32"/>
    </contour>
    <contour>
      <point x="1982" y="495" type="line"/>
      <point x="1982" y="1111" type="line"/>
      <point x="1945" y="1111" type="line"/>
      <point x="1945" y="495" type="line"/>
    </contour>
    <contour>
      <point x="2884" y="597" type="line" smooth="yes"/>
      <point x="2884" y="206"/>
      <point x="2727" y="3"/>
      <point x="2406" y="3" type="curve" smooth="yes"/>
      <point x="2124" y="3"/>
      <point x="1982" y="156"/>
      <point x="1982" y="459" type="curve" smooth="yes"/>
      <point x="1982" y="637" type="line"/>
      <point x="1964" y="637" type="line"/>
      <point x="1964" y="310" type="line"/>
      <point x="2004" y="85"/>
      <point x="2155" y="-32"/>
      <point x="2408" y="-32" type="curve" smooth="yes"/>
      <point x="2754" y="-32"/>
      <point x="2923" y="183"/>
      <point x="2923" y="597" type="curve" smooth="yes"/>
      <point x="2923" y="614" type="line" smooth="yes"/>
      <point x="2923" y="1221"/>
      <point x="2537" y="1544"/>
      <point x="1813" y="1544" type="curve" smooth="yes"/>
      <point x="1535" y="1544"/>
      <point x="1299" y="1505"/>
      <point x="1093" y="1426" type="curve"/>
      <point x="1081" y="1385" type="line"/>
      <point x="1285" y="1464"/>
      <point x="1530" y="1509"/>
      <point x="1813" y="1509" type="curve" smooth="yes"/>
      <point x="2509" y="1509"/>
      <point x="2884" y="1198"/>
      <point x="2884" y="614" type="curve" smooth="yes"/>
    </contour>
  </outline>
</glyph>
<glyph name="threeeightieths.mlm" format="2">
  <advance width="2701"/>
  <unicode hex="0D5A"/>
  <outline>
    <contour>
      <point x="706" y="1118" type="curve" smooth="yes"/>
      <point x="998" y="1118"/>
      <point x="1147" y="962"/>
      <point x="1147" y="656" type="curve" smooth="yes"/>
      <point x="1147" y="468" type="line"/>
      <point x="1168" y="468" type="line"/>
      <point x="1175" y="732" type="line"/>
      <point x="1150" y="1016"/>
      <point x="981" y="1153"/>
      <point x="704" y="1153" type="curve" smooth="yes"/>
      <point x="353" y="1153"/>
      <point x="176" y="959"/>
      <point x="176" y="584" type="curve" smooth="yes"/>
      <point x="176" y="568" type="line" smooth="yes"/>
      <point x="176" y="329"/>
      <point x="262" y="146"/>
      <point x="401" y="0" type="curve"/>
      <point x="456" y="0" type="line"/>
      <point x="306" y="144"/>
      <point x="215" y="332"/>
      <point x="215" y="568" type="curve" smooth="yes"/>
      <point x="215" y="584" type="line" smooth="yes"/>
      <point x="215" y="936"/>
      <point x="380" y="1118"/>
    </contour>
    <contour>
      <point x="1168" y="732" type="line"/>
      <point x="1147" y="519" type="line"/>
      <point x="1147" y="0" type="line"/>
      <point x="1184" y="0" type="line"/>
      <point x="1184" y="514" type="line" smooth="yes"/>
      <point x="1184" y="915"/>
      <point x="1395" y="1118"/>
      <point x="1816" y="1118" type="curve" smooth="yes"/>
      <point x="2235" y="1118"/>
      <point x="2447" y="915"/>
      <point x="2447" y="514" type="curve" smooth="yes"/>
      <point x="2447" y="0" type="line"/>
      <point x="2484" y="0" type="line"/>
      <point x="2484" y="514" type="line" smooth="yes"/>
      <point x="2484" y="938"/>
      <point x="2258" y="1153"/>
      <point x="1816" y="1153" type="curve" smooth="yes"/>
      <point x="1464" y="1153"/>
      <point x="1247" y="1015"/>
      <point x="1177" y="732" type="curve"/>
    </contour>
    <contour>
      <point x="1166" y="33" type="line"/>
      <point x="1164" y="0" type="line"/>
      <point x="2476" y="0" type="line"/>
      <point x="2476" y="33" type="line"/>
    </contour>
    <contour>
      <point x="1939.22" y="649" type="line" smooth="yes"/>
      <point x="1939.22" y="919.91"/>
      <point x="1799.56" y="1072"/>
      <point x="1553.22" y="1072" type="curve" smooth="yes"/>
      <point x="1504.3" y="1072"/>
      <point x="1451.13" y="1063.33"/>
      <point x="1402.22" y="1046" type="curve"/>
      <point x="1392.22" y="1016" type="line"/>
      <point x="1444.99" y="1033.33"/>
      <point x="1495.66" y="1042"/>
      <point x="1544.22" y="1042" type="curve" smooth="yes"/>
      <point x="1770.68" y="1042"/>
      <point x="1900.22" y="900.899"/>
      <point x="1900.22" y="649" type="curve" smooth="yes"/>
      <point x="1900.22" y="642" type="line" smooth="yes" name="n15"/>
      <point x="1900.22" y="341.685"/>
      <point x="1692.82" y="120.563"/>
      <point x="1382.22" y="28" type="curve"/>
      <point x="1426.22" y="14" type="line"/>
      <point x="1733.82" y="104.448"/>
      <point x="1939.22" y="336.736"/>
      <point x="1939.22" y="642" type="curve" smooth="yes"/>
    </contour>
  </outline>
</glyph>
<glyph name="onetwentieth.mlm" format="2">
  <advance width="2271"/>
  <unicode hex="0D5B"/>
  <outline>
    <contour>
      <point x="254" y="0" type="line"/>
      <point x="254" y="1123" type="line"/>
      <point x="217" y="1123" type="line"/>
      <point x="217" y="0" type="line"/>
    </contour>
    <contour>
      <point x="1140" y="1090" type="line"/>
      <point x="1198" y="1123" type="line"/>
      <point x="247" y="1123" type="line"/>
      <point x="247" y="1090" type="line"/>
    </contour>
    <contour>
      <point x="1505" y="0" type="curve" smooth="yes"/>
      <point x="1143" y="0"/>
      <point x="955" y="195"/>
      <point x="955" y="561" type="curve" smooth="yes"/>
      <point x="955" y="577" type="line" smooth="yes"/>
      <point x="955" y="799"/>
      <point x="1048" y="981"/>
      <point x="1198" y="1118" type="curve"/>
      <point x="1198" y="1123" type="line"/>
      <point x="1152" y="1123" type="line"/>
      <point x="1006" y="984"/>
      <point x="916" y="806"/>
      <point x="916" y="577" type="curve" smooth="yes"/>
      <point x="916" y="561" type="line" smooth="yes"/>
      <point x="916" y="170"/>
      <point x="1117" y="-35"/>
      <point x="1505" y="-35" type="curve" smooth="yes"/>
      <point x="1893" y="-35"/>
      <point x="2095" y="170"/>
      <point x="2095" y="561" type="curve" smooth="yes"/>
      <point x="2095" y="577" type="line" smooth="yes"/>
      <point x="2095" y="806"/>
      <point x="2009" y="984"/>
      <point x="1866" y="1123" type="curve"/>
      <point x="1817" y="1123" type="line"/>
      <point x="1965" y="986"/>
      <point x="2056" y="802"/>
      <point x="2056" y="577" type="curve" smooth="yes"/>
      <point x="2056" y="561" type="line" smooth="yes"/>
      <point x="2056" y="195"/>
      <point x="1867" y="0"/>
    </contour>
  </outline>
</glyph>
<glyph name="onefifth.mlm" format="2">
  <advance width="3061"/>
  <unicode hex="0D5E"/>
  <outline>
    <contour>
      <point x="2388" y="1090" type="line"/>
      <point x="2432" y="1123" type="line"/>
      <point x="1802" y="1123" type="line"/>
      <point x="1852" y="1090" type="line"/>
    </contour>
    <contour>
      <point x="2626" y="620" type="curve" smooth="yes"/>
      <point x="2425" y="620"/>
      <point x="2318" y="709"/>
      <point x="2318" y="873" type="curve" smooth="yes"/>
      <point x="2318" y="878" type="line" smooth="yes"/>
      <point x="2318" y="970"/>
      <point x="2358" y="1055"/>
      <point x="2432" y="1118" type="curve"/>
      <point x="2432" y="1123" type="line"/>
      <point x="2394" y="1123" type="line"/>
      <point x="2320" y="1060"/>
      <point x="2279" y="973"/>
      <point x="2279" y="878" type="curve" smooth="yes"/>
      <point x="2279" y="873" type="line" smooth="yes"/>
      <point x="2279" y="686"/>
      <point x="2397" y="584"/>
      <point x="2626" y="584" type="curve" smooth="yes"/>
      <point x="2855" y="584"/>
      <point x="2973" y="686"/>
      <point x="2973" y="873" type="curve" smooth="yes"/>
      <point x="2973" y="878" type="line" smooth="yes"/>
      <point x="2973" y="973"/>
      <point x="2940" y="1060"/>
      <point x="2878" y="1123" type="curve"/>
      <point x="2830" y="1123" type="line"/>
      <point x="2897" y="1058"/>
      <point x="2934" y="973"/>
      <point x="2934" y="878" type="curve" smooth="yes"/>
      <point x="2934" y="873" type="line" smooth="yes"/>
      <point x="2934" y="709"/>
      <point x="2827" y="620"/>
    </contour>
    <contour>
      <point x="1917" y="875" type="line" smooth="yes"/>
      <point x="1917" y="738"/>
      <point x="1834" y="660"/>
      <point x="1681" y="660" type="curve" smooth="yes"/>
      <point x="1563" y="660" type="line"/>
      <point x="1575" y="627" type="line"/>
      <point x="1683" y="627" type="line" smooth="yes"/>
      <point x="1859" y="627"/>
      <point x="1955" y="715"/>
      <point x="1955" y="875" type="curve" smooth="yes"/>
      <point x="1955" y="882" type="line" smooth="yes"/>
      <point x="1955" y="975"/>
      <point x="1915" y="1061"/>
      <point x="1841" y="1123" type="curve"/>
      <point x="1802" y="1123" type="line"/>
      <point x="1802" y="1118" type="line"/>
      <point x="1876" y="1056"/>
      <point x="1917" y="972"/>
      <point x="1917" y="882" type="curve" smooth="yes"/>
    </contour>
    <contour>
      <point x="892" y="1123" type="curve" smooth="yes"/>
      <point x="1330" y="1123"/>
      <point x="1553" y="916"/>
      <point x="1553" y="495" type="curve" smooth="yes"/>
      <point x="1553" y="475" type="line" smooth="yes"/>
      <point x="1553" y="171"/>
      <point x="1415" y="3"/>
      <point x="1160" y="3" type="curve" smooth="yes"/>
      <point x="935" y="3"/>
      <point x="810" y="114"/>
      <point x="810" y="313" type="curve" smooth="yes"/>
      <point x="810" y="324" type="line" smooth="yes"/>
      <point x="810" y="518"/>
      <point x="943" y="627"/>
      <point x="1177" y="627" type="curve" smooth="yes"/>
      <point x="1556" y="627" type="line"/>
      <point x="1570" y="660" type="line"/>
      <point x="1176" y="660" type="line" smooth="yes"/>
      <point x="919" y="660"/>
      <point x="771" y="540"/>
      <point x="771" y="324" type="curve" smooth="yes"/>
      <point x="771" y="313" type="line" smooth="yes"/>
      <point x="771" y="93"/>
      <point x="910" y="-32"/>
      <point x="1160" y="-32" type="curve" smooth="yes"/>
      <point x="1440" y="-32"/>
      <point x="1591" y="146"/>
      <point x="1591" y="473" type="curve" smooth="yes"/>
      <point x="1591" y="495" type="line" smooth="yes"/>
      <point x="1591" y="939"/>
      <point x="1355" y="1158"/>
      <point x="892" y="1158" type="curve" smooth="yes"/>
      <point x="408" y="1158"/>
      <point x="174" y="938"/>
      <point x="174" y="510" type="curve" smooth="yes"/>
      <point x="174" y="496" type="line" smooth="yes"/>
      <point x="174" y="304"/>
      <point x="243" y="132"/>
      <point x="352" y="0" type="curve"/>
      <point x="403" y="0" type="line"/>
      <point x="285" y="132"/>
      <point x="213" y="304"/>
      <point x="213" y="496" type="curve" smooth="yes"/>
      <point x="213" y="510" type="line" smooth="yes"/>
      <point x="213" y="915"/>
      <point x="434" y="1123"/>
    </contour>
  </outline>
</glyph>
<glyph name="archaicIi.mlm" format="2">
  <advance width="3641"/>
  <unicode hex="0D5F"/>
  <outline>
    <component base="Ra.mlm" xOffset="906"/>
    <contour>
      <point x="788" y="560" type="curve" smooth="yes"/>
      <point x="788" y="553" type="line" smooth="yes"/>
      <point x="788" y="373"/>
      <point x="677" y="278"/>
      <point x="475" y="278" type="curve" smooth="yes"/>
      <point x="273" y="278"/>
      <point x="162" y="373"/>
      <point x="162" y="553" type="curve" smooth="yes"/>
      <point x="162" y="560" type="line" smooth="yes"/>
      <point x="162" y="740"/>
      <point x="273" y="834"/>
      <point x="475" y="834" type="curve" smooth="yes"/>
      <point x="677" y="834"/>
      <point x="788" y="740"/>
    </contour>
    <contour>
      <point x="475" y="869" type="curve" smooth="yes"/>
      <point x="245" y="869"/>
      <point x="123" y="763"/>
      <point x="123" y="560" type="curve" smooth="yes"/>
      <point x="123" y="553" type="line" smooth="yes"/>
      <point x="123" y="350"/>
      <point x="245" y="243"/>
      <point x="475" y="243" type="curve" smooth="yes"/>
      <point x="705" y="243"/>
      <point x="827" y="350"/>
      <point x="827" y="553" type="curve" smooth="yes"/>
      <point x="827" y="560" type="line" smooth="yes"/>
      <point x="827" y="763"/>
      <point x="705" y="869"/>
    </contour>
    <contour>
      <point x="3480" y="560" type="curve" smooth="yes"/>
      <point x="3480" y="553" type="line" smooth="yes"/>
      <point x="3480" y="373"/>
      <point x="3368" y="278"/>
      <point x="3166" y="278" type="curve" smooth="yes"/>
      <point x="2964" y="278"/>
      <point x="2853" y="373"/>
      <point x="2853" y="553" type="curve" smooth="yes"/>
      <point x="2853" y="560" type="line" smooth="yes"/>
      <point x="2853" y="740"/>
      <point x="2964" y="834"/>
      <point x="3166" y="834" type="curve" smooth="yes"/>
      <point x="3368" y="834"/>
      <point x="3480" y="740"/>
    </contour>
    <contour>
      <point x="2814" y="560" type="curve" smooth="yes"/>
      <point x="2814" y="553" type="line" smooth="yes"/>
      <point x="2814" y="350"/>
      <point x="2936" y="243"/>
      <point x="3166" y="243" type="curve" smooth="yes"/>
      <point x="3396" y="243"/>
      <point x="3518" y="350"/>
      <point x="3518" y="553" type="curve" smooth="yes"/>
      <point x="3518" y="560" type="line" smooth="yes"/>
      <point x="3518" y="763"/>
      <point x="3396" y="869"/>
      <point x="3166" y="869" type="curve" smooth="yes"/>
      <point x="2936" y="869"/>
      <point x="2814" y="763"/>
    </contour>
  </outline>
</glyph>
<glyph name="uni0D62" format="2">
  <unicode hex="0D62"/>
  <outline>
    <contour>
      <point x="-1110" y="-563" type="line"/>
      <point x="-1074" y="-563" type="line"/>
      <point x="-1074" y="-253" type="line"/>
      <point x="-1110" y="-253" type="line"/>
    </contour>
    <contour>
      <point x="-1528" y="34" type="curve" smooth="yes"/>
      <point x="-1843" y="34"/>
      <point x="-1998" y="-84"/>
      <point x="-1998" y="-313" type="curve" smooth="yes"/>
      <point x="-1998" y="-322" type="line" smooth="yes"/>
      <point x="-1998" y="-488"/>
      <point x="-1900" y="-581"/>
      <point x="-1695" y="-581" type="curve" smooth="yes"/>
      <point x="-1516" y="-581"/>
      <point x="-1415" y="-511"/>
      <point x="-1415" y="-383" type="curve" smooth="yes"/>
      <point x="-1415" y="-378" type="line" smooth="yes"/>
      <point x="-1415" y="-250"/>
      <point x="-1515" y="-181"/>
      <point x="-1692" y="-181" type="curve" smooth="yes"/>
      <point x="-1823" y="-181"/>
      <point x="-1923" y="-229"/>
      <point x="-1973" y="-308" type="curve"/>
      <point x="-1966" y="-341" type="line"/>
      <point x="-1925" y="-263"/>
      <point x="-1828" y="-215"/>
      <point x="-1692" y="-215" type="curve" smooth="yes"/>
      <point x="-1540" y="-215"/>
      <point x="-1452" y="-272"/>
      <point x="-1452" y="-378" type="curve" smooth="yes"/>
      <point x="-1452" y="-383" type="line" smooth="yes"/>
      <point x="-1452" y="-490"/>
      <point x="-1541" y="-547"/>
      <point x="-1695" y="-547" type="curve" smooth="yes"/>
      <point x="-1874" y="-547"/>
      <point x="-1961" y="-472"/>
      <point x="-1961" y="-322" type="curve" smooth="yes"/>
      <point x="-1961" y="-318" type="line"/>
      <point x="-1954" y="-291.12" type="line"/>
      <point x="-1960.74" y="-291.122" type="line"/>
      <point x="-1953.76" y="-96.1122"/>
      <point x="-1807.97" y="0"/>
      <point x="-1528" y="0" type="curve" smooth="yes"/>
      <point x="-1238" y="0"/>
      <point x="-1110" y="-110"/>
      <point x="-1110" y="-290" type="curve" smooth="yes"/>
      <point x="-1110" y="-324" type="line"/>
      <point x="-1085" y="-313" type="line"/>
      <point x="-1093" y="-202" type="line"/>
      <point x="-1126" y="-47"/>
      <point x="-1268" y="34"/>
    </contour>
    <contour>
      <point x="-656" y="34" type="curve" smooth="yes"/>
      <point x="-918" y="34"/>
      <point x="-1059" y="-47"/>
      <point x="-1091" y="-202" type="curve"/>
      <point x="-1100" y="-202" type="line"/>
      <point x="-1099" y="-313" type="line"/>
      <point x="-1074" y="-324" type="line"/>
      <point x="-1074" y="-290" type="line" smooth="yes"/>
      <point x="-1074" y="-110"/>
      <point x="-946" y="0"/>
      <point x="-656" y="0" type="curve" smooth="yes"/>
      <point x="-376.058" y="0"/>
      <point x="-230.266" y="-96.0932"/>
      <point x="-223.265" y="-291.064" type="curve"/>
      <point x="-233.17" y="-290.684" type="line"/>
      <point x="-223" y="-318" type="line"/>
      <point x="-223" y="-322" type="line" smooth="yes"/>
      <point x="-223" y="-472"/>
      <point x="-310" y="-547"/>
      <point x="-489" y="-547" type="curve" smooth="yes"/>
      <point x="-643" y="-547"/>
      <point x="-732" y="-490"/>
      <point x="-732" y="-383" type="curve" smooth="yes"/>
      <point x="-732" y="-378" type="line" smooth="yes"/>
      <point x="-732" y="-272"/>
      <point x="-644" y="-215"/>
      <point x="-492" y="-215" type="curve" smooth="yes"/>
      <point x="-356" y="-215"/>
      <point x="-259" y="-263"/>
      <point x="-218" y="-341" type="curve"/>
      <point x="-211" y="-308" type="line"/>
      <point x="-261" y="-229"/>
      <point x="-361" y="-181"/>
      <point x="-492" y="-181" type="curve" smooth="yes"/>
      <point x="-669" y="-181"/>
      <point x="-769" y="-250"/>
      <point x="-769" y="-378" type="curve" smooth="yes"/>
      <point x="-769" y="-383" type="line" smooth="yes"/>
      <point x="-769" y="-511"/>
      <point x="-668" y="-581"/>
      <point x="-489" y="-581" type="curve" smooth="yes"/>
      <point x="-284" y="-581"/>
      <point x="-186" y="-488"/>
      <point x="-186" y="-322" type="curve" smooth="yes"/>
      <point x="-186" y="-313" type="line" smooth="yes"/>
      <point x="-186" y="-84"/>
      <point x="-341" y="34"/>
    </contour>
  </outline>
</glyph>
<glyph name="zero.mlm" format="2">
  <advance width="1510"/>
  <unicode hex="0D66"/>
  <outline>
    <contour>
      <point x="755" y="46" type="curve" smooth="yes"/>
      <point x="396" y="46"/>
      <point x="206" y="221"/>
      <point x="206" y="554" type="curve" smooth="yes"/>
      <point x="206" y="572" type="line" smooth="yes"/>
      <point x="206" y="906"/>
      <point x="396" y="1081"/>
      <point x="755" y="1081" type="curve" smooth="yes"/>
      <point x="1114" y="1081"/>
      <point x="1304" y="906"/>
      <point x="1304" y="572" type="curve" smooth="yes"/>
      <point x="1304" y="554" type="line" smooth="yes"/>
      <point x="1304" y="221"/>
      <point x="1114" y="46"/>
    </contour>
    <contour>
      <point x="755" y="11" type="curve" smooth="yes"/>
      <point x="1140" y="11"/>
      <point x="1343" y="197"/>
      <point x="1343" y="554" type="curve" smooth="yes"/>
      <point x="1343" y="572" type="line" smooth="yes"/>
      <point x="1343" y="931"/>
      <point x="1140" y="1116"/>
      <point x="755" y="1116" type="curve" smooth="yes"/>
      <point x="370" y="1116"/>
      <point x="167" y="931"/>
      <point x="167" y="572" type="curve" smooth="yes"/>
      <point x="167" y="554" type="line" smooth="yes"/>
      <point x="167" y="197"/>
      <point x="370" y="11"/>
    </contour>
  </outline>
</glyph>
<glyph name="two.mlm" format="2">
  <advance width="1997"/>
  <unicode hex="0D68"/>
  <outline>
    <contour>
      <point x="1193" y="33" type="line"/>
      <point x="1128" y="0" type="line"/>
      <point x="1950" y="0" type="line"/>
      <point x="1962" y="33" type="line"/>
    </contour>
    <contour>
      <point x="792" y="1123" type="curve" smooth="yes"/>
      <point x="1171" y="1123"/>
      <point x="1369" y="927"/>
      <point x="1369" y="561" type="curve" smooth="yes"/>
      <point x="1369" y="546" type="line" smooth="yes"/>
      <point x="1369" y="324"/>
      <point x="1276" y="142"/>
      <point x="1126" y="5" type="curve"/>
      <point x="1126" y="0" type="line"/>
      <point x="1175" y="0" type="line"/>
      <point x="1318" y="139"/>
      <point x="1408" y="317"/>
      <point x="1408" y="546" type="curve" smooth="yes"/>
      <point x="1408" y="561" type="line" smooth="yes"/>
      <point x="1408" y="952"/>
      <point x="1198" y="1158"/>
      <point x="792" y="1158" type="curve" smooth="yes"/>
      <point x="386" y="1158"/>
      <point x="176" y="952"/>
      <point x="176" y="561" type="curve" smooth="yes"/>
      <point x="176" y="546" type="line" smooth="yes"/>
      <point x="176" y="317"/>
      <point x="263" y="139"/>
      <point x="400" y="0" type="curve"/>
      <point x="454" y="0" type="line"/>
      <point x="306" y="137"/>
      <point x="215" y="321"/>
      <point x="215" y="546" type="curve" smooth="yes"/>
      <point x="215" y="561" type="line" smooth="yes"/>
      <point x="215" y="927"/>
      <point x="413" y="1123"/>
    </contour>
  </outline>
</glyph>
<glyph name="four.mlm" format="2">
  <advance width="1798"/>
  <unicode hex="0D6A"/>
  <outline>
    <contour>
      <point x="807" y="361" type="curve" smooth="yes"/>
      <point x="807" y="350" type="line" smooth="yes"/>
      <point x="807" y="104"/>
      <point x="952" y="-32"/>
      <point x="1208" y="-32" type="curve" smooth="yes"/>
      <point x="1487" y="-32"/>
      <point x="1625" y="144"/>
      <point x="1625" y="466" type="curve" smooth="yes"/>
      <point x="1625" y="480" type="line" smooth="yes"/>
      <point x="1625" y="712"/>
      <point x="1548" y="892"/>
      <point x="1405" y="1008" type="curve" smooth="yes"/>
      <point x="1389" y="1021" type="line"/>
      <point x="1269" y="1108"/>
      <point x="1111" y="1158"/>
      <point x="906" y="1158" type="curve" smooth="yes"/>
      <point x="412" y="1158"/>
      <point x="174" y="938"/>
      <point x="174" y="510" type="curve" smooth="yes"/>
      <point x="174" y="496" type="line" smooth="yes"/>
      <point x="174" y="304"/>
      <point x="243" y="132"/>
      <point x="352" y="0" type="curve"/>
      <point x="403" y="0" type="line"/>
      <point x="285" y="132"/>
      <point x="213" y="304"/>
      <point x="213" y="496" type="curve" smooth="yes"/>
      <point x="213" y="510" type="line" smooth="yes"/>
      <point x="213" y="915"/>
      <point x="439" y="1123"/>
      <point x="906" y="1123" type="curve" smooth="yes"/>
      <point x="1093" y="1123"/>
      <point x="1242" y="1078"/>
      <point x="1354" y="1000" type="curve"/>
      <point x="1368" y="989" type="line" smooth="yes"/>
      <point x="1510" y="877"/>
      <point x="1586" y="707"/>
      <point x="1586" y="480" type="curve" smooth="yes"/>
      <point x="1586" y="466" type="line" smooth="yes"/>
      <point x="1586" y="163"/>
      <point x="1462" y="3"/>
      <point x="1208" y="3" type="curve" smooth="yes"/>
      <point x="977" y="3"/>
      <point x="846" y="126"/>
      <point x="846" y="350" type="curve" smooth="yes"/>
      <point x="846" y="361" type="line" smooth="yes"/>
      <point x="846" y="662"/>
      <point x="1088" y="826"/>
      <point x="1384" y="989" type="curve" smooth="yes"/>
      <point x="1404" y="1000" type="line" smooth="yes"/>
      <point x="1526" y="1067"/>
      <point x="1601" y="1156"/>
      <point x="1601" y="1287" type="curve" smooth="yes"/>
      <point x="1601" y="1400"/>
      <point x="1567" y="1492"/>
      <point x="1495" y="1575" type="curve"/>
      <point x="1455" y="1575" type="line"/>
      <point x="1535" y="1475"/>
      <point x="1563" y="1391"/>
      <point x="1563" y="1287" type="curve" smooth="yes"/>
      <point x="1563" y="1169"/>
      <point x="1494" y="1081"/>
      <point x="1374" y="1021" type="curve" smooth="yes"/>
      <point x="1356" y="1012" type="line"/>
      <point x="1062" y="850"/>
      <point x="807" y="688"/>
    </contour>
  </outline>
</glyph>
<glyph name="five.mlm" format="2">
  <advance width="2598"/>
  <unicode hex="0D6B"/>
  <outline>
    <contour>
      <point x="2383" y="604" type="curve" smooth="yes"/>
      <point x="2383" y="593" type="line" smooth="yes"/>
      <point x="2383" y="361"/>
      <point x="2321" y="153"/>
      <point x="2207" y="-4" type="curve"/>
      <point x="2255" y="-4" type="line"/>
      <point x="2361" y="146"/>
      <point x="2422" y="361"/>
      <point x="2422" y="593" type="curve" smooth="yes"/>
      <point x="2422" y="604" type="line" smooth="yes"/>
      <point x="2422" y="1208"/>
      <point x="2047" y="1508"/>
      <point x="1308" y="1508" type="curve" smooth="yes"/>
      <point x="555" y="1508"/>
      <point x="176" y="1181"/>
      <point x="176" y="530" type="curve" smooth="yes"/>
      <point x="176" y="516" type="line" smooth="yes"/>
      <point x="176" y="-49"/>
      <point x="487" y="-357"/>
      <point x="1121" y="-357" type="curve" smooth="yes"/>
      <point x="1596" y="-357"/>
      <point x="1837" y="-189"/>
      <point x="1837" y="151" type="curve" smooth="yes"/>
      <point x="1837" y="162" type="line" smooth="yes"/>
      <point x="1837" y="347"/>
      <point x="1737" y="461"/>
      <point x="1540" y="489" type="curve"/>
      <point x="1540" y="493" type="line"/>
      <point x="1702" y="518"/>
      <point x="1786" y="606"/>
      <point x="1786" y="752" type="curve" smooth="yes"/>
      <point x="1786" y="759" type="line" smooth="yes"/>
      <point x="1786" y="974"/>
      <point x="1618" y="1084"/>
      <point x="1299" y="1084" type="curve" smooth="yes"/>
      <point x="926" y="1084"/>
      <point x="739" y="899"/>
      <point x="739" y="524" type="curve" smooth="yes"/>
      <point x="739" y="500" type="line" smooth="yes"/>
      <point x="739" y="312"/>
      <point x="797" y="146"/>
      <point x="885" y="18" type="curve"/>
      <point x="933" y="18" type="line"/>
      <point x="838" y="146"/>
      <point x="778" y="312"/>
      <point x="778" y="500" type="curve" smooth="yes"/>
      <point x="778" y="524" type="line" smooth="yes"/>
      <point x="778" y="876"/>
      <point x="949" y="1049"/>
      <point x="1299" y="1049" type="curve" smooth="yes"/>
      <point x="1595" y="1049"/>
      <point x="1747" y="949"/>
      <point x="1747" y="759" type="curve" smooth="yes"/>
      <point x="1747" y="752" type="line" smooth="yes"/>
      <point x="1747" y="590"/>
      <point x="1635" y="509"/>
      <point x="1417" y="509" type="curve" smooth="yes"/>
      <point x="1227" y="509" type="line"/>
      <point x="1227" y="473" type="line"/>
      <point x="1420" y="473" type="line" smooth="yes"/>
      <point x="1670" y="473"/>
      <point x="1798" y="368"/>
      <point x="1798" y="162" type="curve" smooth="yes"/>
      <point x="1798" y="151" type="line" smooth="yes"/>
      <point x="1798" y="-164"/>
      <point x="1572" y="-322"/>
      <point x="1121" y="-322" type="curve" smooth="yes"/>
      <point x="512" y="-322"/>
      <point x="215" y="-23"/>
      <point x="215" y="516" type="curve" smooth="yes"/>
      <point x="215" y="530" type="line" smooth="yes"/>
      <point x="215" y="1153"/>
      <point x="579" y="1473"/>
      <point x="1308" y="1473" type="curve" smooth="yes"/>
      <point x="2023" y="1473"/>
      <point x="2383" y="1180"/>
    </contour>
  </outline>
</glyph>
<glyph name="six.mlm" format="2">
  <advance width="3143"/>
  <unicode hex="0D6C"/>
  <outline>
    <contour>
      <point x="2439" y="1118" type="curve" smooth="yes"/>
      <point x="2769" y="1118"/>
      <point x="2928" y="908"/>
      <point x="2928" y="496" type="curve" smooth="yes"/>
      <point x="2928" y="479" type="line" smooth="yes"/>
      <point x="2928" y="-60"/>
      <point x="2678" y="-345"/>
      <point x="2209" y="-345" type="curve" smooth="yes"/>
      <point x="2063" y="-345"/>
      <point x="1936" y="-325"/>
      <point x="1832" y="-290" type="curve"/>
      <point x="1845" y="-331" type="line"/>
      <point x="1949" y="-364"/>
      <point x="2068" y="-380"/>
      <point x="2209" y="-380" type="curve" smooth="yes"/>
      <point x="2706" y="-380"/>
      <point x="2967" y="-82"/>
      <point x="2967" y="479" type="curve" smooth="yes"/>
      <point x="2967" y="496" type="line" smooth="yes"/>
      <point x="2967" y="931"/>
      <point x="2796" y="1153"/>
      <point x="2441" y="1153" type="curve" smooth="yes"/>
      <point x="2189" y="1153"/>
      <point x="2041" y="1033"/>
      <point x="1999" y="806" type="curve"/>
      <point x="1991" y="806" type="line"/>
      <point x="1992" y="480" type="line"/>
      <point x="2017" y="480" type="line"/>
      <point x="2017" y="656" type="line" smooth="yes"/>
      <point x="2017" y="962"/>
      <point x="2157" y="1118"/>
    </contour>
    <contour>
      <point x="176" y="584" type="curve" smooth="yes"/>
      <point x="176" y="568" type="line" smooth="yes"/>
      <point x="176" y="329"/>
      <point x="262" y="146"/>
      <point x="401" y="0" type="curve"/>
      <point x="456" y="0" type="line"/>
      <point x="306" y="144"/>
      <point x="215" y="332"/>
      <point x="215" y="568" type="curve" smooth="yes"/>
      <point x="215" y="584" type="line" smooth="yes"/>
      <point x="215" y="936"/>
      <point x="372" y="1118"/>
      <point x="690" y="1118" type="curve" smooth="yes"/>
      <point x="973" y="1118"/>
      <point x="1116" y="962"/>
      <point x="1116" y="656" type="curve" smooth="yes"/>
      <point x="1116" y="480" type="line"/>
      <point x="1133" y="480" type="line"/>
      <point x="1133" y="806" type="line"/>
      <point x="1091" y="1033"/>
      <point x="941" y="1153"/>
      <point x="688" y="1153" type="curve" smooth="yes"/>
      <point x="346" y="1153"/>
      <point x="176" y="959"/>
    </contour>
    <contour>
      <point x="1116" y="623" type="line"/>
      <point x="1116" y="7" type="line"/>
      <point x="1153" y="7" type="line"/>
      <point x="1153" y="623" type="line"/>
    </contour>
    <contour>
      <point x="1566" y="1118" type="curve" smooth="yes"/>
      <point x="1842" y="1118"/>
      <point x="1980" y="962"/>
      <point x="1980" y="656" type="curve" smooth="yes"/>
      <point x="1980" y="480" type="line"/>
      <point x="2003" y="480" type="line"/>
      <point x="1997" y="806" type="line"/>
      <point x="1962" y="1035"/>
      <point x="1816" y="1153"/>
      <point x="1566" y="1153" type="curve" smooth="yes"/>
      <point x="1316" y="1153"/>
      <point x="1170" y="1035"/>
      <point x="1135" y="806" type="curve"/>
      <point x="1126" y="806" type="line"/>
      <point x="1123" y="480" type="line"/>
      <point x="1153" y="480" type="line"/>
      <point x="1153" y="656" type="line" smooth="yes"/>
      <point x="1153" y="962"/>
      <point x="1290" y="1118"/>
    </contour>
    <contour>
      <point x="1980" y="621" type="line"/>
      <point x="1980" y="7" type="line"/>
      <point x="2017" y="7" type="line"/>
      <point x="2017" y="621" type="line"/>
    </contour>
  </outline>
</glyph>
<glyph name="seven.mlm" format="2">
  <advance width="1821"/>
  <unicode hex="0D6D"/>
  <outline>
    <contour>
      <point x="198" y="432" type="curve"/>
      <point x="212" y="416" type="line"/>
      <point x="274.466" y="562.82"/>
      <point x="413.504" y="658"/>
      <point x="614" y="658" type="curve" smooth="yes"/>
      <point x="843" y="658"/>
      <point x="974" y="542"/>
      <point x="974" y="339" type="curve" smooth="yes"/>
      <point x="974" y="329" type="line" smooth="yes"/>
      <point x="974" y="121"/>
      <point x="843" y="3"/>
      <point x="614" y="3" type="curve" smooth="yes"/>
      <point x="352.751" y="3"/>
      <point x="212" y="158.703"/>
      <point x="212" y="446" type="curve"/>
      <point x="212" y="447" type="line"/>
      <point x="219" y="468" type="line"/>
      <point x="212" y="468" type="line"/>
      <point x="212" y="468" type="line"/>
      <point x="212" y="908.015"/>
      <point x="442.536" y="1123"/>
      <point x="899" y="1123" type="curve" smooth="yes"/>
      <point x="1366" y="1123"/>
      <point x="1608" y="894"/>
      <point x="1608" y="433" type="curve" smooth="yes"/>
      <point x="1608" y="415" type="line" smooth="yes"/>
      <point x="1608" y="-81"/>
      <point x="1355" y="-345"/>
      <point x="883" y="-345" type="curve" smooth="yes"/>
      <point x="744" y="-345"/>
      <point x="623" y="-325"/>
      <point x="524" y="-290" type="curve"/>
      <point x="537" y="-331" type="line"/>
      <point x="636" y="-364"/>
      <point x="749" y="-380"/>
      <point x="883" y="-380" type="curve" smooth="yes"/>
      <point x="1381" y="-380"/>
      <point x="1647" y="-104"/>
      <point x="1647" y="415" type="curve" smooth="yes"/>
      <point x="1647" y="433" type="line" smooth="yes"/>
      <point x="1647" y="917"/>
      <point x="1393" y="1158"/>
      <point x="899" y="1158" type="curve" smooth="yes"/>
      <point x="416.47" y="1158"/>
      <point x="174" y="930.01"/>
      <point x="174" y="467" type="curve" smooth="yes"/>
      <point x="174" y="446" type="line" smooth="yes"/>
      <point x="174" y="136.706"/>
      <point x="326.736" y="-32"/>
      <point x="614" y="-32" type="curve" smooth="yes"/>
      <point x="868" y="-32"/>
      <point x="1013" y="99"/>
      <point x="1013" y="329" type="curve" smooth="yes"/>
      <point x="1013" y="339" type="line" smooth="yes"/>
      <point x="1013" y="565"/>
      <point x="868" y="693"/>
      <point x="614" y="693" type="curve" smooth="yes"/>
      <point x="406.504" y="693"/>
      <point x="247.356" y="586.779"/>
    </contour>
  </outline>
</glyph>
<glyph name="nine.mlm" format="2">
  <advance width="2641"/>
  <unicode hex="0D6F"/>
  <outline>
    <contour>
      <point x="1148" y="612" type="line"/>
      <point x="1148" y="7" type="line"/>
      <point x="1185" y="7" type="line"/>
      <point x="1185" y="612" type="line"/>
    </contour>
    <contour>
      <point x="706" y="1118" type="curve" smooth="yes"/>
      <point x="998" y="1118"/>
      <point x="1148" y="962"/>
      <point x="1148" y="656" type="curve" smooth="yes"/>
      <point x="1148" y="468" type="line"/>
      <point x="1169" y="468" type="line"/>
      <point x="1169" y="788" type="line"/>
      <point x="1125" y="1034"/>
      <point x="968" y="1153"/>
      <point x="704" y="1153" type="curve" smooth="yes"/>
      <point x="353" y="1153"/>
      <point x="176" y="959"/>
      <point x="176" y="584" type="curve" smooth="yes"/>
      <point x="176" y="568" type="line" smooth="yes"/>
      <point x="176" y="329"/>
      <point x="263" y="146"/>
      <point x="402" y="0" type="curve"/>
      <point x="456" y="0" type="line"/>
      <point x="306" y="144"/>
      <point x="215" y="332"/>
      <point x="215" y="568" type="curve" smooth="yes"/>
      <point x="215" y="584" type="line" smooth="yes"/>
      <point x="215" y="936"/>
      <point x="380" y="1118"/>
    </contour>
    <contour>
      <point x="1765" y="1118" type="curve" smooth="yes"/>
      <point x="1943" y="1118"/>
      <point x="2087" y="1075"/>
      <point x="2194" y="1000" type="curve"/>
      <point x="2208" y="989" type="line" smooth="yes"/>
      <point x="2351" y="876"/>
      <point x="2429" y="707"/>
      <point x="2429" y="480" type="curve" smooth="yes"/>
      <point x="2429" y="466" type="line" smooth="yes"/>
      <point x="2429" y="163"/>
      <point x="2307" y="3"/>
      <point x="2060" y="3" type="curve" smooth="yes"/>
      <point x="1834" y="3"/>
      <point x="1707" y="126"/>
      <point x="1707" y="350" type="curve" smooth="yes"/>
      <point x="1707" y="361" type="line" smooth="yes"/>
      <point x="1707" y="662"/>
      <point x="1937" y="829"/>
      <point x="2227" y="989" type="curve" smooth="yes"/>
      <point x="2247" y="1000" type="line" smooth="yes"/>
      <point x="2370" y="1067"/>
      <point x="2444" y="1158"/>
      <point x="2444" y="1287" type="curve" smooth="yes"/>
      <point x="2444" y="1400"/>
      <point x="2410" y="1492"/>
      <point x="2338" y="1575" type="curve"/>
      <point x="2298" y="1575" type="line"/>
      <point x="2379" y="1475"/>
      <point x="2406" y="1391"/>
      <point x="2406" y="1287" type="curve" smooth="yes"/>
      <point x="2406" y="1169"/>
      <point x="2337" y="1081"/>
      <point x="2217" y="1021" type="curve" smooth="yes"/>
      <point x="2199" y="1012" type="line"/>
      <point x="1914" y="850"/>
      <point x="1668" y="688"/>
      <point x="1668" y="361" type="curve" smooth="yes"/>
      <point x="1668" y="350" type="line" smooth="yes"/>
      <point x="1668" y="104"/>
      <point x="1809" y="-32"/>
      <point x="2060" y="-32" type="curve" smooth="yes"/>
      <point x="2332" y="-32"/>
      <point x="2468" y="144"/>
      <point x="2468" y="466" type="curve" smooth="yes"/>
      <point x="2468" y="480" type="line" smooth="yes"/>
      <point x="2468" y="712"/>
      <point x="2390" y="891"/>
      <point x="2245" y="1008" type="curve" smooth="yes"/>
      <point x="2229" y="1021" type="line"/>
      <point x="2113" y="1105"/>
      <point x="1960" y="1153"/>
      <point x="1765" y="1153" type="curve" smooth="yes"/>
      <point x="1464" y="1153"/>
      <point x="1232" y="1045"/>
      <point x="1171" y="788" type="curve"/>
      <point x="1159" y="788" type="line"/>
      <point x="1161" y="549" type="line"/>
      <point x="1185" y="549" type="line"/>
      <point x="1185" y="639" type="line" smooth="yes"/>
      <point x="1185" y="945"/>
      <point x="1381" y="1118"/>
    </contour>
  </outline>
</glyph>
<glyph name="onehundred.mlm" format="2">
  <advance width="2289"/>
  <unicode hex="0D71"/>
  <outline>
    <contour>
      <point x="1585" y="1118" type="curve" smooth="yes"/>
      <point x="1915" y="1118"/>
      <point x="2074" y="908"/>
      <point x="2074" y="496" type="curve" smooth="yes"/>
      <point x="2074" y="479" type="line" smooth="yes"/>
      <point x="2074" y="-60"/>
      <point x="1824" y="-345"/>
      <point x="1355" y="-345" type="curve" smooth="yes"/>
      <point x="1209" y="-345"/>
      <point x="1082" y="-325"/>
      <point x="978" y="-290" type="curve"/>
      <point x="991" y="-331" type="line"/>
      <point x="1095" y="-364"/>
      <point x="1214" y="-380"/>
      <point x="1355" y="-380" type="curve" smooth="yes"/>
      <point x="1852" y="-380"/>
      <point x="2113" y="-82"/>
      <point x="2113" y="479" type="curve" smooth="yes"/>
      <point x="2113" y="496" type="line" smooth="yes"/>
      <point x="2113" y="931"/>
      <point x="1942" y="1153"/>
      <point x="1587" y="1153" type="curve" smooth="yes"/>
      <point x="1335" y="1153"/>
      <point x="1187" y="1033"/>
      <point x="1145" y="806" type="curve"/>
      <point x="1137" y="806" type="line"/>
      <point x="1138" y="480" type="line"/>
      <point x="1163" y="480" type="line"/>
      <point x="1163" y="656" type="line" smooth="yes"/>
      <point x="1163" y="962"/>
      <point x="1303" y="1118"/>
    </contour>
    <contour>
      <point x="1126" y="621" type="line"/>
      <point x="1126" y="7" type="line"/>
      <point x="1163" y="7" type="line"/>
      <point x="1163" y="621" type="line"/>
    </contour>
    <contour>
      <point x="176" y="584" type="curve" smooth="yes"/>
      <point x="176" y="568" type="line" smooth="yes"/>
      <point x="176" y="329"/>
      <point x="262" y="146"/>
      <point x="401" y="0" type="curve"/>
      <point x="456" y="0" type="line"/>
      <point x="306" y="144"/>
      <point x="215" y="332"/>
      <point x="215" y="568" type="curve" smooth="yes"/>
      <point x="215" y="584" type="line" smooth="yes"/>
      <point x="215" y="936"/>
      <point x="372" y="1118"/>
      <point x="695" y="1118" type="curve" smooth="yes"/>
      <point x="982" y="1118"/>
      <point x="1126" y="962"/>
      <point x="1126" y="656" type="curve" smooth="yes"/>
      <point x="1126" y="480" type="line"/>
      <point x="1144" y="480" type="line"/>
      <point x="1144" y="799" type="line"/>
      <point x="1104" y="1031"/>
      <point x="952" y="1153"/>
      <point x="693" y="1153" type="curve" smooth="yes"/>
      <point x="346" y="1153"/>
      <point x="176" y="959"/>
    </contour>
  </outline>
</glyph>
<glyph name="onethousand.mlm" format="2">
  <advance width="3418"/>
  <unicode hex="0D72"/>
  <outline>
    <component base="date.mlm"/>
    <contour>
      <point x="2722" y="656" type="line"/>
      <point x="2722" y="824" type="line" smooth="yes"/>
      <point x="2722" y="1012"/>
      <point x="2830" y="1107"/>
      <point x="3034" y="1107" type="curve" smooth="yes"/>
      <point x="3210" y="1107"/>
      <point x="3309" y="1022"/>
      <point x="3309" y="876" type="curve" smooth="yes"/>
      <point x="3309" y="866" type="line" smooth="yes"/>
      <point x="3309" y="734"/>
      <point x="3214" y="660"/>
      <point x="3038" y="660" type="curve" smooth="yes"/>
      <point x="2411" y="660" type="line"/>
      <point x="2397" y="627" type="line"/>
      <point x="3039" y="627" type="line" smooth="yes"/>
      <point x="3238" y="627"/>
      <point x="3347" y="711"/>
      <point x="3347" y="866" type="curve" smooth="yes"/>
      <point x="3347" y="876" type="line" smooth="yes"/>
      <point x="3347" y="1043"/>
      <point x="3235" y="1142"/>
      <point x="3034" y="1142" type="curve" smooth="yes"/>
      <point x="2809" y="1142"/>
      <point x="2686" y="1036"/>
      <point x="2686" y="827" type="curve" smooth="yes"/>
      <point x="2686" y="649" type="line"/>
    </contour>
  </outline>
</glyph>
<glyph name="onequarter.mlm" format="2">
  <advance width="1573"/>
  <unicode hex="0D73"/>
  <outline>
    <contour>
      <point x="212" y="415" type="line"/>
      <point x="270" y="560.22"/>
      <point x="412" y="653"/>
      <point x="608" y="653" type="curve" smooth="yes"/>
      <point x="832" y="653"/>
      <point x="960" y="538"/>
      <point x="960" y="337" type="curve" smooth="yes"/>
      <point x="960" y="327" type="line" smooth="yes"/>
      <point x="960" y="120"/>
      <point x="835" y="3"/>
      <point x="605" y="3" type="curve" smooth="yes"/>
      <point x="348" y="3"/>
      <point x="212" y="158"/>
      <point x="212" y="444" type="curve"/>
      <point x="212" y="445" type="line"/>
      <point x="222" y="467" type="line"/>
      <point x="212" y="467" type="line"/>
      <point x="212" y="468" type="line"/>
      <point x="212" y="867.681"/>
      <point x="451.107" y="1063"/>
      <point x="943" y="1063" type="curve" smooth="yes"/>
      <point x="1494" y="1063" type="line"/>
      <point x="1481" y="1096" type="line"/>
      <point x="941" y="1096" type="line" smooth="yes"/>
      <point x="424.511" y="1096"/>
      <point x="174" y="888.398"/>
      <point x="174" y="465" type="curve" smooth="yes"/>
      <point x="174" y="444" type="line" smooth="yes"/>
      <point x="174" y="136"/>
      <point x="323" y="-32"/>
      <point x="605" y="-32" type="curve" smooth="yes"/>
      <point x="859" y="-32"/>
      <point x="999" y="99"/>
      <point x="999" y="327" type="curve" smooth="yes"/>
      <point x="999" y="337" type="line" smooth="yes"/>
      <point x="999" y="561"/>
      <point x="857" y="688"/>
      <point x="608" y="688" type="curve" smooth="yes"/>
      <point x="405" y="688"/>
      <point x="246" y="584.192"/>
      <point x="198" y="431" type="curve"/>
    </contour>
  </outline>
</glyph>
<glyph name="onesixteenth.mlm" format="2">
  <advance width="3100"/>
  <unicode hex="0D76"/>
  <outline>
    <contour>
      <point x="936" y="33" type="line"/>
      <point x="919" y="0" type="line"/>
      <point x="1669" y="0" type="line"/>
      <point x="1669" y="33" type="line"/>
    </contour>
    <contour>
      <point x="630" y="741" type="curve" smooth="yes"/>
      <point x="319" y="741"/>
      <point x="167" y="604"/>
      <point x="167" y="345" type="curve" smooth="yes"/>
      <point x="167" y="331" type="line" smooth="yes"/>
      <point x="167" y="203"/>
      <point x="217" y="84"/>
      <point x="310" y="0" type="curve"/>
      <point x="363" y="0" type="line"/>
      <point x="263" y="86"/>
      <point x="206" y="203"/>
      <point x="206" y="331" type="curve" smooth="yes"/>
      <point x="206" y="345" type="line" smooth="yes"/>
      <point x="206" y="583"/>
      <point x="349" y="706"/>
      <point x="630" y="706" type="curve" smooth="yes"/>
      <point x="911" y="706"/>
      <point x="1054" y="583"/>
      <point x="1054" y="345" type="curve" smooth="yes"/>
      <point x="1054" y="331" type="line" smooth="yes"/>
      <point x="1054" y="206"/>
      <point x="995" y="89"/>
      <point x="891" y="5" type="curve"/>
      <point x="891" y="0" type="line"/>
      <point x="933" y="0" type="line"/>
      <point x="1038" y="84"/>
      <point x="1093" y="203"/>
      <point x="1093" y="331" type="curve" smooth="yes"/>
      <point x="1093" y="345" type="line" smooth="yes"/>
      <point x="1093" y="604"/>
      <point x="941" y="741"/>
    </contour>
    <contour>
      <point x="1565" y="33" type="line"/>
      <point x="1563" y="0" type="line"/>
      <point x="2874" y="0" type="line"/>
      <point x="2874" y="33" type="line"/>
    </contour>
    <contour>
      <point x="2214" y="1123" type="curve" smooth="yes"/>
      <point x="2633" y="1123"/>
      <point x="2846" y="920"/>
      <point x="2846" y="519" type="curve" smooth="yes"/>
      <point x="2846" y="0" type="line"/>
      <point x="2883" y="0" type="line"/>
      <point x="2883" y="519" type="line" smooth="yes"/>
      <point x="2883" y="943"/>
      <point x="2656" y="1158"/>
      <point x="2214" y="1158" type="curve" smooth="yes"/>
      <point x="1772" y="1158"/>
      <point x="1545" y="943"/>
      <point x="1545" y="519" type="curve" smooth="yes"/>
      <point x="1545" y="0" type="line"/>
      <point x="1582" y="0" type="line"/>
      <point x="1582" y="519" type="line" smooth="yes"/>
      <point x="1582" y="920"/>
      <point x="1793" y="1123"/>
    </contour>
    <contour>
      <point x="2339.15" y="652" type="line" smooth="yes"/>
      <point x="2339.15" y="924.191"/>
      <point x="2199.5" y="1077"/>
      <point x="1953.15" y="1077" type="curve" smooth="yes"/>
      <point x="1904.24" y="1077"/>
      <point x="1851.07" y="1068.33"/>
      <point x="1802.15" y="1051" type="curve"/>
      <point x="1792.15" y="1021" type="line"/>
      <point x="1844.93" y="1038.33"/>
      <point x="1895.6" y="1047"/>
      <point x="1944.15" y="1047" type="curve" smooth="yes"/>
      <point x="2170.62" y="1047"/>
      <point x="2300.15" y="905.181"/>
      <point x="2300.15" y="652" type="curve" smooth="yes"/>
      <point x="2300.15" y="645" type="line" smooth="yes" name="n15"/>
      <point x="2300.15" y="343.218"/>
      <point x="2092.75" y="121.015"/>
      <point x="1782.15" y="28" type="curve"/>
      <point x="1826.15" y="14" type="line"/>
      <point x="2133.75" y="104.881"/>
      <point x="2339.15" y="338.278"/>
      <point x="2339.15" y="645" type="curve" smooth="yes"/>
    </contour>
  </outline>
</glyph>
<glyph name="oneeighth.mlm" format="2">
  <advance width="4491"/>
  <unicode hex="0D77"/>
  <outline>
    <contour>
      <point x="630" y="741" type="curve" smooth="yes"/>
      <point x="319" y="741"/>
      <point x="167" y="604"/>
      <point x="167" y="345" type="curve" smooth="yes"/>
      <point x="167" y="331" type="line" smooth="yes"/>
      <point x="167" y="203"/>
      <point x="217" y="84"/>
      <point x="310" y="0" type="curve"/>
      <point x="363" y="0" type="line"/>
      <point x="263" y="86"/>
      <point x="206" y="203"/>
      <point x="206" y="331" type="curve" smooth="yes"/>
      <point x="206" y="345" type="line" smooth="yes"/>
      <point x="206" y="583"/>
      <point x="349" y="706"/>
      <point x="630" y="706" type="curve" smooth="yes"/>
      <point x="911" y="706"/>
      <point x="1054" y="583"/>
      <point x="1054" y="345" type="curve" smooth="yes"/>
      <point x="1054" y="331" type="line" smooth="yes"/>
      <point x="1054" y="206"/>
      <point x="995" y="89"/>
      <point x="891" y="5" type="curve"/>
      <point x="891" y="0" type="line"/>
      <point x="933" y="0" type="line"/>
      <point x="1038" y="84"/>
      <point x="1093" y="203"/>
      <point x="1093" y="331" type="curve" smooth="yes"/>
      <point x="1093" y="345" type="line" smooth="yes"/>
      <point x="1093" y="604"/>
      <point x="941" y="741"/>
    </contour>
    <contour>
      <point x="2580" y="612" type="line"/>
      <point x="2580" y="294" type="line"/>
      <point x="2617" y="294" type="line"/>
      <point x="2617" y="612" type="line"/>
    </contour>
    <contour>
      <point x="3210" y="1153" type="curve" smooth="yes"/>
      <point x="2900" y="1153"/>
      <point x="2665" y="1045"/>
      <point x="2603" y="788" type="curve"/>
      <point x="2591" y="788" type="line"/>
      <point x="2592" y="549" type="line"/>
      <point x="2617" y="549" type="line"/>
      <point x="2617" y="639" type="line" smooth="yes"/>
      <point x="2617" y="945"/>
      <point x="2816" y="1118"/>
      <point x="3210" y="1118" type="curve" smooth="yes"/>
      <point x="3627" y="1118"/>
      <point x="3836" y="912"/>
      <point x="3836" y="495" type="curve" smooth="yes"/>
      <point x="3836" y="475" type="line" smooth="yes"/>
      <point x="3836" y="171"/>
      <point x="3697" y="3"/>
      <point x="3442" y="3" type="curve" smooth="yes"/>
      <point x="3217" y="3"/>
      <point x="3092" y="114"/>
      <point x="3092" y="313" type="curve" smooth="yes"/>
      <point x="3092" y="324" type="line" smooth="yes"/>
      <point x="3092" y="518"/>
      <point x="3226" y="627"/>
      <point x="3460" y="627" type="curve" smooth="yes"/>
      <point x="3842" y="627" type="line"/>
      <point x="3856" y="660" type="line"/>
      <point x="3458" y="660" type="line" smooth="yes"/>
      <point x="3201" y="660"/>
      <point x="3053" y="540"/>
      <point x="3053" y="324" type="curve" smooth="yes"/>
      <point x="3053" y="313" type="line" smooth="yes"/>
      <point x="3053" y="93"/>
      <point x="3192" y="-32"/>
      <point x="3442" y="-32" type="curve" smooth="yes"/>
      <point x="3722" y="-32"/>
      <point x="3874" y="146"/>
      <point x="3874" y="473" type="curve" smooth="yes"/>
      <point x="3874" y="495" type="line" smooth="yes"/>
      <point x="3874" y="935"/>
      <point x="3652" y="1153"/>
    </contour>
    <contour>
      <point x="1633" y="584" type="curve" smooth="yes"/>
      <point x="1633" y="568" type="line" smooth="yes"/>
      <point x="1633" y="330"/>
      <point x="1718" y="148"/>
      <point x="1862" y="0" type="curve"/>
      <point x="1908" y="0" type="line"/>
      <point x="1908" y="5" type="line"/>
      <point x="1760" y="151"/>
      <point x="1672" y="337"/>
      <point x="1672" y="568" type="curve" smooth="yes"/>
      <point x="1672" y="584" type="line" smooth="yes"/>
      <point x="1672" y="936"/>
      <point x="1832" y="1118"/>
      <point x="2151" y="1118" type="curve" smooth="yes"/>
      <point x="2434" y="1118"/>
      <point x="2580" y="962"/>
      <point x="2580" y="656" type="curve" smooth="yes"/>
      <point x="2580" y="468" type="line"/>
      <point x="2601" y="468" type="line"/>
      <point x="2601" y="788" type="line"/>
      <point x="2559" y="1034"/>
      <point x="2406" y="1153"/>
      <point x="2149" y="1153" type="curve" smooth="yes"/>
      <point x="1805" y="1153"/>
      <point x="1633" y="959"/>
    </contour>
    <contour>
      <point x="935" y="33" type="line"/>
      <point x="891" y="0" type="line"/>
      <point x="1908" y="0" type="line"/>
      <point x="1867" y="33" type="line"/>
    </contour>
    <contour>
      <point x="4338" y="1056" type="curve"/>
      <point x="4305" y="1056" type="line"/>
      <point x="4305" y="936" type="line" smooth="yes"/>
      <point x="4305" y="753"/>
      <point x="4216" y="660"/>
      <point x="4044" y="660" type="curve" smooth="yes"/>
      <point x="3854" y="660" type="line"/>
      <point x="3840" y="627" type="line"/>
      <point x="4046" y="627" type="line" smooth="yes"/>
      <point x="4241" y="627"/>
      <point x="4342" y="727"/>
      <point x="4342" y="928" type="curve" smooth="yes"/>
      <point x="4342" y="979"/>
      <point x="4340" y="1005"/>
    </contour>
  </outline>
</glyph>
<glyph name="threesixteenths.mlm" format="2">
  <advance width="5542"/>
  <unicode hex="0D78"/>
  <outline>
    <contour>
      <point x="649" y="459" type="line"/>
      <point x="686" y="459" type="line"/>
      <point x="686" y="1111" type="line"/>
      <point x="649" y="1111" type="line"/>
    </contour>
    <contour>
      <point x="265" y="-32" type="curve" smooth="yes"/>
      <point x="494" y="-32"/>
      <point x="634" y="74"/>
      <point x="667" y="275" type="curve"/>
      <point x="679" y="275" type="line"/>
      <point x="679" y="649" type="line"/>
      <point x="649" y="649" type="line"/>
      <point x="649" y="424" type="line" smooth="yes"/>
      <point x="649" y="146"/>
      <point x="520" y="3"/>
      <point x="265" y="3" type="curve" smooth="yes"/>
      <point x="177" y="3"/>
      <point x="101" y="15"/>
      <point x="40" y="40" type="curve"/>
      <point x="53" y="0" type="line"/>
      <point x="113" y="-21"/>
      <point x="183" y="-32"/>
    </contour>
    <contour>
      <point x="3576" y="1153" type="curve" smooth="yes"/>
      <point x="3284" y="1153"/>
      <point x="3135" y="1004"/>
      <point x="3135" y="708" type="curve" smooth="yes"/>
      <point x="3135" y="597"/>
      <point x="3135" y="532"/>
      <point x="3135" y="421" type="curve" smooth="yes"/>
      <point x="3135" y="145"/>
      <point x="2999" y="3"/>
      <point x="2740" y="3" type="curve" smooth="yes"/>
      <point x="2481" y="3"/>
      <point x="2346" y="145"/>
      <point x="2346" y="421" type="curve" smooth="yes"/>
      <point x="2346" y="530"/>
      <point x="2346" y="595"/>
      <point x="2346" y="704" type="curve" smooth="yes"/>
      <point x="2346" y="1001"/>
      <point x="2193" y="1153"/>
      <point x="1901" y="1153" type="curve" smooth="yes"/>
      <point x="1609" y="1153"/>
      <point x="1457" y="1001"/>
      <point x="1457" y="704" type="curve" smooth="yes"/>
      <point x="1457" y="595"/>
      <point x="1457" y="530"/>
      <point x="1457" y="421" type="curve" smooth="yes"/>
      <point x="1457" y="143"/>
      <point x="1327" y="2"/>
      <point x="1081" y="2" type="curve" smooth="yes"/>
      <point x="819" y="2"/>
      <point x="686" y="144"/>
      <point x="686" y="424" type="curve" smooth="yes"/>
      <point x="686" y="567" type="line"/>
      <point x="664" y="493" type="line"/>
      <point x="669" y="275" type="line"/>
      <point x="704" y="73"/>
      <point x="845" y="-33"/>
      <point x="1081" y="-33" type="curve" smooth="yes"/>
      <point x="1350" y="-33"/>
      <point x="1494" y="119"/>
      <point x="1494" y="415" type="curve" smooth="yes"/>
      <point x="1494" y="524"/>
      <point x="1494" y="590"/>
      <point x="1494" y="699" type="curve" smooth="yes"/>
      <point x="1494" y="977"/>
      <point x="1635" y="1118"/>
      <point x="1903" y="1118" type="curve" smooth="yes"/>
      <point x="2171" y="1118"/>
      <point x="2309" y="977"/>
      <point x="2309" y="699" type="curve" smooth="yes"/>
      <point x="2309" y="590"/>
      <point x="2309" y="524"/>
      <point x="2309" y="415" type="curve" smooth="yes"/>
      <point x="2309" y="121"/>
      <point x="2458" y="-32"/>
      <point x="2740" y="-32" type="curve" smooth="yes"/>
      <point x="3022" y="-32"/>
      <point x="3172" y="121"/>
      <point x="3172" y="415" type="curve" smooth="yes"/>
      <point x="3172" y="526"/>
      <point x="3172" y="591"/>
      <point x="3172" y="702" type="curve" smooth="yes"/>
      <point x="3172" y="978"/>
      <point x="3308" y="1118"/>
      <point x="3576" y="1118" type="curve" smooth="yes"/>
      <point x="3847" y="1118"/>
      <point x="3988" y="962"/>
      <point x="3988" y="700" type="curve" smooth="yes"/>
      <point x="3988" y="468" type="line"/>
      <point x="4009" y="468" type="line"/>
      <point x="4018" y="741" type="line"/>
      <point x="4002" y="1017"/>
      <point x="3839" y="1153"/>
    </contour>
    <contour>
      <point x="4657" y="1153" type="curve" smooth="yes"/>
      <point x="4308" y="1153"/>
      <point x="4093" y="1018"/>
      <point x="4020" y="741" type="curve"/>
      <point x="4012" y="741" type="line"/>
      <point x="3988" y="519" type="line"/>
      <point x="3988" y="0" type="line"/>
      <point x="4025" y="0" type="line"/>
      <point x="4025" y="514" type="line" smooth="yes"/>
      <point x="4025" y="915"/>
      <point x="4236" y="1118"/>
      <point x="4657" y="1118" type="curve" smooth="yes"/>
      <point x="5076" y="1118"/>
      <point x="5288" y="915"/>
      <point x="5288" y="514" type="curve" smooth="yes"/>
      <point x="5288" y="0" type="line"/>
      <point x="5325" y="0" type="line"/>
      <point x="5325" y="514" type="line" smooth="yes"/>
      <point x="5325" y="938"/>
      <point x="5099" y="1153"/>
    </contour>
    <contour>
      <point x="4007" y="33" type="line"/>
      <point x="4005" y="0" type="line"/>
      <point x="5317" y="0" type="line"/>
      <point x="5317" y="33" type="line"/>
    </contour>
    <contour>
      <point x="4780.15" y="649" type="line" smooth="yes"/>
      <point x="4780.15" y="919.91"/>
      <point x="4640.5" y="1072"/>
      <point x="4394.15" y="1072" type="curve" smooth="yes"/>
      <point x="4345.24" y="1072"/>
      <point x="4292.07" y="1063.33"/>
      <point x="4243.15" y="1046" type="curve"/>
      <point x="4233.15" y="1016" type="line"/>
      <point x="4285.93" y="1033.33"/>
      <point x="4336.6" y="1042"/>
      <point x="4385.15" y="1042" type="curve" smooth="yes"/>
      <point x="4611.62" y="1042"/>
      <point x="4741.15" y="900.899"/>
      <point x="4741.15" y="649" type="curve" smooth="yes"/>
      <point x="4741.15" y="642" type="line" smooth="yes" name="n15"/>
      <point x="4741.15" y="341.685"/>
      <point x="4533.75" y="120.563"/>
      <point x="4223.15" y="28" type="curve"/>
      <point x="4267.15" y="14" type="line"/>
      <point x="4574.75" y="104.448"/>
      <point x="4780.15" y="336.736"/>
      <point x="4780.15" y="642" type="curve" smooth="yes"/>
    </contour>
  </outline>
</glyph>
<glyph name="date.mlm" format="2">
  <advance width="3025"/>
  <unicode hex="0D79"/>
  <outline>
    <contour>
      <point x="1148" y="612" type="line"/>
      <point x="1148" y="7" type="line"/>
      <point x="1185" y="7" type="line"/>
      <point x="1185" y="612" type="line"/>
    </contour>
    <contour>
      <point x="706" y="1118" type="curve" smooth="yes"/>
      <point x="998" y="1118"/>
      <point x="1148" y="962"/>
      <point x="1148" y="656" type="curve" smooth="yes"/>
      <point x="1148" y="468" type="line"/>
      <point x="1169" y="468" type="line"/>
      <point x="1169" y="788" type="line"/>
      <point x="1125" y="1034"/>
      <point x="968" y="1153"/>
      <point x="704" y="1153" type="curve" smooth="yes"/>
      <point x="353" y="1153"/>
      <point x="176" y="959"/>
      <point x="176" y="584" type="curve" smooth="yes"/>
      <point x="176" y="568" type="line" smooth="yes"/>
      <point x="176" y="329"/>
      <point x="263" y="146"/>
      <point x="402" y="0" type="curve"/>
      <point x="456" y="0" type="line"/>
      <point x="306" y="144"/>
      <point x="215" y="332"/>
      <point x="215" y="568" type="curve" smooth="yes"/>
      <point x="215" y="584" type="line" smooth="yes"/>
      <point x="215" y="936"/>
      <point x="380" y="1118"/>
    </contour>
    <contour>
      <point x="1777" y="1153" type="curve" smooth="yes"/>
      <point x="1469" y="1153"/>
      <point x="1233" y="1045"/>
      <point x="1171" y="788" type="curve"/>
      <point x="1159" y="788" type="line"/>
      <point x="1161" y="549" type="line"/>
      <point x="1185" y="549" type="line"/>
      <point x="1185" y="639" type="line" smooth="yes"/>
      <point x="1185" y="945"/>
      <point x="1385" y="1118"/>
      <point x="1777" y="1118" type="curve" smooth="yes"/>
      <point x="2192" y="1118"/>
      <point x="2401" y="912"/>
      <point x="2401" y="495" type="curve" smooth="yes"/>
      <point x="2401" y="475" type="line" smooth="yes"/>
      <point x="2401" y="171"/>
      <point x="2262" y="3"/>
      <point x="2007" y="3" type="curve" smooth="yes"/>
      <point x="1782" y="3"/>
      <point x="1657" y="114"/>
      <point x="1657" y="313" type="curve" smooth="yes"/>
      <point x="1657" y="324" type="line" smooth="yes"/>
      <point x="1657" y="518"/>
      <point x="1791" y="627"/>
      <point x="2025" y="627" type="curve" smooth="yes"/>
      <point x="2977" y="627" type="line"/>
      <point x="2991" y="660" type="line"/>
      <point x="2023" y="660" type="line" smooth="yes"/>
      <point x="1766" y="660"/>
      <point x="1618" y="540"/>
      <point x="1618" y="324" type="curve" smooth="yes"/>
      <point x="1618" y="313" type="line" smooth="yes"/>
      <point x="1618" y="93"/>
      <point x="1757" y="-32"/>
      <point x="2007" y="-32" type="curve" smooth="yes"/>
      <point x="2287" y="-32"/>
      <point x="2439" y="146"/>
      <point x="2439" y="473" type="curve" smooth="yes"/>
      <point x="2439" y="495" type="line" smooth="yes"/>
      <point x="2439" y="935"/>
      <point x="2217" y="1153"/>
    </contour>
  </outline>
</glyph>
<glyph name="chilluNn.mlm" format="2">
  <advance width="3811"/>
  <unicode hex="0D7A"/>
  <outline>
    <contour>
      <point x="1452" y="7" type="line"/>
      <point x="1489" y="7" type="line"/>
      <point x="1489" y="612" type="line"/>
      <point x="1452" y="612" type="line"/>
    </contour>
    <contour>
      <point x="848" y="1153" type="curve" smooth="yes"/>
      <point x="400.343" y="1153"/>
      <point x="174" y="926"/>
      <point x="174" y="465" type="curve" smooth="yes"/>
      <point x="174" y="444" type="line" smooth="yes"/>
      <point x="174" y="136"/>
      <point x="325" y="-32"/>
      <point x="609" y="-32" type="curve" smooth="yes"/>
      <point x="863" y="-32"/>
      <point x="1007" y="98"/>
      <point x="1007" y="327" type="curve" smooth="yes"/>
      <point x="1007" y="337" type="line" smooth="yes"/>
      <point x="1007" y="561"/>
      <point x="863" y="688"/>
      <point x="611" y="688" type="curve" smooth="yes"/>
      <point x="405" y="688"/>
      <point x="247" y="583"/>
      <point x="198" y="430" type="curve"/>
      <point x="212" y="414" type="line"/>
      <point x="274" y="559"/>
      <point x="412" y="653"/>
      <point x="611" y="653" type="curve" smooth="yes"/>
      <point x="838" y="653"/>
      <point x="968" y="538"/>
      <point x="968" y="337" type="curve" smooth="yes"/>
      <point x="968" y="327" type="line" smooth="yes"/>
      <point x="968" y="119"/>
      <point x="838" y="3"/>
      <point x="609" y="3" type="curve" smooth="yes"/>
      <point x="351" y="3"/>
      <point x="212" y="158"/>
      <point x="212" y="444" type="curve"/>
      <point x="212" y="445" type="line"/>
      <point x="219" y="466" type="line"/>
      <point x="212" y="466" type="line"/>
      <point x="212" y="466" type="line"/>
      <point x="212" y="904"/>
      <point x="426.348" y="1118"/>
      <point x="848" y="1118" type="curve" smooth="yes"/>
      <point x="1248" y="1118"/>
      <point x="1452" y="945"/>
      <point x="1452" y="639" type="curve" smooth="yes"/>
      <point x="1452" y="549" type="line"/>
      <point x="1466" y="549" type="line"/>
      <point x="1466" y="788" type="line"/>
      <point x="1401" y="1045"/>
      <point x="1162" y="1153"/>
    </contour>
    <contour>
      <point x="2316" y="621" type="line"/>
      <point x="2316" y="7" type="line"/>
      <point x="2353" y="7" type="line"/>
      <point x="2353" y="621" type="line"/>
    </contour>
    <contour>
      <point x="2338" y="788" type="line"/>
      <point x="2298" y="1036"/>
      <point x="2153" y="1153"/>
      <point x="1903" y="1153" type="curve" smooth="yes"/>
      <point x="1653" y="1153"/>
      <point x="1508" y="1036"/>
      <point x="1468" y="788" type="curve"/>
      <point x="1458" y="788" type="line"/>
      <point x="1458" y="468" type="line"/>
      <point x="1489" y="468" type="line"/>
      <point x="1489" y="656" type="line" smooth="yes"/>
      <point x="1489" y="962"/>
      <point x="1627" y="1118"/>
      <point x="1903" y="1118" type="curve" smooth="yes"/>
      <point x="2179" y="1118"/>
      <point x="2316" y="962"/>
      <point x="2316" y="656" type="curve" smooth="yes"/>
      <point x="2316" y="480" type="line"/>
      <point x="2338" y="463" type="line"/>
    </contour>
    <contour>
      <point x="3100" y="1142" type="line"/>
      <point x="3054" y="1149"/>
      <point x="3004" y="1153"/>
      <point x="2953" y="1153" type="curve" smooth="yes"/>
      <point x="2641" y="1153"/>
      <point x="2402" y="1045"/>
      <point x="2340" y="788" type="curve"/>
      <point x="2328" y="788" type="line"/>
      <point x="2330" y="549" type="line"/>
      <point x="2354" y="549" type="line"/>
      <point x="2354" y="639" type="line" smooth="yes"/>
      <point x="2354" y="945"/>
      <point x="2555" y="1118"/>
      <point x="2953" y="1118" type="curve" smooth="yes"/>
      <point x="2995" y="1118"/>
      <point x="3044" y="1116"/>
      <point x="3084" y="1109" type="curve"/>
      <point x="3098" y="1107" type="line"/>
      <point x="3395" y="1056"/>
      <point x="3599" y="865"/>
      <point x="3599" y="480" type="curve" smooth="yes"/>
      <point x="3599" y="466" type="line" smooth="yes"/>
      <point x="3599" y="163"/>
      <point x="3478" y="3"/>
      <point x="3231" y="3" type="curve" smooth="yes"/>
      <point x="3005" y="3"/>
      <point x="2883" y="148"/>
      <point x="2883" y="412" type="curve" smooth="yes"/>
      <point x="2883" y="422" type="line" smooth="yes"/>
      <point x="2883" y="693"/>
      <point x="2997" y="903"/>
      <point x="3122" y="1119" type="curve"/>
      <point x="3124" y="1121"/>
      <point x="3128" y="1131"/>
      <point x="3130" y="1133" type="curve"/>
      <point x="3169" y="1198"/>
      <point x="3192" y="1264"/>
      <point x="3192" y="1329" type="curve" smooth="yes"/>
      <point x="3192" y="1428"/>
      <point x="3159" y="1510"/>
      <point x="3096" y="1582" type="curve"/>
      <point x="3056" y="1582" type="line"/>
      <point x="3128" y="1494"/>
      <point x="3154" y="1421"/>
      <point x="3154" y="1329" type="curve" smooth="yes"/>
      <point x="3154" y="1264"/>
      <point x="3131" y="1202"/>
      <point x="3092" y="1139" type="curve"/>
      <point x="3090" y="1137"/>
      <point x="3087" y="1130"/>
      <point x="3085" y="1128" type="curve"/>
      <point x="2960" y="917"/>
      <point x="2844" y="711"/>
      <point x="2844" y="422" type="curve" smooth="yes"/>
      <point x="2844" y="412" type="line" smooth="yes"/>
      <point x="2844" y="125"/>
      <point x="2980" y="-32"/>
      <point x="3231" y="-32" type="curve" smooth="yes"/>
      <point x="3503" y="-32"/>
      <point x="3638" y="144"/>
      <point x="3638" y="466" type="curve" smooth="yes"/>
      <point x="3638" y="480" type="line" smooth="yes"/>
      <point x="3638" y="880"/>
      <point x="3427" y="1084"/>
      <point x="3117" y="1139" type="curve" smooth="yes"/>
    </contour>
  </outline>
</glyph>
<glyph name="chilluK.mlm" format="2">
  <advance width="2901"/>
  <unicode hex="0D7F"/>
  <outline>
    <contour>
      <point x="1290" y="9" type="curve" smooth="yes"/>
      <point x="981" y="9"/>
      <point x="822" y="181"/>
      <point x="822" y="526" type="curve" smooth="yes"/>
      <point x="822" y="609" type="line" smooth="yes"/>
      <point x="822" y="954"/>
      <point x="979" y="1125"/>
      <point x="1290" y="1125" type="curve" smooth="yes"/>
      <point x="1601" y="1125"/>
      <point x="1758" y="954"/>
      <point x="1758" y="609" type="curve" smooth="yes"/>
      <point x="1758" y="526" type="line" smooth="yes"/>
      <point x="1758" y="181"/>
      <point x="1599" y="9"/>
    </contour>
    <contour>
      <point x="1290" y="-26" type="curve" smooth="yes"/>
      <point x="1623" y="-26"/>
      <point x="1795" y="156"/>
      <point x="1795" y="526" type="curve" smooth="yes"/>
      <point x="1795" y="609" type="line" smooth="yes"/>
      <point x="1795" y="977"/>
      <point x="1623" y="1160"/>
      <point x="1290" y="1160" type="curve" smooth="yes"/>
      <point x="957" y="1160"/>
      <point x="785" y="977"/>
      <point x="785" y="609" type="curve" smooth="yes"/>
      <point x="785" y="526" type="line" smooth="yes"/>
      <point x="785" y="405"/>
      <point x="804" y="303"/>
      <point x="841" y="222" type="curve"/>
      <point x="855" y="194" type="line"/>
      <point x="934" y="48"/>
      <point x="1082" y="-26"/>
    </contour>
    <contour>
      <point x="520" y="-26" type="curve" smooth="yes"/>
      <point x="699" y="-26"/>
      <point x="806" y="48"/>
      <point x="855" y="194" type="curve"/>
      <point x="866" y="195" type="line"/>
      <point x="841" y="245" type="line"/>
      <point x="813" y="120"/>
      <point x="721" y="9"/>
      <point x="520" y="9" type="curve" smooth="yes"/>
      <point x="306" y="9"/>
      <point x="194" y="119"/>
      <point x="194" y="320" type="curve" smooth="yes"/>
      <point x="194" y="334" type="line" smooth="yes"/>
      <point x="194" y="543"/>
      <point x="324" y="646"/>
      <point x="576" y="646" type="curve" smooth="yes"/>
      <point x="797" y="646" type="line"/>
      <point x="806" y="646" type="line"/>
      <point x="1770" y="646" type="line"/>
      <point x="1786" y="646" type="line"/>
      <point x="2323" y="646" type="line" smooth="yes"/>
      <point x="2573" y="646"/>
      <point x="2705" y="539"/>
      <point x="2705" y="328" type="curve" smooth="yes"/>
      <point x="2705" y="314" type="line" smooth="yes"/>
      <point x="2705" y="117"/>
      <point x="2594" y="9"/>
      <point x="2387" y="9" type="curve" smooth="yes"/>
      <point x="2175" y="9"/>
      <point x="2062" y="113"/>
      <point x="2062" y="312" type="curve" smooth="yes"/>
      <point x="2062" y="322" type="line" smooth="yes"/>
      <point x="2062" y="442"/>
      <point x="2104" y="551"/>
      <point x="2174" y="658" type="curve"/>
      <point x="2179" y="669" type="line"/>
      <point x="2300" y="852"/>
      <point x="2406" y="1026"/>
      <point x="2406" y="1216" type="curve" smooth="yes"/>
      <point x="2406" y="1300"/>
      <point x="2381" y="1383"/>
      <point x="2325" y="1459" type="curve"/>
      <point x="2285" y="1459" type="line"/>
      <point x="2348" y="1369"/>
      <point x="2368" y="1297"/>
      <point x="2368" y="1216" type="curve" smooth="yes"/>
      <point x="2368" y="1029"/>
      <point x="2259" y="854"/>
      <point x="2139" y="669" type="curve"/>
      <point x="2134" y="658" type="line"/>
      <point x="2064" y="551"/>
      <point x="2023" y="442"/>
      <point x="2023" y="322" type="curve" smooth="yes"/>
      <point x="2023" y="312" type="line" smooth="yes"/>
      <point x="2023" y="90"/>
      <point x="2150" y="-26"/>
      <point x="2387" y="-26" type="curve" smooth="yes"/>
      <point x="2620" y="-26"/>
      <point x="2744" y="98"/>
      <point x="2744" y="314" type="curve" smooth="yes"/>
      <point x="2744" y="328" type="line" smooth="yes"/>
      <point x="2744" y="559"/>
      <point x="2601" y="679"/>
      <point x="2323" y="679" type="curve" smooth="yes"/>
      <point x="1782" y="679" type="line"/>
      <point x="1765" y="679" type="line"/>
      <point x="813" y="679" type="line"/>
      <point x="797" y="679" type="line"/>
      <point x="576" y="679" type="line" smooth="yes"/>
      <point x="299" y="679"/>
      <point x="155" y="565"/>
      <point x="155" y="334" type="curve" smooth="yes"/>
      <point x="155" y="320" type="line" smooth="yes"/>
      <point x="155" y="96"/>
      <point x="283" y="-26"/>
    </contour>
  </outline>
</glyph>
<glyph name="BaDha.mlm" format="2">
  <advance width="3359"/>
  <outline>
    <contour>
      <point x="2344" y="-579" type="curve" smooth="yes"/>
      <point x="2495" y="-579"/>
      <point x="2583" y="-521"/>
      <point x="2612" y="-408" type="curve"/>
      <point x="2619" y="-231" type="line"/>
      <point x="2596" y="-231" type="line"/>
      <point x="2596" y="-313" type="line" smooth="yes"/>
      <point x="2596" y="-467"/>
      <point x="2512" y="-544"/>
      <point x="2344" y="-544" type="curve" smooth="yes"/>
      <point x="2174" y="-544"/>
      <point x="2086" y="-460"/>
      <point x="2086" y="-290" type="curve" smooth="yes"/>
      <point x="2086" y="-283" type="line" smooth="yes"/>
      <point x="2086" y="-159"/>
      <point x="2137" y="-66"/>
      <point x="2235" y="19" type="curve"/>
      <point x="2246" y="28" type="line"/>
      <point x="2385" y="172"/>
      <point x="2461" y="349"/>
      <point x="2461" y="576" type="curve" smooth="yes"/>
      <point x="2461" y="591" type="line" smooth="yes"/>
      <point x="2461" y="962"/>
      <point x="2284" y="1153"/>
      <point x="1933" y="1153" type="curve" smooth="yes"/>
      <point x="1669" y="1153"/>
      <point x="1514" y="1036"/>
      <point x="1468" y="788" type="curve"/>
      <point x="1458" y="788" type="line"/>
      <point x="1458" y="468" type="line"/>
      <point x="1489" y="468" type="line"/>
      <point x="1489" y="656" type="line" smooth="yes"/>
      <point x="1489" y="962"/>
      <point x="1637" y="1118"/>
      <point x="1931" y="1118" type="curve" smooth="yes"/>
      <point x="2257" y="1118"/>
      <point x="2422" y="939"/>
      <point x="2422" y="591" type="curve" smooth="yes"/>
      <point x="2422" y="576" type="line" smooth="yes"/>
      <point x="2422" y="347"/>
      <point x="2338" y="165"/>
      <point x="2188" y="19" type="curve"/>
      <point x="2099" y="-61"/>
      <point x="2049" y="-159"/>
      <point x="2049" y="-283" type="curve" smooth="yes"/>
      <point x="2049" y="-290" type="line" smooth="yes"/>
      <point x="2049" y="-480"/>
      <point x="2148" y="-579"/>
    </contour>
    <contour>
      <point x="2883" y="-579" type="curve" smooth="yes"/>
      <point x="3079" y="-579"/>
      <point x="3179" y="-480"/>
      <point x="3179" y="-290" type="curve" smooth="yes"/>
      <point x="3179" y="-283" type="line" smooth="yes"/>
      <point x="3179" y="-159"/>
      <point x="3129" y="-61"/>
      <point x="3040" y="19" type="curve"/>
      <point x="2992" y="19" type="line"/>
      <point x="3090" y="-66"/>
      <point x="3142" y="-159"/>
      <point x="3142" y="-283" type="curve" smooth="yes"/>
      <point x="3142" y="-290" type="line" smooth="yes"/>
      <point x="3142" y="-460"/>
      <point x="3053" y="-544"/>
      <point x="2883" y="-544" type="curve" smooth="yes"/>
      <point x="2715" y="-544"/>
      <point x="2631" y="-467"/>
      <point x="2631" y="-313" type="curve" smooth="yes"/>
      <point x="2631" y="-231" type="line"/>
      <point x="2608" y="-231" type="line"/>
      <point x="2603" y="-408" type="line"/>
      <point x="2614" y="-408" type="line"/>
      <point x="2643" y="-521"/>
      <point x="2732" y="-579"/>
    </contour>
    <contour>
      <point x="2230" y="33" type="line"/>
      <point x="2179" y="0" type="line"/>
      <point x="3094" y="0" type="line"/>
      <point x="3094" y="33" type="line"/>
    </contour>
    <contour>
      <point x="3087" y="1123" type="line"/>
      <point x="3087" y="0" type="line"/>
      <point x="3124" y="0" type="line"/>
      <point x="3124" y="1123" type="line"/>
    </contour>
    <contour>
      <point x="2631" y="-304" type="line"/>
      <point x="2631" y="7" type="line"/>
      <point x="2596" y="7" type="line"/>
      <point x="2596" y="-304" type="line"/>
    </contour>
    <contour>
      <point x="1452" y="7" type="line"/>
      <point x="1489" y="7" type="line"/>
      <point x="1489" y="612" type="line"/>
      <point x="1452" y="612" type="line"/>
    </contour>
    <contour>
      <point x="848" y="1153" type="curve" smooth="yes"/>
      <point x="400.343" y="1153"/>
      <point x="174" y="926"/>
      <point x="174" y="465" type="curve" smooth="yes"/>
      <point x="174" y="444" type="line" smooth="yes"/>
      <point x="174" y="136"/>
      <point x="325" y="-32"/>
      <point x="609" y="-32" type="curve" smooth="yes"/>
      <point x="863" y="-32"/>
      <point x="1007" y="98"/>
      <point x="1007" y="327" type="curve" smooth="yes"/>
      <point x="1007" y="337" type="line" smooth="yes"/>
      <point x="1007" y="561"/>
      <point x="863" y="688"/>
      <point x="611" y="688" type="curve" smooth="yes"/>
      <point x="405" y="688"/>
      <point x="247" y="583"/>
      <point x="198" y="430" type="curve"/>
      <point x="212" y="414" type="line"/>
      <point x="274" y="559"/>
      <point x="412" y="653"/>
      <point x="611" y="653" type="curve" smooth="yes"/>
      <point x="838" y="653"/>
      <point x="968" y="538"/>
      <point x="968" y="337" type="curve" smooth="yes"/>
      <point x="968" y="327" type="line" smooth="yes"/>
      <point x="968" y="119"/>
      <point x="838" y="3"/>
      <point x="609" y="3" type="curve" smooth="yes"/>
      <point x="351" y="3"/>
      <point x="212" y="158"/>
      <point x="212" y="444" type="curve"/>
      <point x="212" y="445" type="line"/>
      <point x="219" y="466" type="line"/>
      <point x="212" y="466" type="line"/>
      <point x="212" y="466" type="line"/>
      <point x="212" y="904"/>
      <point x="426.348" y="1118"/>
      <point x="848" y="1118" type="curve" smooth="yes"/>
      <point x="1248" y="1118"/>
      <point x="1452" y="945"/>
      <point x="1452" y="639" type="curve" smooth="yes"/>
      <point x="1452" y="549" type="line"/>
      <point x="1466" y="549" type="line"/>
      <point x="1466" y="788" type="line"/>
      <point x="1401" y="1045"/>
      <point x="1162" y="1153"/>
    </contour>
  </outline>
</glyph>
<glyph name="CaCa.mlm" format="2">
  <advance width="2148"/>
  <outline>
    <component base="Ca.mlm"/>
    <contour>
      <point x="1876" y="26" type="line" name="n31"/>
      <point x="1876" y="-517" type="line"/>
      <point x="1913" y="-517" type="line" name="n33"/>
      <point x="1913" y="25" type="line" name="n32"/>
    </contour>
    <contour>
      <point x="789" y="-484" type="line"/>
      <point x="1114" y="-396"/>
      <point x="1392" y="-208"/>
      <point x="1466" y="18" type="curve"/>
      <point x="1431" y="25" type="line"/>
      <point x="1350" y="-209"/>
      <point x="1063" y="-376"/>
      <point x="697" y="-484" type="curve"/>
      <point x="704" y="-517" type="line"/>
      <point x="1883" y="-517" type="line"/>
      <point x="1883" y="-484" type="line"/>
    </contour>
  </outline>
</glyph>
<glyph name="DaDha.mlm" format="2">
  <advance width="3208"/>
  <outline>
    <contour>
      <point x="2094" y="495" type="line"/>
      <point x="2094" y="1111" type="line"/>
      <point x="2057" y="1111" type="line"/>
      <point x="2057" y="495" type="line"/>
    </contour>
    <contour>
      <point x="2057" y="649" type="line"/>
      <point x="2057" y="459" type="line" smooth="yes"/>
      <point x="2057" y="176"/>
      <point x="1916" y="33"/>
      <point x="1633" y="33" type="curve" smooth="yes"/>
      <point x="1212" y="33" type="line"/>
      <point x="1209" y="0" type="line"/>
      <point x="1631" y="0" type="line" smooth="yes"/>
      <point x="1886" y="0"/>
      <point x="2034" y="106"/>
      <point x="2074" y="310" type="curve"/>
      <point x="2087" y="310" type="line"/>
      <point x="2087" y="649" type="line"/>
    </contour>
    <contour>
      <point x="908" y="1158" type="curve" smooth="yes"/>
      <point x="420" y="1158"/>
      <point x="179" y="946"/>
      <point x="179" y="532" type="curve" smooth="yes"/>
      <point x="179" y="509" type="line" smooth="yes"/>
      <point x="179" y="310"/>
      <point x="237" y="137"/>
      <point x="325" y="0" type="curve"/>
      <point x="373" y="0" type="line"/>
      <point x="278" y="137"/>
      <point x="218" y="310"/>
      <point x="218" y="509" type="curve" smooth="yes"/>
      <point x="218" y="532" type="line" smooth="yes"/>
      <point x="218" y="923"/>
      <point x="443" y="1123"/>
      <point x="908" y="1123" type="curve" smooth="yes"/>
      <point x="1260" y="1123"/>
      <point x="1437" y="1019"/>
      <point x="1437" y="820" type="curve" smooth="yes"/>
      <point x="1437" y="813" type="line" smooth="yes"/>
      <point x="1437" y="656"/>
      <point x="1321" y="577"/>
      <point x="1096" y="577" type="curve" smooth="yes"/>
      <point x="820" y="577" type="line"/>
      <point x="820" y="544" type="line"/>
      <point x="1099" y="544" type="line" smooth="yes"/>
      <point x="1342" y="544"/>
      <point x="1469" y="459"/>
      <point x="1469" y="294" type="curve" smooth="yes"/>
      <point x="1469" y="283" type="line" smooth="yes"/>
      <point x="1469" y="118"/>
      <point x="1346" y="33"/>
      <point x="1108" y="33" type="curve" smooth="yes"/>
      <point x="753" y="33" type="line"/>
      <point x="765" y="0" type="line"/>
      <point x="1226" y="0" type="line"/>
      <point x="1228" y="21" type="line"/>
      <point x="1413" y="40"/>
      <point x="1508" y="133"/>
      <point x="1508" y="283" type="curve" smooth="yes"/>
      <point x="1508" y="294" type="line" smooth="yes"/>
      <point x="1508" y="445"/>
      <point x="1409" y="539"/>
      <point x="1219" y="560" type="curve"/>
      <point x="1219" y="563" type="line"/>
      <point x="1388" y="586"/>
      <point x="1476" y="672"/>
      <point x="1476" y="813" type="curve" smooth="yes"/>
      <point x="1476" y="820" type="line" smooth="yes"/>
      <point x="1476" y="1044"/>
      <point x="1283" y="1158"/>
    </contour>
    <contour>
      <point x="2076" y="310" type="line"/>
      <point x="2116" y="85"/>
      <point x="2269" y="-32"/>
      <point x="2529" y="-32" type="curve" smooth="yes"/>
      <point x="2864" y="-32"/>
      <point x="3032" y="158"/>
      <point x="3032" y="526" type="curve" smooth="yes"/>
      <point x="3032" y="542" type="line" smooth="yes"/>
      <point x="3032" y="780"/>
      <point x="2944" y="968"/>
      <point x="2798" y="1118" type="curve"/>
      <point x="2747" y="1118" type="line"/>
      <point x="2900" y="968"/>
      <point x="2993" y="780"/>
      <point x="2993" y="542" type="curve" smooth="yes"/>
      <point x="2993" y="526" type="line" smooth="yes"/>
      <point x="2993" y="181"/>
      <point x="2838" y="3"/>
      <point x="2527" y="3" type="curve" smooth="yes"/>
      <point x="2238" y="3"/>
      <point x="2094" y="156"/>
      <point x="2094" y="459" type="curve" smooth="yes"/>
      <point x="2094" y="637" type="line"/>
      <point x="2076" y="637" type="line"/>
    </contour>
  </outline>
</glyph>
